<?xml version="1.0" encoding="UTF-8" standalone="no"?>
<!-- Created with Inkscape (http://www.inkscape.org/) -->

<svg
   version="1.1"
   id="svg2"
   width="2099.3096"
   height="368.01569"
   viewBox="0 0 2099.3096 368.01568"
   xmlns="http://www.w3.org/2000/svg"
   xmlns:svg="http://www.w3.org/2000/svg">
  <defs
     id="defs6">
    <filter
       style="color-interpolation-filters:sRGB;"
       id="filter281"
       x="0"
       y="0"
       width="1"
       height="1">
      <feColorMatrix
         type="hueRotate"
         values="180"
         result="color1"
         id="feColorMatrix277" />
      <feColorMatrix
         values="-1 0 0 0 1 0 -1 0 0 1 0 0 -1 0 1 -0.21 -0.72 -0.07 1 0 "
         result="fbSourceGraphic"
         id="feColorMatrix279" />
      <feColorMatrix
         result="fbSourceGraphicAlpha"
         in="fbSourceGraphic"
         values="0 0 0 -1 0 0 0 0 -1 0 0 0 0 -1 0 0 0 0 1 0"
         id="feColorMatrix62" />
      <feColorMatrix
         id="feColorMatrix64"
         type="hueRotate"
         values="180"
         result="color1"
         in="fbSourceGraphic" />
      <feColorMatrix
         id="feColorMatrix66"
         values="-1 0 0 0 1 0 -1 0 0 1 0 0 -1 0 1 -0.21 -0.72 -0.07 2 0 "
         result="color2" />
    </filter>
    <filter
       style="color-interpolation-filters:sRGB;"
       id="filter230"
       x="0"
       y="0"
       width="1"
       height="1">
      <feColorMatrix
         type="hueRotate"
         values="180"
         result="color1"
         id="feColorMatrix226" />
      <feColorMatrix
         values="-1 0 0 0 1 0 -1 0 0 1 0 0 -1 0 1 -0.21 -0.72 -0.07 2 0 "
         result="color2"
         id="feColorMatrix228" />
    </filter>
  </defs>
  <g
     id="g8"
     transform="translate(105.65481,79.341179)">
    <rect
       style="fill:#153954;fill-opacity:1;stroke:none;stroke-width:1.00157;filter:url(#filter230)"
       id="rect363"
       width="2099.3096"
       height="368.01569"
       x="-105.65481"
       y="-79.341179" />
    <path
       style="fill:#000000;stroke-width:1.33333;filter:url(#filter281)"
       d="m 1797.5687,206.43233 c -11.4734,-2.78742 -19.5706,-7.5845 -29.3418,-17.38326 -19.4957,-19.55061 -28.6972,-51.24912 -26.9089,-92.698523 1.5127,-35.06019 10.4628,-60.08825 27.6251,-77.25049 14.109,-14.1090801 36.7092,-20.9153701 56.0842,-16.8904401 30.5846,6.35357 49.7312,28.5818001 58.07,67.4158901 3.4312,15.97914 3.4942,53.512513 0.116,69.180913 -4.8458,22.47616 -11.3684,36.60296 -22.5254,48.7862 -15.7592,17.20889 -40.0226,24.45093 -63.1194,18.83971 z m 38.0553,-13.29139 c 19.0201,-9.58435 30.4317,-29.77516 35.2412,-62.35322 4.9808,-33.738023 -0.023,-70.556353 -12.5668,-92.481983 -11.2791,-19.71381 -34.6023,-30.7703701 -54.8516,-26.00298 -14.3375,3.3755 -23.9952,9.91795 -31.7227,21.48989 -11.4276,17.11295 -17.4381,41.71144 -17.4281,71.325293 0.013,34.14807 7.9089,61.31084 22.2983,76.69413 11.6789,12.48586 20.4782,15.95851 39.0297,15.40328 10.7323,-0.32121 13.7867,-0.94345 20,-4.07441 z M 64.817502,203.29217 C 61.920222,195.74275 2.2906921,5.5157469 2.2906921,3.8223869 c 0,-1.70929 13.0082199,-0.86186 14.5078899,0.94514 1.28436,1.54756 46.44,146.5518231 53.41432,171.5246431 2.8591,10.23753 1.97501,11.58245 11.83247,-18 3.66542,-11 13.08132,-38.6 20.924238,-61.333333 7.84291,-22.73333 17.78089,-51.7616 22.0844,-64.50725 C 134.6211,4.1168569 135.46178,2.6697369 142.03769,3.2164769 l 4.91966,0.40903 4.45292,12.6666601 c 4.19546,11.93428 21.13976,61.00797 39.13208,113.333333 4.4128,12.83333 10.08583,29.63333 12.60674,37.33333 6.33638,19.35424 5.94128,18.54899 7.19617,14.66667 0.59259,-1.83333 12.91152,-42.03333 27.37541,-89.333333 14.4639,-47.3 26.88266,-86.7500001 27.59726,-87.6666601 0.7277,-0.93347 4.19976,-1.66667 7.89253,-1.66667 6.23083,0 6.54089,0.16491 5.64064,3 -1.51175,4.7608501 -9.89361,31.4681401 -25.00273,79.6666701 -7.70108,24.566663 -18.92191,60.266663 -24.93518,79.333323 -6.01325,19.06667 -11.35645,36.16667 -11.87378,38 -0.83707,2.96651 -1.65032,3.33334 -7.39007,3.33334 h -6.44949 L 199.54769,195.6255 C 188.14814,162.33153 153.14159,59.579137 147.87661,43.958837 c -3.3987,-10.08333 -6.57068,-18.33333 -7.04887,-18.33333 -0.93355,0 -3.04496,5.88506 -19.85231,55.33333 -5.9822,17.6 -18.11374,53.149993 -26.958978,78.999993 l -16.08225,47 h -5.85476 c -5.15698,0 -6.02247,-0.437 -7.26194,-3.66666 z m 242.937788,-3.33334 c 1.51746,-3.85 6.82333,-16.9 11.79082,-29 4.96748,-12.1 22.43028,-54.87656 38.80623,-95.059033 l 29.77443,-73.0590301 7.19768,0.39237 7.19766,0.39237 9.03602,22.0000001 c 7.52341,18.31725 42.85084,104.972183 67.28256,165.037883 3.36417,8.27086 6.11666,15.32086 6.11666,15.66667 0,0.34583 -2.60701,0.62877 -5.79334,0.62877 -3.84438,0 -6.4859,-0.78497 -7.85194,-2.33333 -1.13222,-1.28333 -7.37185,-15.69032 -13.86584,-32.01553 l -11.80725,-29.6822 -50.62337,0.34886 -50.62339,0.34887 -11.64352,29.33333 c -6.40393,16.13334 -12.28187,30.38334 -13.06207,31.66667 -1.04545,1.71965 -3.16382,2.33333 -8.05445,2.33333 h -6.63592 z M 440.59982,130.6255 c -0.65833,-1.70689 -23.56668,-58.288933 -36.45488,-90.041113 -3.95317,-9.73927 -7.18759,-18.58927 -7.18759,-19.66666 0,-1.07739 -0.46594,-1.95889 -1.03544,-1.95889 -0.94164,0 -43.55793,104.215703 -45.22832,110.603273 -0.70917,2.71191 -0.41064,2.73006 44.91758,2.73006 35.95914,0 45.49522,-0.35328 44.98865,-1.66667 z m 107.0242,-25.66666 V 2.9588369 l 4.33333,0.0204 c 2.38334,0.0112 4.99436,0.46123 5.80228,1 1.36332,0.90914 126.89597,168.3976031 130.30317,173.8533531 0.8448,1.35276 1.9917,2.45956 2.5486,2.45956 0.557,0 1.0126,-39.9 1.0126,-88.666663 V 2.9588169 h 6 6 V 104.95882 206.95881 h -3.8523 c -2.1187,0 -5.0384,-1.05 -6.4881,-2.33333 -1.4497,-1.28333 -31.9662,-41.60451 -67.81438,-89.60261 l -65.17853,-87.269283 -0.34272,89.602613 -0.34272,89.60261 h -5.99062 -5.99061 z m 246.66667,0 V 2.9588369 h 4.5714 c 2.5143,0 5.3643,0.80423 6.3334,1.78717 0.969,0.98294 30.8619,40.8567301 66.4285,88.6084301 35.5667,47.751693 65.1167,86.847463 65.6667,86.879493 0.55,0.032 1,-39.84176 1,-88.608423 V 2.9588369 h 6 6 V 104.95884 206.95883 h -3.2243 c -1.7733,0 -4.1397,-0.35126 -5.2584,-0.78058 -1.1188,-0.42932 -31.9179,-40.63414 -68.4424,-89.34402 l -66.4082,-88.563443 -0.3428,89.344023 -0.3427,89.34402 h -5.9906 -5.9906 z m 251.68301,-1.5e-4 -0.3497,-102.0001431 7,1.5e-4 7,1.4e-4 V 104.95884 206.95883 h -6.6503 -6.6502 z m 109.6503,1.5e-4 V 2.9588369 h 60.7472 60.7471 l -0.4138,5 -0.4138,5.0000001 -53.6854,0.34848 -53.6854,0.34847 0.3521,42.31819 0.352,42.31819 44.4127,0.35141 44.4128,0.3514 -0.4128,4.981933 -0.4127,4.98192 -44.3333,0.35131 -44.3334,0.35131 v 43.31536 43.31536 h 54 54 v 5.33333 5.33333 h -60.6666 -60.6667 z m 203.6171,101.17257 c -0.5228,-0.5227 -0.9504,-46.50572 -0.9504,-102.18451 V 2.7127369 l 37.6666,0.55519 c 34.7768,0.51259 38.3827,0.78918 47,3.6051 17.4774,5.7112001 25.953,12.6651801 32.5319,26.6916401 3.1189,6.64974 3.4631,8.93791 3.4181,22.7275 -0.047,14.14385 -0.3478,15.93886 -3.8885,23.13891 -2.1112,4.29306 -6.5887,10.62747 -9.95,14.07647 -7.2649,7.454483 -22.3869,15.382173 -33.5191,17.572263 -4.359,0.85762 -7.9257,1.89841 -7.9257,2.31287 0,0.41447 1.4599,2.2864 3.2441,4.15986 5.1398,5.39662 70.055,87.29569 70.073,88.40629 0.02,1.21054 -10.8871,1.33712 -13.9498,0.1619 -1.2012,-0.46095 -17.2041,-19.95978 -35.562,-43.33072 -18.358,-23.37095 -34.9052,-43.6938 -36.7714,-45.1619 -2.9948,-2.35566 -5.4068,-2.66928 -20.5295,-2.66928 h -17.136 l -0.3509,45.66667 -0.3508,45.66667 -6.0496,0.3948 c -3.3274,0.21714 -6.4774,-0.0328 -7,-0.55556 z m 66.0185,-103.78625 c 12.5608,-2.661903 19.8985,-6.220073 27.5107,-13.340333 9.7044,-9.07741 12.8205,-17.01761 12.8377,-32.71266 0.013,-10.15947 -0.5464,-13.85428 -2.8172,-18.66666 -5.5352,-11.73038 -16.9827,-19.72383 -32.4464,-22.65647 -3.8964,-0.73894 -18.4025,-1.34353 -32.2357,-1.34353 h -25.1514 v 45.33333 45.333333 l 21.6667,-0.0231 c 13.5849,-0.0145 25.0121,-0.73212 30.6356,-1.92386 z m 163.6977,103.86706 c 0,-0.41063 14.866,-21.56063 33.0358,-47 34.7901,-48.70991 38.1196,-53.54245 37.391,-54.271 -0.249,-0.24909 -3.9434,1.89353 -8.2098,4.76138 -23.9294,16.08553 -57.6279,12.99153 -76.3358,-7.0087 -9.3989,-10.048203 -13.9368,-21.083743 -14.8306,-36.066563 -1.1828,-19.82599 4.4905,-35.1369 17.6212,-47.55535 27.5716,-26.0760601 73.4048,-23.5122301 94.6094,5.29231 8.9219,12.11947 12.0608,22.78298 11.9498,40.59454 -0.1395,22.35405 -2.6643,27.97264 -32.355,71.999993 -36.7122,54.43946 -45.7944,67.37423 -48.2174,68.67102 -2.6035,1.39333 -14.6586,1.87228 -14.6586,0.58237 z m 47.4247,-98.54476 c 22.4276,-6.67865 35.8469,-24.518443 35.5852,-47.307573 -0.3197,-27.84504 -20.6559,-48.04995 -48.3432,-48.03106 -22.4468,0.0153 -40.6991,11.48685 -47.7997,30.04218 -3.9771,10.39259 -3.9927,28.08763 -0.035,38.87115 4.1265,11.24177 15.3075,21.944933 26.6899,25.549123 10.2078,3.23232 24.7297,3.60762 33.9022,0.87618 z"
       id="path12" />
  </g>
</svg>
