<?xml version="1.0" encoding="UTF-8" standalone="no"?>
<!-- Created with Inkscape (http://www.inkscape.org/) -->

<svg
   id="svg2"
   version="1.1"
   inkscape:version="1.2.2 (b0a8486541, 2022-12-01)"
   width="108.4617"
   height="97.605125"
   xml:space="preserve"
   sodipodi:docname="abinit-icon-dark.svg"
   xmlns:inkscape="http://www.inkscape.org/namespaces/inkscape"
   xmlns:sodipodi="http://sodipodi.sourceforge.net/DTD/sodipodi-0.dtd"
   xmlns="http://www.w3.org/2000/svg"
   xmlns:svg="http://www.w3.org/2000/svg"
   xmlns:rdf="http://www.w3.org/1999/02/22-rdf-syntax-ns#"
   xmlns:cc="http://creativecommons.org/ns#"
   xmlns:dc="http://purl.org/dc/elements/1.1/"><metadata
     id="metadata8"><rdf:RDF><cc:Work
         rdf:about=""><dc:format>image/svg+xml</dc:format><dc:type
           rdf:resource="http://purl.org/dc/dcmitype/StillImage" /></cc:Work></rdf:RDF></metadata><defs
     id="defs6"><clipPath
       clipPathUnits="userSpaceOnUse"
       id="clipPath16"><path
         d="m 361.261,399.102 c -1.861,-0.081 -3.496,-0.166 -5.614,-0.286 v 0 l -2.447,-0.15 -2.862,-0.191 c -3.761,-0.262 -7.473,-0.558 -11.278,-0.904 v 0 c -15.212,-1.367 -30.658,-3.527 -43.576,-5.94 v 0 c -13.014,-2.419 -23.79,-5.046 -32.578,-7.639 v 0 c -17.37,-5.194 -28.241,-10.35 -31.852,-14.866 v 0 c 5.26,2.461 11.249,4.909 18.3,7.345 v 0 c 6.961,2.432 14.99,4.846 23.951,7.165 v 0 c 8.957,2.315 19.034,4.538 29.987,6.453 v 0 c 10.938,1.919 22.739,3.485 34.438,4.518 v 0 c 2.91,0.26 5.878,0.491 8.704,0.683 v 0 l 2.063,0.137 2.441,0.146 c 1.111,0.062 2.697,0.152 3.993,0.21 v 0 c 5.444,0.251 10.59,0.343 15.394,0.302 v 0 c 9.54,-0.106 17.617,-0.758 23.907,-1.791 v 0 c 6.226,-1.044 11.171,-2.393 13.841,-4.059 v 0 c 1.323,-0.832 2.241,-1.73 1.912,-2.745 v 0 c -0.126,-0.503 -0.542,-1.036 -1.662,-1.602 v 0 c -1.049,-0.559 -2.92,-1.177 -6.084,-1.716 v 0 c 3.485,0.388 6.664,1.099 8.761,1.762 v 0 c 2.117,0.674 3.474,1.335 4.508,1.969 v 0 c 1.89,1.258 2.478,2.422 2.249,3.488 v 0 c -0.571,2.123 -3.831,3.961 -9.847,5.37 v 0 c -5.988,1.405 -14.724,2.423 -26.707,2.648 v 0 c -1.583,0.031 -3.223,0.047 -4.916,0.047 v 0 c -4.671,0 -9.732,-0.119 -15.026,-0.354"
         id="path18"
         inkscape:connector-curvature="0" /></clipPath><linearGradient
       x1="0"
       y1="0"
       x2="1"
       y2="0"
       gradientUnits="userSpaceOnUse"
       gradientTransform="matrix(-186.74947,0,0,186.74947,417.80396,384.29086)"
       spreadMethod="pad"
       id="linearGradient24"><stop
         style="stop-opacity:1;stop-color:#f1923d"
         offset="0"
         id="stop26" /><stop
         style="stop-opacity:1;stop-color:#e9643b"
         offset="0.431763"
         id="stop28" /><stop
         style="stop-opacity:1;stop-color:#e9643b"
         offset="0.431763"
         id="stop30" /><stop
         style="stop-opacity:1;stop-color:#e33a37"
         offset="0.828491"
         id="stop32" /><stop
         style="stop-opacity:1;stop-color:#e33a37"
         offset="1"
         id="stop34" /></linearGradient><clipPath
       clipPathUnits="userSpaceOnUse"
       id="clipPath42"><path
         d="M 0,841.89 H 595.28 V 0 H 0 Z"
         id="path44"
         inkscape:connector-curvature="0" /></clipPath><clipPath
       clipPathUnits="userSpaceOnUse"
       id="clipPath54"><path
         d="m 380.041,463.387 c -6.049,-3.07 -12.494,-5.861 -19.708,-8.532 v 0 c -7.647,-2.865 -16.348,-5.635 -25.859,-8.234 v 0 c -10.379,-2.832 -21.285,-5.279 -32.415,-7.276 v 0 c -12.011,-2.162 -24.893,-3.845 -37.257,-4.866 v 0 c -3.122,-0.261 -6.29,-0.489 -9.419,-0.677 v 0 l -2.233,-0.128 -2.691,-0.139 c -1.2,-0.056 -2.889,-0.135 -4.276,-0.182 v 0 c -3.414,-0.122 -6.824,-0.184 -10.133,-0.184 v 0 c -2.192,0 -4.385,0.027 -6.515,0.08 v 0 c -9.852,0.277 -18.778,1.162 -25.811,2.559 v 0 c -7.011,1.417 -12.1,3.146 -14.713,4.997 v 0 c -2.022,1.441 -1.822,2.143 -1.743,2.428 v 0 c 0.036,0.161 0.144,0.653 1.364,1.323 v 0 c 0.859,0.499 2.649,1.228 6.293,1.864 v 0 l -0.252,1.781 c -3.407,-0.369 -7.027,-1.126 -9.689,-2.024 v 0 c -2.069,-0.703 -3.684,-1.469 -5.115,-2.43 v 0 c -2.189,-1.596 -3.119,-3.307 -2.755,-5.124 v 0 c 0.735,-2.973 4.559,-5.435 11.366,-7.315 v 0 c 7.244,-2.005 17.075,-3.247 29.217,-3.692 v 0 c 3.102,-0.117 6.438,-0.176 9.917,-0.176 v 0 c 3.767,0 7.733,0.069 11.79,0.207 v 0 c 2.023,0.065 3.8,0.141 6.109,0.25 v 0 l 2.659,0.14 3.109,0.183 c 4.156,0.257 8.166,0.552 12.253,0.902 v 0 c 15.902,1.343 32.715,3.635 47.342,6.454 v 0 c 13.037,2.5 24.946,5.43 35.398,8.712 v 0 c 18.775,5.973 30.844,12.118 34.905,17.771 v 0 l 2.155,2.999 z"
         id="path56"
         inkscape:connector-curvature="0" /></clipPath><linearGradient
       x1="0"
       y1="0"
       x2="1"
       y2="0"
       gradientUnits="userSpaceOnUse"
       gradientTransform="matrix(-206.29733,0,0,206.29733,383.33398,446.24841)"
       spreadMethod="pad"
       id="linearGradient62"><stop
         style="stop-opacity:1;stop-color:#f1923d"
         offset="0"
         id="stop64" /><stop
         style="stop-opacity:1;stop-color:#e9643b"
         offset="0.431763"
         id="stop66" /><stop
         style="stop-opacity:1;stop-color:#e9643b"
         offset="0.431763"
         id="stop68" /><stop
         style="stop-opacity:1;stop-color:#e33a37"
         offset="0.828491"
         id="stop70" /><stop
         style="stop-opacity:1;stop-color:#e33a37"
         offset="1"
         id="stop72" /></linearGradient><clipPath
       clipPathUnits="userSpaceOnUse"
       id="clipPath80"><path
         d="M 0,841.89 H 595.28 V 0 H 0 Z"
         id="path82"
         inkscape:connector-curvature="0" /></clipPath><filter
       style="color-interpolation-filters:sRGB;"
       inkscape:label="Invert"
       id="filter2502"
       x="0"
       y="0"
       width="1"
       height="1"><feColorMatrix
         type="hueRotate"
         values="180"
         result="color1"
         id="feColorMatrix2498" /><feColorMatrix
         values="-1 0 0 0 1 0 -1 0 0 1 0 0 -1 0 1 -0.21 -0.72 -0.07 2 0 "
         result="color2"
         id="feColorMatrix2500" /></filter></defs><sodipodi:namedview
     pagecolor="#ffffff"
     bordercolor="#666666"
     borderopacity="1"
     objecttolerance="10"
     gridtolerance="10"
     guidetolerance="10"
     inkscape:pageopacity="0"
     inkscape:pageshadow="2"
     inkscape:window-width="1680"
     inkscape:window-height="981"
     id="namedview4"
     showgrid="false"
     fit-margin-top="0"
     fit-margin-left="0"
     fit-margin-right="0"
     fit-margin-bottom="0"
     inkscape:zoom="1.7940585"
     inkscape:cx="-31.771539"
     inkscape:cy="-61.592194"
     inkscape:window-x="1200"
     inkscape:window-y="708"
     inkscape:window-maximized="1"
     inkscape:current-layer="g10"
     inkscape:showpageshadow="false"
     borderlayer="false"
     inkscape:pagecheckerboard="true"
     inkscape:deskcolor="#d1d1d1" /><g
     id="g10"
     inkscape:groupmode="layer"
     inkscape:label="Logo"
     transform="matrix(1.25,0,0,-1.25,-222.41423,591.05267)"><g
       id="g38"
       style="filter:url(#filter2502)"><g
         id="g40"
         clip-path="url(#clipPath42)"><g
           id="g46"
           transform="translate(245.9614,428.8261)"><path
             id="path48"
             style="fill:#5c5c5b;fill-opacity:1;fill-rule:nonzero;stroke:none"
             d="m -3.2517655,44.010707 c -0.4844995,0.01475 -0.977063,-10e-4 -1.4765625,-0.05 -0.997999,-0.098 -1.9377509,-0.305188 -2.81875,-0.617188 -0.8809991,-0.313999 -1.4980004,-0.66625 -1.85,-1.056249 -0.3519996,-0.432 -0.5673126,-0.960939 -0.645313,-1.585938 -0.079,-0.626999 -0.079,-1.234876 0,-1.821875 0.078,-0.704999 0.2139382,-1.428876 0.410938,-2.171875 -2.310998,-3.719996 -4.75819,-7.656254 -7.342188,-11.80625 -1.096998,-1.761998 -2.281126,-3.670002 -3.553125,-5.725 -1.271998,-2.055998 -2.594063,-4.199252 -3.964062,-6.43125 -1.340128,-2.18174 -2.719763,-4.4236354 -4.134375,-6.7171875 1.13057,-0.10072 2.281889,-0.1914468 3.454687,-0.2734375 0.966593,1.6277189 1.964881,3.3157411 2.910938,4.90625 2.269998,3.816996 4.326189,7.261941 6.167187,10.335938 1.839999,3.073996 3.386064,5.667252 4.639063,7.78125 1.252999,2.114997 2.0945629,3.4855 2.5265625,4.112499 0.1949998,-2.897997 0.5585005,-5.805877 1.0875,-8.721874 0.5279995,-2.917998 1.1923133,-5.776003 1.9953125,-8.575001 0.8019992,-2.799997 1.692876,-5.511377 2.671875,-8.1343745 0.2684174,-0.7194353 0.5573352,-1.402854 0.8375,-2.1015625 0.8431162,0.022719 1.68263083,0.038713 2.528125,0.06875 1.3579986,0.047 3.0095637,0.1236876 4.2015625,0.1796875 l 0.1,0.00312 2.6359375,0.1359375 0.6578125,0.0375 C 7.289496,7.1192461 6.8213684,8.4678433 6.4013595,9.8372695 5.4223605,13.027266 4.6195464,16.15046 3.993547,19.204457 c -0.6269994,3.053997 -1.1355629,5.95119 -1.5265625,8.692188 -0.3919996,2.740997 -0.7056252,5.178502 -0.940625,7.3125 -0.2349998,2.133997 -0.4406252,3.876563 -0.615625,5.226562 -0.17699982,1.350999 -0.38218774,2.164063 -0.6171875,2.439062 -0.46999953,0.508 -1.17406344,0.839876 -2.1140625,0.996876 -0.4694995,0.078 -0.9467505,0.124312 -1.43125,0.139062 z M -29.681453,4.3153945 c -0.911026,-1.4769308 -1.820647,-2.9543192 -2.73125,-4.43125 1.186128,-0.0650338 2.404639,-0.12172331 3.65625,-0.1703125 0.870231,1.4696398 1.701275,2.8670052 2.55625,4.3078125 -1.188495,0.088574 -2.349422,0.1869281 -3.48125,0.29375 z M 8.474797,4.020082 7.2357345,3.948207 4.587297,3.8122695 C 3.3822982,3.7552696 1.6614831,3.674332 0.2544845,3.626332 c -0.63606411,-0.022684 -1.24806081,-0.031621 -1.8765625,-0.05 0.5025006,-1.1795699 1.02449568,-2.3260651 1.5625,-3.44375 l 7.1359375,0.28125 C 8.034091,0.47625645 8.9918838,0.54150887 9.9482345,0.6091445 9.4246497,1.7327189 8.9388563,2.8717967 8.474797,4.020082 Z m -8.534375,-3.8875 -14.85625,-0.5875 c 1.970018,0.0209354 3.978191,0.0590241 6.028125,0.115625 l 8.8875,0.3390625 C -0.02095251,0.04267495 -0.0388812,0.08958513 -0.059578,0.132582 Z M 11.157609,-1.114293 C 9.2406595,-1.2538507 7.3213547,-1.384494 5.3701095,-1.504918 l -3.1171875,-0.1828125 -1.4171875,-0.075 c 1.4652103,-2.0703234 2.8830526,-3.7948897 4.2484375,-5.125 1.5849984,-1.5459985 3.0038138,-2.4368752 4.2578125,-2.671875 1.7999985,-0.3519996 3.2788135,-0.4588745 4.4328125,-0.321875 1.154999,0.1379999 1.9675,0.4403755 2.4375,0.909375 0.47,0.4699995 0.605937,1.0381257 0.410937,1.703125 -0.195999,0.6659993 -0.704563,1.3512507 -1.526562,2.05625 -1.46484,1.2694728 -2.771989,2.639591 -3.939063,4.0984375 z m -43.545312,-0.80625 c -2.135991,-3.4545327 -4.205535,-6.8078037 -6.160938,-9.982812 -2.132997,-3.464997 -4.041001,-6.559253 -5.725,-9.28125 -1.682998,-2.720998 -3.062626,-4.951752 -4.140625,-6.693751 -1.075998,-1.741998 -1.713375,-2.79075 -1.909375,-3.14375 -0.547999,-0.859999 -0.831562,-1.574188 -0.851562,-2.142187 -0.019,-0.566999 0.128625,-0.949313 0.440625,-1.145312 0.314,-0.196 0.744188,-0.196 1.292187,0 0.548,0.195999 1.155314,0.645 1.820313,1.349999 0.47,0.509 1.321689,1.71294 2.554687,3.610938 1.232999,1.899998 2.740877,4.28919 4.521875,7.167188 1.782999,2.876997 3.749128,6.107066 5.903125,9.689062 1.999381,3.3273472 4.06212,6.8098585 6.164063,10.390625 -1.332243,0.049747 -2.632814,0.1123043 -3.909375,0.18125 z" /></g></g></g><g
       id="g50"><g
         id="g52"
         clip-path="url(#clipPath54)"><g
           id="g58"><g
             id="g60"><path
               id="path74"
               style="fill:url(#linearGradient62);stroke:none"
               d="m 380.44713,462.58368 c -5.68699,-2.887 -12.167,-5.74488 -19.8,-8.57187 -7.53399,-2.823 -16.22994,-5.60738 -25.93593,-8.25938 -9.70199,-2.647 -20.62076,-5.16319 -32.49375,-7.29219 -11.85599,-2.13499 -24.6522,-3.82912 -37.34219,-4.87812 -3.155,-0.265 -6.37463,-0.49413 -9.44063,-0.67813 l -2.2375,-0.12968 -2.64843,-0.13594 c -1.205,-0.057 -2.92582,-0.13794 -4.33282,-0.18594 -3.50499,-0.125 -6.89606,-0.18437 -10.16406,-0.18437 -2.239,0 -4.42119,0.0283 -6.54219,0.0813 -10.35499,0.291 -19.12806,1.21956 -25.96406,2.57656 -6.76599,1.368 -12.14581,3.08431 -15.05781,5.14531 -1.442,1.03 -2.44644,2.13269 -2.09844,3.35469 0.132,0.605 0.57963,1.24438 1.79063,1.90937 1.134,0.658 3.15963,1.37288 6.59062,1.97188 -3.77999,-0.41 -7.22588,-1.21581 -9.49687,-1.98281 -2.291,-0.779 -3.75957,-1.55569 -4.87657,-2.30469 -2.04099,-1.489 -2.66893,-2.88625 -2.41093,-4.18125 0.638,-2.578 4.19338,-4.85606 10.73437,-6.66406 6.512,-1.802 16.00295,-3.18338 29.01094,-3.65938 3.104,-0.117 6.41225,-0.175 9.88125,-0.175 3.754,0 7.69394,0.0693 11.76094,0.20625 2.01899,0.066 3.79162,0.142 6.09062,0.25 l 2.65625,0.13906 3.10469,0.18282 c 4.08,0.252 8.10638,0.547 12.23437,0.9 16.49999,1.393 33.24589,3.74319 47.24688,6.44218 14.10499,2.705 25.77832,5.69738 35.29531,8.68438 18.80898,5.98599 30.56532,12.03707 34.44531,17.43906 z" /></g></g></g></g></g></svg>
