<?xml version="1.0" encoding="UTF-8" standalone="no"?>
<!-- Created with Inkscape (http://www.inkscape.org/) -->

<svg
   id="svg2"
   version="1.1"
   inkscape:version="1.2.2 (b0a8486541, 2022-12-01)"
   width="112"
   height="112"
   xml:space="preserve"
   sodipodi:docname="abinit-icon-dark.svg"
   xmlns:inkscape="http://www.inkscape.org/namespaces/inkscape"
   xmlns:sodipodi="http://sodipodi.sourceforge.net/DTD/sodipodi-0.dtd"
   xmlns="http://www.w3.org/2000/svg"
   xmlns:svg="http://www.w3.org/2000/svg"
   xmlns:rdf="http://www.w3.org/1999/02/22-rdf-syntax-ns#"
   xmlns:cc="http://creativecommons.org/ns#"
   xmlns:dc="http://purl.org/dc/elements/1.1/"><metadata
     id="metadata8"><rdf:RDF><cc:Work
         rdf:about=""><dc:format>image/svg+xml</dc:format><dc:type
           rdf:resource="http://purl.org/dc/dcmitype/StillImage" /></cc:Work></rdf:RDF></metadata><defs
     id="defs6"><clipPath
       clipPathUnits="userSpaceOnUse"
       id="clipPath16"><path
         d="m 361.261,399.102 c -1.861,-0.081 -3.496,-0.166 -5.614,-0.286 v 0 l -2.447,-0.15 -2.862,-0.191 c -3.761,-0.262 -7.473,-0.558 -11.278,-0.904 v 0 c -15.212,-1.367 -30.658,-3.527 -43.576,-5.94 v 0 c -13.014,-2.419 -23.79,-5.046 -32.578,-7.639 v 0 c -17.37,-5.194 -28.241,-10.35 -31.852,-14.866 v 0 c 5.26,2.461 11.249,4.909 18.3,7.345 v 0 c 6.961,2.432 14.99,4.846 23.951,7.165 v 0 c 8.957,2.315 19.034,4.538 29.987,6.453 v 0 c 10.938,1.919 22.739,3.485 34.438,4.518 v 0 c 2.91,0.26 5.878,0.491 8.704,0.683 v 0 l 2.063,0.137 2.441,0.146 c 1.111,0.062 2.697,0.152 3.993,0.21 v 0 c 5.444,0.251 10.59,0.343 15.394,0.302 v 0 c 9.54,-0.106 17.617,-0.758 23.907,-1.791 v 0 c 6.226,-1.044 11.171,-2.393 13.841,-4.059 v 0 c 1.323,-0.832 2.241,-1.73 1.912,-2.745 v 0 c -0.126,-0.503 -0.542,-1.036 -1.662,-1.602 v 0 c -1.049,-0.559 -2.92,-1.177 -6.084,-1.716 v 0 c 3.485,0.388 6.664,1.099 8.761,1.762 v 0 c 2.117,0.674 3.474,1.335 4.508,1.969 v 0 c 1.89,1.258 2.478,2.422 2.249,3.488 v 0 c -0.571,2.123 -3.831,3.961 -9.847,5.37 v 0 c -5.988,1.405 -14.724,2.423 -26.707,2.648 v 0 c -1.583,0.031 -3.223,0.047 -4.916,0.047 v 0 c -4.671,0 -9.732,-0.119 -15.026,-0.354"
         id="path18"
         inkscape:connector-curvature="0" /></clipPath><linearGradient
       x1="0"
       y1="0"
       x2="1"
       y2="0"
       gradientUnits="userSpaceOnUse"
       gradientTransform="matrix(-186.74947,0,0,186.74947,417.80396,384.29086)"
       spreadMethod="pad"
       id="linearGradient24"><stop
         style="stop-opacity:1;stop-color:#f1923d"
         offset="0"
         id="stop26" /><stop
         style="stop-opacity:1;stop-color:#e9643b"
         offset="0.431763"
         id="stop28" /><stop
         style="stop-opacity:1;stop-color:#e9643b"
         offset="0.431763"
         id="stop30" /><stop
         style="stop-opacity:1;stop-color:#e33a37"
         offset="0.828491"
         id="stop32" /><stop
         style="stop-opacity:1;stop-color:#e33a37"
         offset="1"
         id="stop34" /></linearGradient><clipPath
       clipPathUnits="userSpaceOnUse"
       id="clipPath42"><path
         d="M 0,841.89 H 595.28 V 0 H 0 Z"
         id="path44"
         inkscape:connector-curvature="0" /></clipPath><clipPath
       clipPathUnits="userSpaceOnUse"
       id="clipPath54"><path
         d="m 380.041,463.387 c -6.049,-3.07 -12.494,-5.861 -19.708,-8.532 v 0 c -7.647,-2.865 -16.348,-5.635 -25.859,-8.234 v 0 c -10.379,-2.832 -21.285,-5.279 -32.415,-7.276 v 0 c -12.011,-2.162 -24.893,-3.845 -37.257,-4.866 v 0 c -3.122,-0.261 -6.29,-0.489 -9.419,-0.677 v 0 l -2.233,-0.128 -2.691,-0.139 c -1.2,-0.056 -2.889,-0.135 -4.276,-0.182 v 0 c -3.414,-0.122 -6.824,-0.184 -10.133,-0.184 v 0 c -2.192,0 -4.385,0.027 -6.515,0.08 v 0 c -9.852,0.277 -18.778,1.162 -25.811,2.559 v 0 c -7.011,1.417 -12.1,3.146 -14.713,4.997 v 0 c -2.022,1.441 -1.822,2.143 -1.743,2.428 v 0 c 0.036,0.161 0.144,0.653 1.364,1.323 v 0 c 0.859,0.499 2.649,1.228 6.293,1.864 v 0 l -0.252,1.781 c -3.407,-0.369 -7.027,-1.126 -9.689,-2.024 v 0 c -2.069,-0.703 -3.684,-1.469 -5.115,-2.43 v 0 c -2.189,-1.596 -3.119,-3.307 -2.755,-5.124 v 0 c 0.735,-2.973 4.559,-5.435 11.366,-7.315 v 0 c 7.244,-2.005 17.075,-3.247 29.217,-3.692 v 0 c 3.102,-0.117 6.438,-0.176 9.917,-0.176 v 0 c 3.767,0 7.733,0.069 11.79,0.207 v 0 c 2.023,0.065 3.8,0.141 6.109,0.25 v 0 l 2.659,0.14 3.109,0.183 c 4.156,0.257 8.166,0.552 12.253,0.902 v 0 c 15.902,1.343 32.715,3.635 47.342,6.454 v 0 c 13.037,2.5 24.946,5.43 35.398,8.712 v 0 c 18.775,5.973 30.844,12.118 34.905,17.771 v 0 l 2.155,2.999 z"
         id="path56"
         inkscape:connector-curvature="0" /></clipPath><linearGradient
       x1="0"
       y1="0"
       x2="1"
       y2="0"
       gradientUnits="userSpaceOnUse"
       gradientTransform="matrix(-206.29733,0,0,206.29733,383.33398,446.24841)"
       spreadMethod="pad"
       id="linearGradient62"><stop
         style="stop-opacity:1;stop-color:#f1923d"
         offset="0"
         id="stop64" /><stop
         style="stop-opacity:1;stop-color:#e9643b"
         offset="0.431763"
         id="stop66" /><stop
         style="stop-opacity:1;stop-color:#e9643b"
         offset="0.431763"
         id="stop68" /><stop
         style="stop-opacity:1;stop-color:#e33a37"
         offset="0.828491"
         id="stop70" /><stop
         style="stop-opacity:1;stop-color:#e33a37"
         offset="1"
         id="stop72" /></linearGradient><clipPath
       clipPathUnits="userSpaceOnUse"
       id="clipPath80"><path
         d="M 0,841.89 H 595.28 V 0 H 0 Z"
         id="path82"
         inkscape:connector-curvature="0" /></clipPath><clipPath
       clipPathUnits="userSpaceOnUse"
       id="clipPath16-4"><path
         d="m 361.261,399.102 c -1.861,-0.081 -3.496,-0.166 -5.614,-0.286 v 0 l -2.447,-0.15 -2.862,-0.191 c -3.761,-0.262 -7.473,-0.558 -11.278,-0.904 v 0 c -15.212,-1.367 -30.658,-3.527 -43.576,-5.94 v 0 c -13.014,-2.419 -23.79,-5.046 -32.578,-7.639 v 0 c -17.37,-5.194 -28.241,-10.35 -31.852,-14.866 v 0 c 5.26,2.461 11.249,4.909 18.3,7.345 v 0 c 6.961,2.432 14.99,4.846 23.951,7.165 v 0 c 8.957,2.315 19.034,4.538 29.987,6.453 v 0 c 10.938,1.919 22.739,3.485 34.438,4.518 v 0 c 2.91,0.26 5.878,0.491 8.704,0.683 v 0 l 2.063,0.137 2.441,0.146 c 1.111,0.062 2.697,0.152 3.993,0.21 v 0 c 5.444,0.251 10.59,0.343 15.394,0.302 v 0 c 9.54,-0.106 17.617,-0.758 23.907,-1.791 v 0 c 6.226,-1.044 11.171,-2.393 13.841,-4.059 v 0 c 1.323,-0.832 2.241,-1.73 1.912,-2.745 v 0 c -0.126,-0.503 -0.542,-1.036 -1.662,-1.602 v 0 c -1.049,-0.559 -2.92,-1.177 -6.084,-1.716 v 0 c 3.485,0.388 6.664,1.099 8.761,1.762 v 0 c 2.117,0.674 3.474,1.335 4.508,1.969 v 0 c 1.89,1.258 2.478,2.422 2.249,3.488 v 0 c -0.571,2.123 -3.831,3.961 -9.847,5.37 v 0 c -5.988,1.405 -14.724,2.423 -26.707,2.648 v 0 c -1.583,0.031 -3.223,0.047 -4.916,0.047 v 0 c -4.671,0 -9.732,-0.119 -15.026,-0.354"
         id="path18-8"
         inkscape:connector-curvature="0" /></clipPath><clipPath
       clipPathUnits="userSpaceOnUse"
       id="clipPath42-0"><path
         d="M 0,841.89 H 595.28 V 0 H 0 Z"
         id="path44-8"
         inkscape:connector-curvature="0" /></clipPath><clipPath
       clipPathUnits="userSpaceOnUse"
       id="clipPath54-8"><path
         d="m 380.041,463.387 c -6.049,-3.07 -12.494,-5.861 -19.708,-8.532 v 0 c -7.647,-2.865 -16.348,-5.635 -25.859,-8.234 v 0 c -10.379,-2.832 -21.285,-5.279 -32.415,-7.276 v 0 c -12.011,-2.162 -24.893,-3.845 -37.257,-4.866 v 0 c -3.122,-0.261 -6.29,-0.489 -9.419,-0.677 v 0 l -2.233,-0.128 -2.691,-0.139 c -1.2,-0.056 -2.889,-0.135 -4.276,-0.182 v 0 c -3.414,-0.122 -6.824,-0.184 -10.133,-0.184 v 0 c -2.192,0 -4.385,0.027 -6.515,0.08 v 0 c -9.852,0.277 -18.778,1.162 -25.811,2.559 v 0 c -7.011,1.417 -12.1,3.146 -14.713,4.997 v 0 c -2.022,1.441 -1.822,2.143 -1.743,2.428 v 0 c 0.036,0.161 0.144,0.653 1.364,1.323 v 0 c 0.859,0.499 2.649,1.228 6.293,1.864 v 0 l -0.252,1.781 c -3.407,-0.369 -7.027,-1.126 -9.689,-2.024 v 0 c -2.069,-0.703 -3.684,-1.469 -5.115,-2.43 v 0 c -2.189,-1.596 -3.119,-3.307 -2.755,-5.124 v 0 c 0.735,-2.973 4.559,-5.435 11.366,-7.315 v 0 c 7.244,-2.005 17.075,-3.247 29.217,-3.692 v 0 c 3.102,-0.117 6.438,-0.176 9.917,-0.176 v 0 c 3.767,0 7.733,0.069 11.79,0.207 v 0 c 2.023,0.065 3.8,0.141 6.109,0.25 v 0 l 2.659,0.14 3.109,0.183 c 4.156,0.257 8.166,0.552 12.253,0.902 v 0 c 15.902,1.343 32.715,3.635 47.342,6.454 v 0 c 13.037,2.5 24.946,5.43 35.398,8.712 v 0 c 18.775,5.973 30.844,12.118 34.905,17.771 v 0 l 2.155,2.999 z"
         id="path56-5"
         inkscape:connector-curvature="0" /></clipPath><clipPath
       clipPathUnits="userSpaceOnUse"
       id="clipPath80-5"><path
         d="M 0,841.89 H 595.28 V 0 H 0 Z"
         id="path82-6"
         inkscape:connector-curvature="0" /></clipPath><filter
       style="color-interpolation-filters:sRGB;"
       inkscape:label="Greyscale"
       id="filter4311"
       x="0"
       y="0"
       width="1"
       height="1"
       inkscape:menu-tooltip="Fades hue progressively to white"
       inkscape:menu="Color"><feColorMatrix
         type="hueRotate"
         values="180"
         result="color1"
         id="feColorMatrix4307" /><feColorMatrix
         values="-1 0 0 0 1 0 -1 0 0 1 0 0 -1 0 1 -0.21 -0.72 -0.07 2 0 "
         result="fbSourceGraphic"
         id="feColorMatrix4309" /><feColorMatrix
         result="fbSourceGraphicAlpha"
         in="fbSourceGraphic"
         values="0 0 0 -1 0 0 0 0 -1 0 0 0 0 -1 0 0 0 0 1 0"
         id="feColorMatrix4659" /><feColorMatrix
         id="feColorMatrix4661"
         values="1 0 0 0 0 1 0 0 0 0 1 0 0 0 0 0 0 0 0 1 "
         type="matrix"
         result="r"
         in="fbSourceGraphic" /><feColorMatrix
         id="feColorMatrix4663"
         values="0 1 0 0 0 0 1 0 0 0 0 1 0 0 0 0 0 0 0 1 "
         type="matrix"
         result="g"
         in="fbSourceGraphic" /><feColorMatrix
         id="feColorMatrix4665"
         values="0 0 1 0 0 0 0 1 0 0 0 0 1 0 0 0 0 0 0 1 "
         type="matrix"
         result="b"
         in="fbSourceGraphic" /><feBlend
         in2="g"
         id="feBlend4667"
         result="minrg"
         in="r"
         mode="darken" /><feBlend
         in2="b"
         id="feBlend4669"
         result="p"
         in="minrg"
         mode="darken" /><feBlend
         in2="g"
         id="feBlend4671"
         result="maxrg"
         in="r"
         mode="lighten" /><feBlend
         in2="b"
         id="feBlend4673"
         result="q"
         in="maxrg"
         mode="lighten" /><feComponentTransfer
         id="feComponentTransfer4675"
         result="q2"
         in="q"><feFuncR
           id="feFuncR4677"
           slope="0"
           type="linear" /></feComponentTransfer><feBlend
         in2="q2"
         id="feBlend4679"
         result="pq"
         in="p"
         mode="lighten" /><feColorMatrix
         id="feColorMatrix4681"
         values="-1 1 0 0 0 -1 1 0 0 0 -1 1 0 0 0 0 0 0 0 1 "
         type="matrix"
         result="qminp"
         in="pq" /><feComposite
         in2="qminp"
         id="feComposite4683"
         k3="1"
         operator="arithmetic"
         result="qminpc"
         in="qminp" /><feBlend
         in2="fbSourceGraphic"
         id="feBlend4685"
         result="result2"
         mode="screen" /><feComposite
         in2="fbSourceGraphic"
         id="feComposite4687"
         operator="in"
         in="result2"
         result="fbSourceGraphic" /><feColorMatrix
         result="fbSourceGraphicAlpha"
         in="fbSourceGraphic"
         values="0 0 0 -1 0 0 0 0 -1 0 0 0 0 -1 0 0 0 0 1 0"
         id="feColorMatrix4735" /><feColorMatrix
         id="feColorMatrix4737"
         values="1 0 0 0 0 0 1 0 0 0 0 0 1 0 0 0 0 0 1 0"
         in="fbSourceGraphic"
         result="fbSourceGraphic" /><feColorMatrix
         result="fbSourceGraphicAlpha"
         in="fbSourceGraphic"
         values="0 0 0 -1 0 0 0 0 -1 0 0 0 0 -1 0 0 0 0 1 0"
         id="feColorMatrix4799" /><feColorMatrix
         id="feColorMatrix4801"
         values="1 0 0 0.270798 -0 0 1 0 0.270798 -0 0 0 1 0.270798 -0 0 0 0 1 0"
         in="fbSourceGraphic"
         result="fbSourceGraphic" /><feColorMatrix
         result="fbSourceGraphicAlpha"
         in="fbSourceGraphic"
         values="0 0 0 -1 0 0 0 0 -1 0 0 0 0 -1 0 0 0 0 1 0"
         id="feColorMatrix6150" /><feColorMatrix
         id="feColorMatrix6152"
         values="0.21 0.72 0.072 -0.06 0 0.21 0.72 0.072 -0.06 0 0.21 0.72 0.072 -0.06 0 0 0 0 1 0 "
         in="fbSourceGraphic"
         result="fbSourceGraphic" /><feColorMatrix
         result="fbSourceGraphicAlpha"
         in="fbSourceGraphic"
         values="0 0 0 -1 0 0 0 0 -1 0 0 0 0 -1 0 0 0 0 1 0"
         id="feColorMatrix6158" /><feColorMatrix
         id="feColorMatrix6160"
         values="0.21 0.72 0.072 -0.06 0 0.21 0.72 0.072 -0.06 0 0.21 0.72 0.072 -0.06 0 0 0 0 1 0 "
         in="fbSourceGraphic" /></filter><filter
       style="color-interpolation-filters:sRGB;"
       inkscape:label="Greyscale"
       id="filter4317"
       x="0"
       y="-0.0092592593"
       width="1"
       height="1.0092593"
       inkscape:menu-tooltip="Fades hue progressively to white"
       inkscape:menu="Color"><feColorMatrix
         type="hueRotate"
         values="180"
         result="color1"
         id="feColorMatrix4313" /><feColorMatrix
         values="-1 0 0 0 1 0 -1 0 0 1 0 0 -1 0 1 -0.21 -0.72 -0.07 2 0 "
         result="fbSourceGraphic"
         id="feColorMatrix4315" /><feColorMatrix
         result="fbSourceGraphicAlpha"
         in="fbSourceGraphic"
         values="0 0 0 -1 0 0 0 0 -1 0 0 0 0 -1 0 0 0 0 1 0"
         id="feColorMatrix4689" /><feColorMatrix
         id="feColorMatrix4691"
         values="1 0 0 0 0 1 0 0 0 0 1 0 0 0 0 0 0 0 0 1 "
         type="matrix"
         result="r"
         in="fbSourceGraphic" /><feColorMatrix
         id="feColorMatrix4693"
         values="0 1 0 0 0 0 1 0 0 0 0 1 0 0 0 0 0 0 0 1 "
         type="matrix"
         result="g"
         in="fbSourceGraphic" /><feColorMatrix
         id="feColorMatrix4695"
         values="0 0 1 0 0 0 0 1 0 0 0 0 1 0 0 0 0 0 0 1 "
         type="matrix"
         result="b"
         in="fbSourceGraphic" /><feBlend
         in2="g"
         id="feBlend4697"
         result="minrg"
         in="r"
         mode="darken" /><feBlend
         in2="b"
         id="feBlend4699"
         result="p"
         in="minrg"
         mode="darken" /><feBlend
         in2="g"
         id="feBlend4701"
         result="maxrg"
         in="r"
         mode="lighten" /><feBlend
         in2="b"
         id="feBlend4703"
         result="q"
         in="maxrg"
         mode="lighten" /><feComponentTransfer
         id="feComponentTransfer4705"
         result="q2"
         in="q"><feFuncR
           id="feFuncR4707"
           slope="0"
           type="linear" /></feComponentTransfer><feBlend
         in2="q2"
         id="feBlend4709"
         result="pq"
         in="p"
         mode="lighten" /><feColorMatrix
         id="feColorMatrix4711"
         values="-1 1 0 0 0 -1 1 0 0 0 -1 1 0 0 0 0 0 0 0 1 "
         type="matrix"
         result="qminp"
         in="pq" /><feComposite
         in2="qminp"
         id="feComposite4713"
         k3="1"
         operator="arithmetic"
         result="qminpc"
         in="qminp" /><feBlend
         in2="fbSourceGraphic"
         id="feBlend4715"
         result="result2"
         mode="screen" /><feComposite
         in2="fbSourceGraphic"
         id="feComposite4717"
         operator="in"
         in="result2"
         result="fbSourceGraphic" /><feColorMatrix
         result="fbSourceGraphicAlpha"
         in="fbSourceGraphic"
         values="0 0 0 -1 0 0 0 0 -1 0 0 0 0 -1 0 0 0 0 1 0"
         id="feColorMatrix4739" /><feColorMatrix
         id="feColorMatrix4741"
         values="1 0 0 0 0 0 1 0 0 0 0 0 1 0 0 0 0 0 1 0"
         in="fbSourceGraphic"
         result="fbSourceGraphic" /><feColorMatrix
         result="fbSourceGraphicAlpha"
         in="fbSourceGraphic"
         values="0 0 0 -1 0 0 0 0 -1 0 0 0 0 -1 0 0 0 0 1 0"
         id="feColorMatrix4803" /><feColorMatrix
         id="feColorMatrix4805"
         values="1 0 0 0.270798 -0 0 1 0 0.270798 -0 0 0 1 0.270798 -0 0 0 0 1 0"
         in="fbSourceGraphic"
         result="fbSourceGraphic" /><feColorMatrix
         result="fbSourceGraphicAlpha"
         in="fbSourceGraphic"
         values="0 0 0 -1 0 0 0 0 -1 0 0 0 0 -1 0 0 0 0 1 0"
         id="feColorMatrix6154" /><feColorMatrix
         id="feColorMatrix6156"
         values="0.21 0.72 0.072 -0.06 0 0.21 0.72 0.072 -0.06 0 0.21 0.72 0.072 -0.06 0 0 0 0 1 0 "
         in="fbSourceGraphic"
         result="fbSourceGraphic" /><feColorMatrix
         result="fbSourceGraphicAlpha"
         in="fbSourceGraphic"
         values="0 0 0 -1 0 0 0 0 -1 0 0 0 0 -1 0 0 0 0 1 0"
         id="feColorMatrix6162" /><feColorMatrix
         id="feColorMatrix6164"
         values="0.21 0.72 0.072 -0.06 0 0.21 0.72 0.072 -0.06 0 0.21 0.72 0.072 -0.06 0 0 0 0 1 0 "
         in="fbSourceGraphic" /></filter></defs><sodipodi:namedview
     pagecolor="#ffffff"
     bordercolor="#666666"
     borderopacity="1"
     objecttolerance="10"
     gridtolerance="10"
     guidetolerance="10"
     inkscape:pageopacity="0"
     inkscape:pageshadow="2"
     inkscape:window-width="1680"
     inkscape:window-height="981"
     id="namedview4"
     showgrid="false"
     fit-margin-top="0"
     fit-margin-left="0"
     fit-margin-right="0"
     fit-margin-bottom="0"
     inkscape:zoom="5.0743637"
     inkscape:cx="135.38643"
     inkscape:cy="40.10355"
     inkscape:window-x="1200"
     inkscape:window-y="708"
     inkscape:window-maximized="1"
     inkscape:current-layer="g10"
     inkscape:showpageshadow="false"
     borderlayer="false"
     inkscape:pagecheckerboard="true"
     inkscape:deskcolor="#d1d1d1" /><g
     id="g10"
     inkscape:groupmode="layer"
     inkscape:label="Logo"
     transform="matrix(1.25,0,0,-1.25,-222.41423,591.05267)"><g
       id="g38"
       transform="translate(2.0037332,-5.5636708)"
       style="fill:#cccccc;fill-opacity:1"><g
         id="g40"
         clip-path="url(#clipPath42)"
         style="fill:#cccccc;fill-opacity:1"><g
           id="g46"
           transform="translate(245.9614,428.8261)"
           style="fill:#cccccc;fill-opacity:1"><path
             id="path48"
             style="fill:#cccccc;fill-opacity:1;fill-rule:nonzero;stroke:none"
             d="M -3.2524992 44.010957 C -3.7369972 44.025707 -4.2295637 44.009957 -4.7290617 43.960957 C -5.7270577 43.862957 -6.6668153 43.655769 -7.5478117 43.343769 C -8.4288081 43.029773 -9.0458133 42.677518 -9.3978117 42.287519 C -9.7498101 41.855522 -9.9651245 41.326578 -10.043124 40.701582 C -10.122124 40.074583 -10.122124 39.466703 -10.043124 38.879707 C -9.9651249 38.174711 -9.8291859 37.450828 -9.6321867 36.707832 C -11.943178 32.987848 -14.390385 29.051566 -16.974374 24.901582 C -18.071369 23.13959 -19.255503 21.231574 -20.527499 19.176582 C -21.799494 17.12059 -23.121566 14.977324 -24.491562 12.745332 C -25.831684 10.563598 -27.211328 8.3216895 -28.625937 6.0281443 C -27.49537 5.9274246 -26.344044 5.8366972 -25.171249 5.7547068 C -24.204659 7.3824209 -23.206366 9.0704523 -22.260312 10.660957 C -19.99032 14.477941 -17.934116 17.922906 -16.093124 20.996894 C -14.253131 24.070881 -12.707055 26.664152 -11.454062 28.778144 C -10.201066 30.893135 -9.3594976 32.263648 -8.9274992 32.890644 C -8.7325 29.992656 -8.3689972 27.084757 -7.8399992 24.168769 C -7.3120012 21.25078 -6.6476835 18.392761 -5.8446867 15.593769 C -5.0426899 12.793781 -4.1518077 10.082383 -3.1728117 7.4593943 C -2.9043952 6.7399611 -2.6154756 6.0565382 -2.3353117 5.3578318 C -1.4921979 5.3805508 -0.65267832 5.3965448 0.1928133 5.4265818 C 1.5508077 5.4735818 3.2023806 5.5502697 4.3943758 5.6062693 L 4.4943758 5.6093943 L 7.1303133 5.7453318 L 7.7881258 5.7828318 C 7.2887638 7.119497 6.8206335 8.4680973 6.4006258 9.8375193 C 5.4216298 13.027507 4.6188109 16.150719 3.9928133 19.204707 C 3.3658157 22.258695 2.8572492 25.155905 2.4662508 27.896894 C 2.0742524 30.637885 1.760625 33.075402 1.5256258 35.209394 C 1.2906266 37.343385 1.085 39.085961 0.9100008 40.435957 C 0.73300152 41.78695 0.52781237 42.600023 0.2928133 42.875019 C -0.17718482 43.383019 -0.88125296 43.714894 -1.8212492 43.871894 C -2.2907472 43.949894 -2.7680012 43.996207 -3.2524992 44.010957 z M 11.156876 -1.1140432 C 9.2399316 -1.2536006 7.320615 -1.3842445 5.3693758 -1.5046682 L 2.2521883 -1.6874807 L 0.8350008 -1.7624807 C 2.3002066 -3.8327978 3.7180576 -5.5573743 5.0834383 -6.8874807 C 6.6684319 -8.4334747 8.087256 -9.3243565 9.3412508 -9.5593557 C 11.141244 -9.9113541 12.620067 -10.01823 13.774063 -9.8812307 C 14.929059 -9.7432311 15.741566 -9.4408537 16.211563 -8.9718557 C 16.681563 -8.5018577 16.817501 -7.9337279 16.622501 -7.2687307 C 16.426502 -6.6027335 15.917934 -5.9174779 15.095938 -5.2124807 C 13.631104 -3.9430118 12.323947 -2.5728852 11.156876 -1.1140432 z M -32.388437 -1.9202932 C -34.524422 -5.3748154 -36.593977 -8.7281064 -38.549374 -11.903106 C -40.682365 -15.368091 -42.590381 -18.462365 -44.274374 -21.184356 C -45.957369 -23.905345 -47.337003 -26.13611 -48.414999 -27.878106 C -49.490994 -29.620098 -50.128374 -30.668856 -50.324374 -31.021856 C -50.872373 -31.881852 -51.155937 -32.596047 -51.175937 -33.164043 C -51.194937 -33.731042 -51.047309 -34.113357 -50.735312 -34.309356 C -50.421312 -34.505356 -49.991123 -34.505356 -49.443124 -34.309356 C -48.895127 -34.113357 -48.287808 -33.664352 -47.622812 -32.959356 C -47.152812 -32.450356 -46.301119 -31.24641 -45.068124 -29.348418 C -43.835128 -27.448426 -42.327241 -25.05922 -40.546249 -22.181231 C -38.763256 -19.304243 -36.797115 -16.074155 -34.643124 -12.492168 C -32.643749 -9.1648313 -30.580999 -5.6822989 -28.479062 -2.1015432 C -29.811299 -2.0517962 -31.111879 -1.9892386 -32.388437 -1.9202932 z " /></g></g></g><g
       id="g50"
       transform="translate(2.0037332,-5.5636708)"><g
         id="g52"
         clip-path="url(#clipPath54)"><g
           id="g58"><g
             id="g60"><path
               id="path74"
               style="display:inline;fill:url(#linearGradient62);stroke:none"
               d="m 194.76984,447.30737 c -3.77999,-0.41 -7.22589,-1.21581 -9.49688,-1.98281 -2.29099,-0.779 -3.75956,-1.55569 -4.87656,-2.30469 -2.04099,-1.489 -2.66894,-2.88625 -2.41094,-4.18125 0.638,-2.578 4.19339,-4.85607 10.73438,-6.66406 6.51199,-1.802 16.00296,-3.18338 29.01094,-3.65938 3.10399,-0.117 6.41225,-0.175 9.88125,-0.175 3.75399,0 7.69394,0.0693 11.76093,0.20625 2.01899,0.066 3.79163,0.142 6.09063,0.25 l 2.65625,0.13906 3.10469,0.18282 c 4.07999,0.252 8.10638,0.547 12.23437,0.9 0.68889,0.0582 1.37922,0.12761 2.06875,0.18906 v 3.4375 c -0.21768,-0.0184 -0.4355,-0.0445 -0.65312,-0.0625 -3.155,-0.265 -6.37463,-0.49413 -9.44063,-0.67813 l -2.2375,-0.12968 -2.64844,-0.13594 c -1.205,-0.057 -2.92581,-0.13794 -4.33281,-0.18594 -3.50499,-0.125 -6.89606,-0.18437 -10.16406,-0.18437 -2.239,0 -4.42119,0.0283 -6.54219,0.0813 -10.35498,0.291 -19.12807,1.21956 -25.96406,2.57656 -6.76598,1.368 -12.14582,3.08431 -15.05781,5.14531 -1.442,1.03 -2.44644,2.13269 -2.09844,3.35469 0.132,0.605 0.57962,1.24438 1.79062,1.90937 1.134,0.658 3.15964,1.37288 6.59063,1.97188 z"
               sodipodi:insensitive="true" /></g></g></g></g></g></svg>
