<?xml version="1.0" encoding="UTF-8" standalone="no"?>
<!-- Generator: Adobe Illustrator 26.3.1, SVG Export Plug-In . SVG Version: 6.00 Build 0)  -->

<svg
   version="1.1"
   id="Layer_1"
   x="0px"
   y="0px"
   viewBox="0 0 117.40221 113.8"
   xml:space="preserve"
   sodipodi:docname="apptainer-logo.svg"
   width="117.40221"
   height="113.8"
   inkscape:version="1.2.2 (b0a8486541, 2022-12-01)"
   xmlns:inkscape="http://www.inkscape.org/namespaces/inkscape"
   xmlns:sodipodi="http://sodipodi.sourceforge.net/DTD/sodipodi-0.dtd"
   xmlns="http://www.w3.org/2000/svg"
   xmlns:svg="http://www.w3.org/2000/svg"><defs
   id="defs45" /><sodipodi:namedview
   id="namedview43"
   pagecolor="#ffffff"
   bordercolor="#000000"
   borderopacity="0.25"
   inkscape:showpageshadow="2"
   inkscape:pageopacity="0.0"
   inkscape:pagecheckerboard="0"
   inkscape:deskcolor="#d1d1d1"
   showgrid="false"
   inkscape:zoom="1.5364583"
   inkscape:cx="231.7017"
   inkscape:cy="56.62373"
   inkscape:window-width="1610"
   inkscape:window-height="981"
   inkscape:window-x="1150"
   inkscape:window-y="902"
   inkscape:window-maximized="1"
   inkscape:current-layer="Layer_1" />
<style
   type="text/css"
   id="style2">
	.st0{fill:#231F20;}
	.st1{fill:#969696;}
	.st2{fill:#FC9114;}
	.st3{fill:#0096D7;}
	.st4{fill:#6DB413;}
</style>




<g
   id="g156"
   transform="translate(-20.998896,-21)"><path
     class="st0"
     d="m 117.5,131.7 c -0.9,-0.5 -1.5,-1.3 -2,-2.4 l -24,-53.8 c -1,-2.1 -1.8,-3.9 -2.5,-5.3 -0.9,-2 -1,-2.6 -1,-3 0,-1 0.4,-1.7 1.2,-2.2 V 63.1 H 69.4 V 65 c 0.3,0.3 0.6,0.5 0.8,0.8 0.3,0.3 0.4,0.8 0.4,1.3 0,0.5 -0.3,1.3 -0.8,2.5 -0.5,1.1 -1.2,2.6 -2,4.4 l -23.6,53.5 c -0.4,0.8 -0.9,1.9 -1.8,3.3 -0.8,1.3 -2.1,2.1 -3.8,2.2 v 1.8 H 61.2 V 133 c -2.5,-0.1 -3.7,-0.9 -3.7,-2.6 0,-0.8 0.5,-2.1 1.4,-4.1 0.8,-1.6 1.7,-3.5 2.6,-5.5 11.2,4.4 23.8,4.5 35.1,0.4 0.9,2 1.7,3.7 2.4,5.1 0.8,1.6 1.2,2.9 1.2,4 0,1.1 -0.4,1.8 -1.1,2.2 -0.5,0.3 -1.1,0.5 -1.6,0.5 v 1.8 h 23.2 V 133 c -1.3,-0.4 -2.4,-0.8 -3.2,-1.3 z M 66.4,110.2 79,82.1 91.9,110.6 c -8.2,2.8 -17.2,2.7 -25.5,-0.4 z"
     id="path4" /><path
     class="st1"
     d="m 34.8,79.8 c 0,-4.2 0.6,-8.2 1.6,-12 L 23.6,62.1 C 21.9,67.8 21,73.5 21,79.3 c -0.1,16 6.6,31.5 18.2,42.5 l 0.9,-1.6 5.2,-11.7 C 38.7,100.7 34.8,90.8 34.8,79.8 Z"
     id="path6" /><path
     class="st2"
     d="M 135.7,62.3 123,68 c 1,3.8 1.6,7.8 1.6,11.9 0,10.9 -3.9,20.9 -10.4,28.7 l 5.2,11.7 0.8,1.5 c 11.6,-11 18.3,-26.5 18.2,-42.5 0,-5.7 -0.9,-11.4 -2.7,-17 z"
     id="path8" /><path
     class="st3"
     d="m 26.4,55.1 12.7,5.6 C 45.8,46.5 59.6,36.5 75.9,35.1 V 21 C 54.6,22.4 35.3,35.7 26.4,55.1 Z"
     id="path10" /><path
     class="st4"
     d="M 133,55.2 C 124.1,35.7 104.8,22.3 83.5,21 v 14.1 c 16.4,1.4 30.2,11.5 36.9,25.7 z"
     id="path12" /></g>





</svg>
