<?xml version="1.0" encoding="UTF-8"?><svg id="Layer_2" xmlns="http://www.w3.org/2000/svg" viewBox="0 0 724.21 113.8"><g id="Layer_3"><g><g><path d="M235.6,10.38c24.65,0,33.88,11.68,33.88,28.83s-9.52,28.83-33.88,28.83h-21.48v33.45h-10.96V10.38h32.44Zm-21.48,10.24V57.81h21.48c17.3,0,22.92-6.92,22.92-18.6s-5.77-18.6-22.92-18.6h-21.48Z" style="fill:#003765;"/><path d="M329.6,98.61c-6.49,2.31-16.72,4.04-26.38,4.04-16.72,0-27.82-5.62-27.82-21.34s11.1-21.48,29.99-21.48h13.7v-6.78c0-9.51-6.63-12.54-17.59-12.54-8.07,0-14.71,1.44-19.03,3.03l-1.59-9.66c5.62-1.59,12.69-3.03,21.05-3.03,15.86,0,27.68,5.77,27.68,23.07v44.69Zm-10.52-30.42h-13.55c-12.83,0-19.61,3.17-19.61,12.98s6.78,12.4,17.01,12.4c5.05,0,11.68-.58,16.15-2.02v-23.36Z" style="fill:#003765;"/><path d="M345.14,34.89c4.61-2.16,13.26-3.89,21.77-3.89,5.48,0,10.09,.58,13.84,1.73l-2.02,9.8c-2.16-.86-6.49-1.59-11.53-1.59-5.91,0-9.08,.72-11.53,1.87v58.68h-10.52V34.89Z" style="fill:#003765;"/><path d="M439.86,98.61c-6.49,2.31-16.72,4.04-26.38,4.04-16.72,0-27.82-5.62-27.82-21.34s11.1-21.48,29.99-21.48h13.7v-6.78c0-9.51-6.63-12.54-17.59-12.54-8.07,0-14.7,1.44-19.03,3.03l-1.59-9.66c5.62-1.59,12.69-3.03,21.05-3.03,15.86,0,27.68,5.77,27.68,23.07v44.69Zm-10.52-30.42h-13.55c-12.83,0-19.61,3.17-19.61,12.98s6.78,12.4,17.01,12.4c5.05,0,11.68-.58,16.15-2.02v-23.36Z" style="fill:#003765;"/><path d="M487.2,101.49h-11.39L441.78,10.38h11.25l28.4,77.13,28.55-77.13h11.24l-34.02,91.11Z" style="fill:#003765;"/><path d="M535.83,1.29c3.75,0,6.78,3.17,6.78,6.92s-3.03,6.78-6.78,6.78-6.92-3.03-6.92-6.78,3.03-6.92,6.92-6.92Zm-5.33,30.71h10.52V101.49h-10.52V32Z" style="fill:#003765;"/><path d="M612.27,70.93h-47.43v.58c0,14.71,8.51,21.19,22.92,21.19,8.07,0,16.58-2.02,21.77-4.76l1.59,9.95c-6.78,3.03-14.99,4.76-23.5,4.76-22.2,0-33.45-11.1-33.45-35.75,0-20.04,7.35-36.04,30.13-36.04,18.31,0,29.12,10.24,29.12,30.42,0,2.88-.29,6.63-1.15,9.66Zm-47.43-8.94h38.49v-.87c0-14.85-7.5-20.9-19.32-20.9s-19.17,5.91-19.17,20.9v.87Z" style="fill:#003765;"/><path d="M646.07,87.22l18.89-55.22h10.67l18.89,55.22,18.89-55.22h10.81l-24.22,69.49h-10.81l-18.89-53.2-18.89,53.2h-10.81l-24.22-69.49h10.81l18.89,55.22Z" style="fill:#003765;"/></g><polygon points="36.59 113.8 0 113.8 30.08 0 66.67 0 36.59 113.8" style="fill:#f32735;"/><polygon points="81.86 113.8 45.26 113.8 75.34 0 111.94 0 81.86 113.8" style="fill:#3eae2b;"/><polygon points="127.12 113.8 90.53 113.8 120.61 0 157.2 0 127.12 113.8" style="fill:#0068c7;"/></g></g></svg>