<?xml version="1.0" encoding="UTF-8" standalone="no"?>
<!-- Created with Inkscape (http://www.inkscape.org/) -->

<svg
   id="svg2"
   version="1.1"
   inkscape:version="1.2.2 (b0a8486541, 2022-12-01)"
   width="299.84006"
   height="129.64514"
   xml:space="preserve"
   sodipodi:docname="abinit-logo-light.svg"
   xmlns:inkscape="http://www.inkscape.org/namespaces/inkscape"
   xmlns:sodipodi="http://sodipodi.sourceforge.net/DTD/sodipodi-0.dtd"
   xmlns="http://www.w3.org/2000/svg"
   xmlns:svg="http://www.w3.org/2000/svg"
   xmlns:rdf="http://www.w3.org/1999/02/22-rdf-syntax-ns#"
   xmlns:cc="http://creativecommons.org/ns#"
   xmlns:dc="http://purl.org/dc/elements/1.1/"><metadata
     id="metadata8"><rdf:RDF><cc:Work
         rdf:about=""><dc:format>image/svg+xml</dc:format><dc:type
           rdf:resource="http://purl.org/dc/dcmitype/StillImage" /></cc:Work></rdf:RDF></metadata><defs
     id="defs6"><clipPath
       clipPathUnits="userSpaceOnUse"
       id="clipPath16"><path
         d="m 361.261,399.102 c -1.861,-0.081 -3.496,-0.166 -5.614,-0.286 v 0 l -2.447,-0.15 -2.862,-0.191 c -3.761,-0.262 -7.473,-0.558 -11.278,-0.904 v 0 c -15.212,-1.367 -30.658,-3.527 -43.576,-5.94 v 0 c -13.014,-2.419 -23.79,-5.046 -32.578,-7.639 v 0 c -17.37,-5.194 -28.241,-10.35 -31.852,-14.866 v 0 c 5.26,2.461 11.249,4.909 18.3,7.345 v 0 c 6.961,2.432 14.99,4.846 23.951,7.165 v 0 c 8.957,2.315 19.034,4.538 29.987,6.453 v 0 c 10.938,1.919 22.739,3.485 34.438,4.518 v 0 c 2.91,0.26 5.878,0.491 8.704,0.683 v 0 l 2.063,0.137 2.441,0.146 c 1.111,0.062 2.697,0.152 3.993,0.21 v 0 c 5.444,0.251 10.59,0.343 15.394,0.302 v 0 c 9.54,-0.106 17.617,-0.758 23.907,-1.791 v 0 c 6.226,-1.044 11.171,-2.393 13.841,-4.059 v 0 c 1.323,-0.832 2.241,-1.73 1.912,-2.745 v 0 c -0.126,-0.503 -0.542,-1.036 -1.662,-1.602 v 0 c -1.049,-0.559 -2.92,-1.177 -6.084,-1.716 v 0 c 3.485,0.388 6.664,1.099 8.761,1.762 v 0 c 2.117,0.674 3.474,1.335 4.508,1.969 v 0 c 1.89,1.258 2.478,2.422 2.249,3.488 v 0 c -0.571,2.123 -3.831,3.961 -9.847,5.37 v 0 c -5.988,1.405 -14.724,2.423 -26.707,2.648 v 0 c -1.583,0.031 -3.223,0.047 -4.916,0.047 v 0 c -4.671,0 -9.732,-0.119 -15.026,-0.354"
         id="path18"
         inkscape:connector-curvature="0" /></clipPath><linearGradient
       x1="0"
       y1="0"
       x2="1"
       y2="0"
       gradientUnits="userSpaceOnUse"
       gradientTransform="matrix(-186.74947,0,0,186.74947,417.80396,384.29086)"
       spreadMethod="pad"
       id="linearGradient24"><stop
         style="stop-opacity:1;stop-color:#f1923d"
         offset="0"
         id="stop26" /><stop
         style="stop-opacity:1;stop-color:#e9643b"
         offset="0.431763"
         id="stop28" /><stop
         style="stop-opacity:1;stop-color:#e9643b"
         offset="0.431763"
         id="stop30" /><stop
         style="stop-opacity:1;stop-color:#e33a37"
         offset="0.828491"
         id="stop32" /><stop
         style="stop-opacity:1;stop-color:#e33a37"
         offset="1"
         id="stop34" /></linearGradient><clipPath
       clipPathUnits="userSpaceOnUse"
       id="clipPath42"><path
         d="M 0,841.89 H 595.28 V 0 H 0 Z"
         id="path44"
         inkscape:connector-curvature="0" /></clipPath><clipPath
       clipPathUnits="userSpaceOnUse"
       id="clipPath54"><path
         d="m 380.041,463.387 c -6.049,-3.07 -12.494,-5.861 -19.708,-8.532 v 0 c -7.647,-2.865 -16.348,-5.635 -25.859,-8.234 v 0 c -10.379,-2.832 -21.285,-5.279 -32.415,-7.276 v 0 c -12.011,-2.162 -24.893,-3.845 -37.257,-4.866 v 0 c -3.122,-0.261 -6.29,-0.489 -9.419,-0.677 v 0 l -2.233,-0.128 -2.691,-0.139 c -1.2,-0.056 -2.889,-0.135 -4.276,-0.182 v 0 c -3.414,-0.122 -6.824,-0.184 -10.133,-0.184 v 0 c -2.192,0 -4.385,0.027 -6.515,0.08 v 0 c -9.852,0.277 -18.778,1.162 -25.811,2.559 v 0 c -7.011,1.417 -12.1,3.146 -14.713,4.997 v 0 c -2.022,1.441 -1.822,2.143 -1.743,2.428 v 0 c 0.036,0.161 0.144,0.653 1.364,1.323 v 0 c 0.859,0.499 2.649,1.228 6.293,1.864 v 0 l -0.252,1.781 c -3.407,-0.369 -7.027,-1.126 -9.689,-2.024 v 0 c -2.069,-0.703 -3.684,-1.469 -5.115,-2.43 v 0 c -2.189,-1.596 -3.119,-3.307 -2.755,-5.124 v 0 c 0.735,-2.973 4.559,-5.435 11.366,-7.315 v 0 c 7.244,-2.005 17.075,-3.247 29.217,-3.692 v 0 c 3.102,-0.117 6.438,-0.176 9.917,-0.176 v 0 c 3.767,0 7.733,0.069 11.79,0.207 v 0 c 2.023,0.065 3.8,0.141 6.109,0.25 v 0 l 2.659,0.14 3.109,0.183 c 4.156,0.257 8.166,0.552 12.253,0.902 v 0 c 15.902,1.343 32.715,3.635 47.342,6.454 v 0 c 13.037,2.5 24.946,5.43 35.398,8.712 v 0 c 18.775,5.973 30.844,12.118 34.905,17.771 v 0 l 2.155,2.999 z"
         id="path56"
         inkscape:connector-curvature="0" /></clipPath><linearGradient
       x1="0"
       y1="0"
       x2="1"
       y2="0"
       gradientUnits="userSpaceOnUse"
       gradientTransform="matrix(-206.29733,0,0,206.29733,383.33398,446.24841)"
       spreadMethod="pad"
       id="linearGradient62"><stop
         style="stop-opacity:1;stop-color:#f1923d"
         offset="0"
         id="stop64" /><stop
         style="stop-opacity:1;stop-color:#e9643b"
         offset="0.431763"
         id="stop66" /><stop
         style="stop-opacity:1;stop-color:#e9643b"
         offset="0.431763"
         id="stop68" /><stop
         style="stop-opacity:1;stop-color:#e33a37"
         offset="0.828491"
         id="stop70" /><stop
         style="stop-opacity:1;stop-color:#e33a37"
         offset="1"
         id="stop72" /></linearGradient><clipPath
       clipPathUnits="userSpaceOnUse"
       id="clipPath80"><path
         d="M 0,841.89 H 595.28 V 0 H 0 Z"
         id="path82"
         inkscape:connector-curvature="0" /></clipPath></defs><sodipodi:namedview
     pagecolor="#ffffff"
     bordercolor="#666666"
     borderopacity="1"
     objecttolerance="10"
     gridtolerance="10"
     guidetolerance="10"
     inkscape:pageopacity="0"
     inkscape:pageshadow="2"
     inkscape:window-width="1680"
     inkscape:window-height="981"
     id="namedview4"
     showgrid="false"
     fit-margin-top="0"
     fit-margin-left="0"
     fit-margin-right="0"
     fit-margin-bottom="0"
     inkscape:zoom="2.5371819"
     inkscape:cx="68.974165"
     inkscape:cy="106.22021"
     inkscape:window-x="1200"
     inkscape:window-y="708"
     inkscape:window-maximized="1"
     inkscape:current-layer="g10"
     inkscape:showpageshadow="false"
     borderlayer="false"
     inkscape:pagecheckerboard="true"
     inkscape:deskcolor="#d1d1d1" /><g
     id="g10"
     inkscape:groupmode="layer"
     inkscape:label="Logo"
     transform="matrix(1.25,0,0,-1.25,-222.41422,591.05265)"><g
       id="g12"><g
         id="g14"
         clip-path="url(#clipPath16)"><g
           id="g20"><g
             id="g22"><path
               id="path36"
               style="fill:url(#linearGradient24);stroke:none"
               d="m 376.28776,399.45556 c -4.671,0 -9.73257,-0.11813 -15.02656,-0.35313 -1.861,-0.081 -3.49607,-0.16594 -5.61407,-0.28594 l -2.44687,-0.15 -2.8625,-0.19218 c -1.08641,-0.0757 -2.17616,-0.1792 -3.25781,-0.26094 0.50825,-0.82345 0.80768,-1.79009 0.82343,-2.825 l 0.59375,0.0391 2.44063,0.14531 c 1.111,0.062 2.69775,0.15294 3.99375,0.21094 5.44399,0.251 10.58975,0.34256 15.39375,0.30156 9.53999,-0.106 17.61626,-0.75762 23.90625,-1.79062 6.22599,-1.044 11.17219,-2.39338 13.84219,-4.05938 1.323,-0.83199 2.23993,-1.73031 1.91093,-2.74531 -0.126,-0.503 -0.54093,-1.03556 -1.66093,-1.60156 -1.049,-0.559 -2.92038,-1.17663 -6.08438,-1.71563 3.485,0.388 6.66394,1.09794 8.76094,1.76094 2.117,0.674 3.47381,1.33475 4.50781,1.96875 1.89,1.258 2.47744,2.42307 2.24844,3.48906 -0.571,2.123 -3.83088,3.95976 -9.84688,5.36875 -5.98799,1.405 -14.72326,2.42344 -26.70625,2.64844 -1.58299,0.031 -3.22262,0.0469 -4.91562,0.0469 z m -39.07969,-2.07344 c -14.60867,-1.37242 -29.32954,-3.43646 -41.72344,-5.75156 -13.01398,-2.419 -23.79013,-5.04607 -32.57812,-7.63907 -17.36998,-5.19399 -28.24213,-10.34963 -31.85313,-14.86562 5.26,2.461 11.24901,4.90931 18.3,7.34531 6.961,2.432 14.99058,4.84507 23.95157,7.16406 8.95699,2.315 19.03451,4.53813 29.9875,6.45313 10.66737,1.87152 22.15486,3.39976 33.56875,4.43281 -0.0361,0.25575 -0.0562,0.51554 -0.0562,0.78125 0,0.73525 0.14342,1.43749 0.40312,2.07969 z" /></g></g></g></g><g
       id="g38"><g
         id="g40"
         clip-path="url(#clipPath42)"><g
           id="g46"
           transform="translate(245.9614,428.8261)"><path
             id="path48"
             style="display:inline;fill:#5c5c5b;fill-opacity:1;fill-rule:nonzero;stroke:none"
             d="M -3.6159615 44.01602 C -3.9823061 44.015516 -4.353838 43.998082 -4.7284615 43.961332 C -5.7264575 43.863334 -6.6662151 43.656145 -7.5472115 43.344145 C -8.4282079 43.030146 -9.0452131 42.677894 -9.3972115 42.287895 C -9.7492099 41.855895 -9.9645239 41.326956 -10.042524 40.701957 C -10.121524 40.074961 -10.121524 39.467081 -10.042524 38.880082 C -9.9645242 38.175086 -9.8285857 37.451206 -9.6315865 36.708207 C -11.942578 32.988223 -14.389785 29.051941 -16.973774 24.901957 C -18.070769 23.139965 -19.254903 21.231949 -20.526899 19.176957 C -21.798894 17.120968 -23.120966 14.977699 -24.490962 12.745707 C -25.831084 10.563976 -27.210728 8.3220652 -28.625337 6.02852 C -27.49477 5.9278003 -26.343444 5.8370729 -25.170649 5.7550825 C -24.204059 7.3827966 -23.205766 9.0708294 -22.259712 10.661332 C -19.98972 14.478319 -17.933516 17.923282 -16.092524 20.99727 C -14.252531 24.071257 -12.706455 26.664528 -11.453462 28.77852 C -10.200466 30.893511 -9.3588974 32.264024 -8.926899 32.89102 C -8.7318998 29.993032 -8.368397 27.085133 -7.839399 24.169145 C -7.311401 21.251156 -6.6470833 18.393134 -5.8440865 15.594145 C -5.0420897 12.794157 -4.1512075 10.082759 -3.1722115 7.45977 C -2.903795 6.7403368 -2.6148754 6.0569139 -2.3347115 5.3582075 C -1.4915977 5.3809265 -0.65207812 5.3969205 0.1934135 5.4269575 C 1.5514079 5.4739575 3.2029808 5.5506454 4.394976 5.606645 L 4.494976 5.60977 L 7.1309135 5.7457075 L 7.788726 5.7832075 C 7.289364 7.1198797 6.8212337 8.468473 6.401226 9.837895 C 5.42223 13.027882 4.6194111 16.151097 3.9934135 19.205082 C 3.3664159 22.25907 2.8578494 25.156281 2.466851 27.89727 C 2.0748526 30.638258 1.7612252 33.075778 1.526226 35.20977 C 1.2912268 37.343761 1.0856002 39.086339 0.910601 40.436332 C 0.73360172 41.787328 0.52841257 42.600396 0.2934135 42.875395 C -0.17658462 43.383392 -0.88065276 43.71527 -1.820649 43.87227 C -2.290147 43.95027 -2.767401 43.996585 -3.251899 44.011332 C -3.3730236 44.015032 -3.4938466 44.01622 -3.6159615 44.01602 z M 11.157476 -1.1136675 C 9.2405322 -1.2532249 7.3212152 -1.3838688 5.369976 -1.5042925 L 2.2527885 -1.687105 L 0.835601 -1.762105 C 2.3008068 -3.8324221 3.7186578 -5.5569986 5.0840385 -6.887105 C 6.6690321 -8.433099 8.0878562 -9.3239808 9.341851 -9.55898 C 11.141844 -9.9109784 12.62067 -10.017854 13.774663 -9.880855 C 14.929659 -9.7428554 15.742166 -9.440478 16.212163 -8.97148 C 16.682163 -8.501482 16.818101 -7.9333522 16.623101 -7.268355 C 16.427102 -6.6023578 15.918537 -5.9171022 15.096538 -5.212105 C 13.631704 -3.9426361 12.324547 -2.5725095 11.157476 -1.1136675 z M -32.387837 -1.9199175 C -34.523819 -5.3744397 -36.593377 -8.7277313 -38.548774 -11.90273 C -40.681765 -15.367718 -42.589781 -18.461992 -44.273774 -21.18398 C -45.956766 -23.904969 -47.336403 -26.135737 -48.414399 -27.87773 C -49.490394 -29.619722 -50.127774 -30.66848 -50.323774 -31.02148 C -50.87177 -31.881476 -51.155337 -32.595669 -51.175337 -33.163668 C -51.194335 -33.730664 -51.046709 -34.112981 -50.734712 -34.30898 C -50.420712 -34.50498 -49.99052 -34.50498 -49.442524 -34.30898 C -48.894527 -34.112981 -48.287208 -33.663976 -47.622212 -32.95898 C -47.152212 -32.449983 -46.300519 -31.246035 -45.067524 -29.348043 C -43.834528 -27.448048 -42.326641 -25.058844 -40.545649 -22.180855 C -38.762656 -19.303867 -36.796515 -16.073777 -34.642524 -12.491793 C -32.643149 -9.1644542 -30.580396 -5.6819232 -28.478462 -2.1011675 C -29.810699 -2.0514205 -31.111279 -1.9888629 -32.387837 -1.9199175 z " /></g></g></g><g
       id="g50"
       transform="translate(0.120317,0.007032)"><g
         id="g52"
         clip-path="url(#clipPath54)"><g
           id="g58"><g
             id="g60"><path
               id="path74"
               style="display:inline;fill:url(#linearGradient62);stroke:none"
               d="m 380.44713,462.58368 c -5.68699,-2.887 -12.167,-5.74488 -19.8,-8.57187 -7.53399,-2.823 -16.22994,-5.60738 -25.93593,-8.25938 -9.70199,-2.647 -20.62076,-5.16319 -32.49375,-7.29219 -11.85599,-2.13499 -24.6522,-3.82912 -37.34219,-4.87812 -3.155,-0.265 -6.37463,-0.49413 -9.44063,-0.67813 l -2.2375,-0.12968 -2.64843,-0.13594 c -1.205,-0.057 -2.92582,-0.13794 -4.33282,-0.18594 -3.50499,-0.125 -6.89606,-0.18437 -10.16406,-0.18437 -2.239,0 -4.42119,0.0283 -6.54219,0.0813 -10.35499,0.291 -19.12806,1.21956 -25.96406,2.57656 -6.76599,1.368 -12.14581,3.08431 -15.05781,5.14531 -1.442,1.03 -2.44644,2.13269 -2.09844,3.35469 0.132,0.605 0.57963,1.24438 1.79063,1.90937 1.134,0.658 3.15963,1.37288 6.59062,1.97188 -3.77999,-0.41 -7.22588,-1.21581 -9.49687,-1.98281 -2.291,-0.779 -3.75957,-1.55569 -4.87657,-2.30469 -2.04099,-1.489 -2.66893,-2.88625 -2.41093,-4.18125 0.638,-2.578 4.19338,-4.85606 10.73437,-6.66406 6.512,-1.802 16.00295,-3.18338 29.01094,-3.65938 3.104,-0.117 6.41225,-0.175 9.88125,-0.175 3.754,0 7.69394,0.0693 11.76094,0.20625 2.01899,0.066 3.79162,0.142 6.09062,0.25 l 2.65625,0.13906 3.10469,0.18282 c 4.08,0.252 8.10638,0.547 12.23437,0.9 16.49999,1.393 33.24589,3.74319 47.24688,6.44218 14.10499,2.705 25.77832,5.69738 35.29531,8.68438 18.80898,5.98599 30.56532,12.03707 34.44531,17.43906 z" /></g></g></g></g><g
       id="g76"><g
         id="g78"
         clip-path="url(#clipPath80)"><g
           id="g84"
           transform="translate(386.2189,467.5317)" /><g
           id="g88"
           transform="translate(270.3831,416.1951)"><path
             d="m 0,0 v -0.482 c 0,-3.904 2.045,-6.812 6.136,-8.722 1.098,-0.321 2.087,-0.482 2.966,-0.482 h 0.583 c 3.804,0 6.677,2.045 8.621,6.136 0.321,1.234 0.482,2.189 0.482,2.865 v 0.584 c 0,3.887 -2.079,6.794 -6.238,8.722 -1.267,0.32 -2.256,0.481 -2.966,0.481 H 9.204 C 5.401,9.102 2.527,7.09 0.583,3.068 0.194,1.935 0,0.913 0,0 m -2.003,22.895 h 0.279 C -0.575,22.642 0,22.092 0,21.247 V 8.798 c 2.789,2.688 5.924,4.031 9.406,4.031 3.364,0 6.423,-1.276 9.179,-3.828 2.62,-2.755 3.93,-5.849 3.93,-9.28 0,-4.919 -2.333,-8.79 -6.998,-11.612 -2.012,-1.015 -3.955,-1.522 -5.832,-1.522 h -0.76 c -3.533,0 -6.821,1.657 -9.863,4.97 -1.86,2.485 -2.789,5.426 -2.789,8.823 v 20.867 c 0,0.845 0.574,1.395 1.724,1.648"
             style="fill:#5c5c5b;fill-opacity:1;fill-rule:nonzero;stroke:none"
             id="path90"
             inkscape:connector-curvature="0" /></g><g
           id="g92"
           transform="translate(300.4789,428.8977)"><path
             d="m 0,0 c 1.217,-0.304 1.825,-0.845 1.825,-1.623 v -22.768 c 0,-0.947 -0.608,-1.522 -1.825,-1.724 h -0.101 c -0.964,0 -1.564,0.634 -1.801,1.901 V -2.181 C -1.749,-0.727 -1.116,0 0,0"
             style="fill:#5c5c5b;fill-opacity:1;fill-rule:nonzero;stroke:none"
             id="path94"
             inkscape:connector-curvature="0" /></g><g
           id="g96"
           transform="translate(310.7982,428.7201)"><path
             d="m 0,0 c 1.2,-0.304 1.8,-0.845 1.8,-1.622 v -2.08 C 4.539,-1.234 7.53,0 10.776,0 c 3.567,0 6.727,-1.487 9.482,-4.462 2.012,-2.485 3.018,-5.097 3.018,-7.835 V -24.34 c 0,-0.829 -0.6,-1.361 -1.8,-1.598 h -0.102 c -1.2,0.22 -1.8,0.82 -1.8,1.801 v 10.598 c 0,4.749 -2.045,7.876 -6.136,9.381 -0.997,0.254 -1.885,0.38 -2.662,0.38 H 10.497 C 7.065,-3.778 4.412,-5.553 2.536,-9.102 2.045,-10.184 1.8,-11.917 1.8,-14.3 v -9.939 c 0,-0.93 -0.6,-1.496 -1.8,-1.699 h -0.101 c -0.964,0 -1.564,0.634 -1.801,1.902 V -2.18 C -1.749,-0.727 -1.116,0 0,0"
             style="fill:#5c5c5b;fill-opacity:1;fill-rule:nonzero;stroke:none"
             id="path98"
             inkscape:connector-curvature="0" /></g><g
           id="g100"
           transform="translate(341.7562,428.8977)"><path
             d="m 0,0 c 1.217,-0.304 1.826,-0.845 1.826,-1.623 v -22.768 c 0,-0.947 -0.609,-1.522 -1.826,-1.724 h -0.101 c -0.964,0 -1.564,0.634 -1.8,1.901 V -2.181 C -1.75,-0.727 -1.116,0 0,0"
             style="fill:#5c5c5b;fill-opacity:1;fill-rule:nonzero;stroke:none"
             id="path102"
             inkscape:connector-curvature="0" /></g><g
           id="g104"
           transform="translate(355.0417,438.0254)"><path
             d="m 0,0 h 0.355 c 1.116,-0.237 1.674,-0.735 1.674,-1.496 v -8.367 h 3.828 l 0.837,0.102 c 0.862,0 1.445,-0.626 1.749,-1.877 0,-0.845 -0.524,-1.462 -1.572,-1.851 l -1.394,0.102 H 2.029 v -13.666 c 0,-2.384 0.777,-3.846 2.332,-4.387 l 2.13,-0.177 H 7.53 c 0.812,0 1.336,-0.592 1.573,-1.775 v -0.076 C 8.9,-34.651 8.308,-35.243 7.328,-35.243 H 5.375 c -2.958,0 -5.155,1.614 -6.592,4.843 -0.253,0.794 -0.38,1.724 -0.38,2.789 v 14.224 h -1.851 l -1.496,-0.102 c -1.048,0.372 -1.572,0.989 -1.572,1.851 0.203,1.183 0.761,1.775 1.673,1.775 v 0.102 l 0.939,-0.102 h 2.307 v 7.809 C -1.445,-0.685 -0.912,0 0,0"
             style="fill:#5c5c5b;fill-opacity:1;fill-rule:nonzero;stroke:none"
             id="path106"
             inkscape:connector-curvature="0" /></g><g
           id="g108"
           transform="translate(305.9044,438.2032)"><path
             d="m 0,0 c 0,3.065 -2.485,5.55 -5.55,5.55 -3.065,0 -5.55,-2.485 -5.55,-5.55 0,-3.065 2.485,-5.55 5.55,-5.55 C -2.485,-5.55 0,-3.065 0,0"
             style="fill:#5c5c5b;fill-opacity:1;fill-rule:nonzero;stroke:none"
             id="path110"
             inkscape:connector-curvature="0" /></g><g
           id="g112"
           transform="translate(347.9044,395.3032)" /><g
           id="g116"
           transform="translate(347.9044,395.3032)"><path
             d="m 0,0 c 0,3.065 -2.485,5.55 -5.55,5.55 -3.065,0 -5.55,-2.485 -5.55,-5.55 0,-3.065 2.485,-5.55 5.55,-5.55 C -2.485,-5.55 0,-3.065 0,0 Z"
             style="fill:none;stroke:#5d5c5b;stroke-width:1;stroke-linecap:butt;stroke-linejoin:miter;stroke-miterlimit:10;stroke-dasharray:none;stroke-opacity:1"
             id="path118"
             inkscape:connector-curvature="0" /></g></g></g></g></svg>
