<?xml version="1.0" encoding="UTF-8" standalone="no"?>
<!-- Created with Inkscape (http://www.inkscape.org/) -->

<svg
   version="1.1"
   id="svg2939"
   width="1052"
   height="1054.6667"
   viewBox="0 0 1052 1054.6667"
   xmlns="http://www.w3.org/2000/svg"
   xmlns:svg="http://www.w3.org/2000/svg">
  <defs
     id="defs2943" />
  <g
     id="g2945">
    <path
       style="fill:#24455a;stroke-width:1.33333;fill-opacity:1"
       d="m 504.03916,1053.7516 c -60.7015,-4.1446 -104.588,-12.1609 -148,-27.0339 -42.6049,-14.5965 -79.1574,-31.69859 -112,-52.4021 -40.634,-25.61509 -63.3517,-43.51714 -94.6667,-74.59972 -30.476,-30.2498 -58.098804,-66.99332 -79.847104,-106.21184 -18.366,-33.1193 -34.5241,-69.54507 -42.832,-96.55752 -2.3232,-7.55371 -5.6705,-18.41397 -7.4384,-24.13393 -4.1541,-13.44017 -11.6583996,-51.78636 -15.4471996,-78.93341 -2.5666,-18.3897 -2.98599998,-27.3126 -3.03969998,-64.66667 -0.068,-47.38157 0.62529998,-55.70615 8.05229998,-96.66667 7.2258996,-39.85168 19.5451996,-83.08876 32.0966996,-112.64926 8.7199,-20.5366 29.7553,-61.83503 39.6461,-77.83659 24.061204,-38.92645 58.975604,-80.62748 93.205104,-111.32226 19.2204,-17.23565 50.2859,-40.274657 74.4353,-55.203152 21.8342,-13.497305 76.7954,-39.042424 100.5022,-46.711818 69.7508,-22.5650896 105.645,-28.25207055 178,-28.20179755 56.867,0.03951 84.3783,3.01531495 128.7335,13.92468555 43.4117,10.677329 94.1619,30.508153 131.0288,51.200053 56.519,31.721875 110.1315,76.990059 147.0347,124.150269 25.2273,32.23902 46.0224,65.36104 61.9226,98.62901 33.37594,69.83219 51.37234,140.16957 55.27084,216.02086 2.9496,57.389 -6.3971,132.78734 -22.8788,184.56017 -10.1532,31.89327 -35.94564,90.85577 -48.54974,110.98655 -51.5327,82.30579 -101.5184,132.44324 -178.5619,179.10375 -31.8415,19.28448 -83.6205,42.17919 -118.6666,52.46989 -41.3585,12.1442 -57.8667,15.4416 -98,19.5746 -19.3062,1.9882 -66.1302,3.4577 -80,2.5108 z m 87.7441,-57.09785 c 61.678,-9.34795 103.6097,-22.34636 152.9225,-47.40441 59.4188,-30.19335 107.231,-68.16371 145.7958,-115.78465 12.866,-15.8873 34.7381,-46.7996 38.858,-54.91884 1.6744,-3.3 4.8393,-8.61984 7.0329,-11.82187 4.5496,-6.64118 19.9526,-38.29097 27.9091,-57.34713 17.4567,-41.80999 26.7611,-77.0064 32.6474,-123.49767 3.17424,-25.0704 3.19334,-85.54658 0.035,-110.66667 -4.8029,-38.20114 -11.1335,-67.21339 -21.2384,-97.33334 -29.5518,-88.08573 -79.9354,-162.41254 -149.1363,-220.00853 -63.3849,-52.75523 -150.2263,-90.345275 -232.5701,-100.669946 -28.9262,-3.626905 -80.8523,-4.985822 -105.8602,-2.770386 -23.445,2.076974 -60.0343,8.327059 -84.1398,14.372512 -79.1769,19.856866 -162.9574,67.53945 -216.6667,123.31299 -68.2366,70.85917 -113.272304,160.68759 -129.230304,257.76336 -12.0533,73.32286 -7.7873,145.22464 12.7151,214.30793 17.4389,58.76098 44.007604,109.88188 85.074704,163.69209 13.4709,17.65097 55.5849,59.12416 73.4428,72.32531 45.5098,33.6424 82.2139,54.00381 127.331,70.63637 43.4164,16.00555 81.4418,24.35255 134.6667,29.56083 2.9333,0.2871 21.5333,0.3482 41.3333,0.1358 30.7805,-0.3301 39.3459,-0.89321 59.0775,-3.88375 z M 476.03916,873.83773 c -32.863,-2.34605 -92.8989,-12.53266 -117.0238,-19.85608 -14.9637,-4.54242 -50.274,-17.5411 -60.0522,-22.10685 -11.8122,-5.51553 -30.4027,-17.78124 -38.0781,-25.12328 -3.5681,-3.41312 -7.9122,-9.20567 -9.6536,-12.87233 l -3.1663,-6.66667 -0.013,-63.5 c -0.01,-34.925 0.3639,-65.3845 0.8245,-67.68775 1.0036,-5.01782 11.0222,-16.82655 11.1078,-13.09247 0.09,3.92311 5.2182,12.82223 11.01,19.10557 25.9733,28.17769 116.1848,55.62122 203.7114,61.97167 31.4023,2.27839 102.1374,0.80939 127.3333,-2.6444 74.7171,-10.24205 137.1234,-28.63941 165.2632,-48.71961 11.188,-7.98356 20.2084,-18.25406 23.0438,-26.23724 1.2754,-3.59102 2.6604,-6.52911 3.0777,-6.52911 0.4174,0 2.8265,2.13404 5.3537,4.74231 l 4.5949,4.74232 0.2683,64.92435 c 0.1644,39.76893 -0.2577,67.6267 -1.0892,71.89892 -3.5529,18.25321 -32.0903,41.10872 -68.4301,54.80555 -27.0949,10.2123 -74.7836,22.31481 -113.4781,28.79865 -36.0355,6.03828 -93.9871,7.65993 -144.6042,4.04645 z m 1.3333,-197.94524 c -63.6224,-3.84855 -148.5807,-25.21527 -185.1249,-46.55826 -20.1956,-11.79486 -36.0478,-25.98654 -41.0672,-36.76548 l -3.1152,-6.68957 0.019,-62.66667 c 0.011,-34.46667 0.5544,-64.97466 1.209,-67.79554 1.2398,-5.34292 6.0038,-11.5378 8.8727,-11.5378 0.9139,0 2.0242,1.65 2.4674,3.66667 1.075,4.89143 8.6917,14.36001 17.1751,21.3508 23.4314,19.30899 81.1811,38.42168 147.5643,48.83752 66.886,10.49474 124.6824,10.74342 192.6766,0.82906 94.0711,-13.71668 155.6064,-38.56355 170.7997,-68.96597 2.1214,-4.24494 3.9883,-7.94936 4.1488,-8.23202 0.7481,-1.3181 7.2096,4.30469 9.0611,7.88496 1.8118,3.5037 2.0267,12.4214 1.6944,70.32077 l -0.3806,66.30822 -3.9195,7.98299 c -4.9157,10.0121 -13.4168,18.57362 -27.6507,27.84734 -37.1402,24.1977 -92.6835,40.88798 -173.7631,52.21428 -17.3412,2.42246 -92.8104,3.65375 -120.6667,1.9687 z m 22,-200.80343 c -3.6667,-0.28268 -16.2667,-1.12277 -28,-1.86686 -68.9129,-4.37025 -140.394,-22.31995 -182.3729,-45.79589 -19.4704,-10.88848 -36.1953,-27.581 -39.6284,-39.55184 -1.6271,-5.67316 -1.717,-130.06926 -0.1,-138.43588 1.7661,-9.13914 3.4134,-9.49493 7.4135,-1.60121 5.0165,9.89965 12.9621,18.00584 26.1968,26.72634 13.7499,9.05996 26.3837,14.50477 56.5681,24.3793 32.7686,10.7199 55.7656,15.56178 100.5896,21.17856 22.4922,2.81846 29.8969,3.09002 84,3.08063 48.2327,-0.008 63.4492,-0.46211 81.3333,-2.42525 44.3492,-4.86826 80.0845,-12.45188 115.035,-24.41238 39.2301,-13.42497 65.9694,-31.899 72.5286,-50.10947 2.5101,-6.96865 4.099,-6.80768 8.0406,0.81456 1.8164,3.51247 2.1151,12.92578 2.2454,70.76379 l 0.1504,66.71238 -3.4482,7.33333 c -10.448,22.21971 -42.2604,42.25206 -93.8851,59.11955 -16.6792,5.44964 -54.9447,14.17792 -74.0139,16.88243 -37.8991,5.37505 -107.4244,9.15281 -132.6528,7.20791 z m -9.3522,-183.98337 c -51.0275,-2.629 -101.8468,-10.09051 -135.3145,-19.86747 -44.8156,-13.09203 -61.5266,-21.9832 -72.1184,-38.37072 -9.1115,-14.09723 -7.8859,-25.184 4.0663,-36.78316 10.8986,-10.57672 50.5671,-26.37927 85.745,-34.15776 47.2112,-10.43931 90.3027,-14.56652 151.6405,-14.52378 57.8759,0.0403 91.5282,2.74234 132.6666,10.652 59.224,11.38699 99.5016,27.86211 112.7173,46.10582 4.5833,6.32709 5.3689,15.77256 1.874,22.53108 -13.4265,25.96395 -62.0294,45.48107 -147.4677,59.21755 -34.3993,5.53061 -87.3847,7.58828 -133.8091,5.19644 z"
       id="path2949" />
  </g>
</svg>
