<?xml version="1.0" encoding="UTF-8" standalone="no"?>
<!-- Created with Inkscape (http://www.inkscape.org/) -->

<svg
   version="1.1"
   id="svg2"
   width="912"
   height="906.66669"
   viewBox="0 0 912 906.66669"
   xmlns="http://www.w3.org/2000/svg"
   xmlns:svg="http://www.w3.org/2000/svg">
  <defs
     id="defs6" />
  <g
     id="g8">
    <path
       style="fill:#24455a;stroke-width:1.33333;fill-opacity:1"
       d="m 423.89651,905.69947 c -17.86299,-1.00638 -54.49144,-6.1334 -70.00004,-9.79818 -33.71888,-7.96797 -40.54893,-10.09489 -68.90011,-21.4558 C 193.45988,837.76486 123.08397,779.59045 67.303778,694.49559 34.575388,644.56714 13.659628,586.32279 3.1439283,515.82892 -0.21104172,493.33826 -0.97475172,433.09224 1.7876383,408.83607 9.1336783,344.33151 28.201778,284.35153 58.271528,231.16225 92.757578,170.16113 141.07046,115.8283 192.07291,80.688777 213.40776,65.989537 254.0673,44.296843 279.2298,34.188783 340.68943,9.4997638 387.1736,0.63724781 455.22981,0.63321781 c 38.5349,-0.0023 48.3163,0.77858399 83.0209,6.62774399 43.2596,7.2910192 80.0583,19.6988982 124.4165,41.9510512 71.4468,35.841164 132.8828,91.351727 174.5672,157.730527 26.2382,41.78196 48.2927,91.58367 58.7599,132.68675 12.0848,47.45554 15.9022,74.49196 15.9022,112.62867 0,76.07786 -15.1789,141.01097 -48.0546,205.57097 -12.7621,25.06166 -13.2885,25.97462 -26.9918,46.81545 -13.9057,21.1487 -29.6278,40.97398 -46.287,58.3672 -74.2805,77.55338 -169.3064,126.68027 -271.2836,140.24921 -14.2133,1.89121 -76.7296,3.48957 -95.383,2.43868 z m 79.374,-45.21744 c 26.2166,-2.8858 38.6688,-5.20602 61.4288,-11.44606 54.6697,-14.98864 106.191,-41.23041 149.8638,-76.33141 15.5523,-12.49976 50.1428,-47.11036 61.5066,-61.5423 30.532,-38.77555 53.0949,-79.39259 67.2801,-121.11592 17.8099,-52.38476 24.1651,-92.7552 22.808,-144.88409 -1.9084,-73.30098 -22.2688,-139.00449 -64.0425,-206.66667 -26.2628,-42.53873 -61.8419,-81.8506 -100.2188,-110.73328 -32.8521,-24.72462 -55.8931,-38.131463 -91.3334,-53.144013 -40.182,-17.021162 -74.4237,-25.460531 -116.824,-28.793026 -43.6096,-3.427531 -65.1686,-2.503638 -109.76172,4.703743 -28.44412,4.59729 -61.1754,14.422323 -95.81151,28.759983 -48.79385,20.19827 -100.387,58.186063 -137.54626,101.274663 -48.22866,55.92429 -78.589832,114.37711 -95.882942,184.5986 -12.45447,50.57342 -13.04426,124.35011 -1.42832,178.66667 9.73721,45.53151 30.77768,95.03963 57.798702,136.00001 43.91461,66.56889 101.47004,115.12257 176.2839,148.71292 23.82334,10.69633 39.51999,16.07774 65.95731,22.61267 48.17437,11.90803 98.20264,15.02056 149.92224,9.32751 z m -23.7061,-48.62814 c -6.5445,-5.14788 -7.5724,-10.69016 -8.536,-46.02341 l -0.8909,-32.66822 h -67.69069 c -40.7163,0 -71.77018,-0.5674 -77.92784,-1.42385 -23.85098,-3.31736 -50.56151,-12.97985 -67.95584,-24.58291 -50.88907,-33.94601 -78.04127,-71.53001 -84.76147,-117.32657 -2.26641,-15.44503 -2.33928,-55.97198 -0.12107,-67.33334 10.68146,-54.70893 46.70824,-99.05742 101.78243,-125.29274 17.5,-8.33634 33.43195,-12.92468 50.75535,-14.61732 8.57614,-0.83796 64.06353,-1.12774 148.75893,-0.77692 85.4741,0.35406 136.3302,0.0845 138.4831,-0.73404 l 3.4023,-1.29356 -1.1498,-20.30938 c -0.6324,-11.17015 -1.1498,-26.71678 -1.1498,-34.54804 0,-12.36539 0.3673,-14.73353 2.792,-18.00001 6.0569,-8.15958 19.5048,-12.22114 26.6452,-8.04741 3.8167,2.23096 35.9846,31.28811 58.1349,52.51308 10.0792,9.65819 22.6988,21.29347 28.0436,25.85618 22.8444,19.50196 44.9967,42.60037 49.6365,51.7567 4.0133,7.9198 4.513,17.244 1.1956,22.30699 -1.2203,1.86252 -17.2411,16.9914 -35.6018,33.61976 -18.3606,16.62836 -38.9829,35.33338 -45.8274,41.56671 -44.2524,40.30107 -51.5232,46.04195 -60.6335,47.87493 -11.9025,2.3948 -20.0602,-0.84478 -24.6946,-9.80673 -1.5637,-3.02399 -1.8377,-6.27436 -1.1803,-14.00315 0.4708,-5.53577 0.4539,-22.236 -0.038,-37.1116 l -0.8936,-27.04656 -138.7895,0.3799 -138.78947,0.37988 -10.66667,3.63254 c -36.4618,12.41712 -60.69591,42.91664 -57.38104,72.21616 2.66881,23.58918 17.81284,44.6131 40.04771,55.59682 17.88841,8.83661 21.29049,9.17377 92.66666,9.18332 34.83331,0.004 65.60621,-0.36713 68.38421,-0.82623 3.0877,-0.51028 5.6062,-1.87234 6.4797,-3.50444 1.0218,-1.90929 0.9455,-12.2086 -0.268,-36.15832 -1.6025,-31.62869 -1.562,-33.77244 0.7287,-38.59987 3.4138,-7.19402 11.0953,-11.92286 20.4626,-12.59702 6.8601,-0.49372 8.1128,-0.13702 13.7794,3.92364 3.4282,2.4567 18.1777,15.56673 32.7766,29.1334 14.5988,13.56667 33.6939,30.72925 42.4334,38.13909 8.7395,7.40983 24.6464,21.64094 35.3486,31.62468 22.8028,21.27204 27.8748,28.82431 27.8748,41.50595 v 7.56312 l -9,8.93832 c -18.3635,18.23762 -97.0106,90.60295 -110.0096,101.22283 -17.3181,14.14845 -21.8634,16.33935 -33.8982,16.33935 -7.3507,0 -10.1312,-0.57575 -12.7576,-2.64171 z M 142.10464,471.61694 c -1.3141,-30.36065 -1.0323,-88.19257 0.49599,-101.78802 4.08391,-36.32976 11.92235,-63.76259 26.09689,-91.33334 9.48675,-18.45257 16.45456,-28.33517 33.38614,-47.35229 13.23294,-14.86292 23.85444,-23.97468 42.70601,-36.63579 19.87184,-13.34635 42.07704,-23.00339 69.77347,-30.34448 12.45988,-3.30256 13.82912,-3.37595 83.87212,-4.49564 39.16295,-0.62604 71.56295,-1.49629 71.99995,-1.93389 0.437,-0.4376 0.5757,-16.9362 0.3081,-36.66357 l -0.4866,-35.867953 4.5491,-4.54909 c 7.2726,-7.27257 20.9686,-9.75171 28.0554,-5.07833 1.9973,1.3171 18.2244,17.06314 36.0603,34.991213 17.836,17.92807 39.0018,38.90271 47.0353,46.61031 24.8362,23.82876 52.6063,53.51127 52.6063,56.22902 0,1.40595 -0.8749,4.24812 -1.9442,6.31596 -2.561,4.95236 -37.0908,37.60661 -72.0558,68.14189 -15.4,13.44899 -33.658,29.78122 -40.5734,36.29386 -16.6302,15.66163 -22.3867,18.9944 -32.8186,19.00064 -9.1995,0.005 -13.9167,-2.37081 -18,-9.06763 -2.2346,-3.66494 -2.5996,-6.77846 -2.6091,-22.26089 -0.01,-9.9 -0.3926,-24.6 -0.8591,-32.66667 l -0.8481,-14.66667 -64.14582,0.10854 -64.14585,0.10853 -11.72879,3.57025 c -23.45729,7.14042 -40.41149,18.25324 -57.19177,37.48704 -12.87908,14.76219 -14.41384,19.20203 -15.57879,45.06711 l -0.83399,18.51704 -6.76694,2.28692 c -9.76079,3.2987 -25.73546,12.77522 -37.77942,22.41158 -13.68737,10.95125 -33.058,31.51761 -40.90812,43.43336 -7.6432,11.60164 -19.57102,36.05136 -22.72604,46.58397 -1.27828,4.2674 -2.71692,7.75891 -3.19697,7.75891 -0.48005,0 -1.26651,-9.0954 -1.74767,-20.21199 z"
       id="path827" />
  </g>
</svg>
