<?xml version="1.0" encoding="UTF-8" standalone="no"?>
<!-- Created with Inkscape (http://www.inkscape.org/) -->

<svg
   version="1.1"
   id="svg97"
   width="1070"
   height="1070"
   viewBox="0 0 1070 1070"
   sodipodi:docname="containers.svg"
   inkscape:version="1.1.2 (0a00cf5339, 2022-02-04)"
   xmlns:inkscape="http://www.inkscape.org/namespaces/inkscape"
   xmlns:sodipodi="http://sodipodi.sourceforge.net/DTD/sodipodi-0.dtd"
   xmlns="http://www.w3.org/2000/svg"
   xmlns:svg="http://www.w3.org/2000/svg">
  <sodipodi:namedview
     id="namedview8"
     pagecolor="#ffffff"
     bordercolor="#666666"
     borderopacity="1.0"
     inkscape:pageshadow="2"
     inkscape:pageopacity="0.0"
     inkscape:pagecheckerboard="0"
     showgrid="false"
     inkscape:zoom="0.33598131"
     inkscape:cx="1077.4409"
     inkscape:cy="266.38387"
     inkscape:window-width="1610"
     inkscape:window-height="986"
     inkscape:window-x="1150"
     inkscape:window-y="607"
     inkscape:window-maximized="1"
     inkscape:current-layer="svg97" />
  <defs
     id="defs101" />
  <path
     style="fill:#2979ad;fill-opacity:1;stroke-width:1.33333"
     d="m 552.63772,924.35157 c -1.5711,-0.99333 -1.3825,-1.20864 0.9076,-1.03613 1.58992,0.11973 2.59702,0.69321 2.23782,1.27432 -0.7984,1.29188 -0.7155,1.29816 -3.14542,-0.23819 z m -22.9412,-5.09888 c -0.9583,-1.31648 -4.5861,-3.46373 -8.06187,-4.77167 -3.4757,-1.30794 -6.66111,-2.93082 -7.07864,-3.6064 -0.41752,-0.67557 -1.60595,-1.22832 -2.64094,-1.22832 -1.79442,0 -9.37376,-3.1594 -23.96082,-9.98792 -3.66667,-1.71645 -10.43628,-4.68721 -15.04358,-6.60169 -4.60729,-1.91449 -12.27232,-5.26503 -17.03338,-7.44564 -4.76107,-2.18061 -9.06482,-3.96475 -9.56388,-3.96475 -0.9404,0 -12.28443,-5.0058 -36.35917,-16.0443 -14.15906,-6.49207 -39.48682,-17.28903 -40.55701,-17.28903 -0.31987,0 -4.97539,-2.01617 -10.34561,-4.4804 -5.37023,-2.46421 -12.16404,-5.23635 -15.09738,-6.16029 -2.93333,-0.92395 -8.03333,-3.06084 -11.33333,-4.74867 -3.3,-1.68783 -9.9,-4.57993 -14.66667,-6.42691 -4.76667,-1.84696 -12.86667,-5.27888 -18,-7.62648 -5.13333,-2.3476 -15.03333,-6.21976 -22,-8.60481 -6.96667,-2.38505 -16.07699,-5.89949 -20.24517,-7.80987 -4.16817,-1.91037 -11.96817,-5.22166 -17.33333,-7.35842 -15.68414,-6.24646 -37.32146,-15.50082 -43.08817,-18.42896 -2.93333,-1.48946 -11.63334,-5.18148 -19.33334,-8.2045 -7.7,-3.02302 -14.75692,-5.9833 -15.68205,-6.57841 -1.34105,-0.86265 -1.74652,-47.38297 -2,-229.46728 l -0.31795,-228.38527 19.33334,-8.59804 c 10.63333,-4.72892 21.43333,-9.50644 24,-10.6167 2.56667,-1.11027 5.86667,-2.55718 7.33333,-3.21535 1.46667,-0.65817 8.06667,-3.38251 14.66667,-6.05409 6.6,-2.67157 14.51708,-5.99249 17.59351,-7.37981 3.07644,-1.38732 5.90866,-2.52241 6.29382,-2.52241 0.38517,0 3.86809,-1.42959 7.73982,-3.17688 3.87174,-1.74729 8.53952,-3.61402 10.37285,-4.14831 1.83334,-0.53428 5.13334,-1.73903 7.33334,-2.67721 2.2,-0.93818 12.1,-4.87504 22,-8.74857 20.69685,-8.09796 58.69559,-24.11797 73.33333,-30.91682 5.5,-2.55461 11.5,-5.09116 13.33334,-5.63678 3.67041,-1.09235 7.60742,-2.73418 18.75157,-7.81983 4.08003,-1.86192 10.68003,-4.66744 14.66667,-6.23447 7.05649,-2.7737 9.35956,-3.76622 23.24843,-10.01897 22.9589,-10.33609 27.42473,-12.24305 31.32166,-13.37474 1.82692,-0.53055 6.92692,-2.61208 11.33334,-4.62564 4.40641,-2.01356 14.52818,-6.23631 22.49284,-9.3839 7.96464,-3.14759 17.72976,-7.67911 21.70033,-10.07005 l 7.2192,-4.34717 7.6329,4.5417 c 4.1982,2.49794 18.73592,8.97611 32.30612,14.39594 13.5702,5.41983 30.9702,12.91955 38.6667,16.66603 21.2367,10.33762 47.9847,22.32731 67.9341,30.45125 9.8673,4.01823 25.6381,10.86835 35.0461,15.22249 14.9507,6.91939 28.2978,12.25054 39.68,15.84919 3.7324,1.18004 25.451,10.21701 34.6667,14.42458 3.3,1.50667 11.7,4.94522 18.6667,7.64123 14.8596,5.75046 36.2073,14.91244 51.6042,22.14739 13.652,6.41504 36.76874,15.13216 43.39584,16.36417 l 5,0.92955 0.097,221.60624 c 0.053,121.88344 0.3741,224.98561 0.7125,229.11593 l 0.6153,7.50968 -4.3792,0.82819 c -2.4085,0.45549 -7.3791,2.38022 -11.04584,4.27717 -3.6667,1.89695 -11.7667,5.4654 -18,7.92991 -6.2333,2.4645 -16.4333,6.6672 -22.6667,9.3393 -6.2333,2.67211 -14.8493,6.28287 -19.1465,8.02391 -4.2973,1.74103 -8.4973,3.71465 -9.3333,4.38584 -0.8361,0.67117 -5.7202,2.74208 -10.8535,4.602 -8.7281,3.16239 -25.9983,10.5906 -43.5812,18.74504 -4.1697,1.93377 -8.2683,3.51595 -9.1081,3.51595 -0.8397,0 -5.8179,2.15354 -11.0625,4.78566 -5.2447,2.63211 -17.3461,7.98799 -26.892,11.90195 -9.5459,3.91396 -26.9562,11.61475 -38.6896,17.11287 -11.7333,5.4981 -24.6333,11.47756 -28.6666,13.28766 -4.0334,1.81011 -13.9569,6.35576 -22.0525,10.10148 -8.0955,3.74571 -15.1016,6.81038 -15.5693,6.81038 -0.4676,0 -5.5405,2.1665 -11.2732,4.81446 -5.7326,2.64796 -13.1264,5.89522 -16.4307,7.21612 -13.4313,5.3693 -36.061,17.47103 -35.2187,18.83394 0.5809,0.94001 -0.1376,1.09873 -2.12232,0.46881 -1.9374,-0.61491 -2.6984,-0.46331 -2.1476,0.42783 1.3555,2.19326 -4.3948,3.33404 -6.7999,1.349 -1.5249,-1.25862 -2.3015,-1.33563 -2.6625,-0.26407 -0.5293,1.57109 -7.6578,0.56025 -11.2327,-1.59283 -1.5357,-0.92484 -1.5347,-0.74188 0,1.15746 1.0064,1.24077 1.4904,2.25594 1.0756,2.25594 -0.4149,0 -1.5384,-1.07712 -2.4966,-2.39361 z m -1.8989,-235.47815 c -0.086,-112.49612 -0.5126,-205.9461 -0.9478,-207.66665 -0.4351,-1.72053 -2.4646,-3.85435 -4.50997,-4.74179 -2.0454,-0.88745 -10.01894,-4.3829 -17.71894,-7.76766 -12.93969,-5.68803 -25.78832,-10.88854 -46,-18.61856 -4.4,-1.68279 -11.6,-4.6663 -16,-6.63 -4.4,-1.9637 -15.84849,-6.48712 -25.44109,-10.05206 -22.72026,-8.4436 -63.63606,-25.32884 -77.45934,-31.96612 -5.99522,-2.87862 -16.79522,-7.40106 -24,-10.04988 -28.46207,-10.46401 -69.41137,-27.04013 -80.43291,-32.55894 -4.03333,-2.0196 -9.73333,-4.4583 -12.66667,-5.41931 -2.93333,-0.96101 -11.7428,-4.57979 -19.57659,-8.04173 l -14.24326,-6.29446 -0.93707,5.50614 c -0.69565,4.08753 -1.16525,294.18852 -0.63521,392.40017 l 0.0588,10.89407 4.21802,0.92642 c 4.31183,0.94704 29.79741,11.31148 63.11532,25.66766 19.8577,8.55637 47.75082,20.28162 79.33334,33.34884 10.63333,4.39953 23.83333,10.08866 29.33333,12.64254 5.5,2.55387 16.6,7.37367 24.66667,10.71068 25.15425,10.40578 117.33582,51.71496 129.3333,57.95795 4.4,2.28957 8.59997,4.19171 9.33337,4.22697 0.884,0.0425 1.2805,-68.86214 1.1767,-204.47428 z m -65.17671,103.78294 c -3.66666,-1.76651 -8.51069,-3.56607 -10.76449,-3.99904 l -4.09783,-0.78722 -0.27457,-135.17401 -0.27456,-135.174 5.70572,3.26312 c 3.13816,1.79472 8.55573,4.21813 12.03907,5.38537 l 6.33333,2.12224 V 657.0868 c 0,73.64106 -0.45,133.84552 -1,133.78768 -0.55,-0.0579 -4,-1.5505 -7.66667,-3.317 z m -46.66667,-19.55706 c -1.46666,-0.86064 -6.26666,-2.8758 -10.66666,-4.47813 l -8,-2.91335 -0.0892,-133.48132 c -0.0491,-73.41472 0.14409,-133.48132 0.42924,-133.48132 0.28514,0 3.1969,1.56968 6.47058,3.48819 3.27368,1.91851 8.48052,4.23456 11.57076,5.14677 l 5.61862,1.65859 0.4554,105.85323 c 0.43356,100.77713 -0.40579,159.9012 -2.26875,159.81268 -0.46932,-0.0223 -2.05332,-0.74471 -3.51999,-1.60534 z m -52,-22.40957 c -2.93333,-1.37844 -7.79074,-2.88412 -10.79424,-3.34595 l -5.4609,-0.83966 -0.7519,-134.2128 c -0.41353,-73.81704 -0.59737,-134.37156 -0.40852,-134.5656 0.18886,-0.19404 3.18015,1.2327 6.64731,3.17054 3.46717,1.93784 8.80841,4.26223 11.86943,5.16532 l 5.56549,1.64198 1.03099,69.85414 c 1.03416,70.06868 0.0552,195.94842 -1.52228,195.74622 -0.46312,-0.0593 -3.24204,-1.23575 -6.17538,-2.61419 z m -50,-19.91389 c -2.56667,-1.38832 -7.51667,-3.22302 -11,-4.0771 L 296.62091,720.047 V 585.61058 451.17418 l 7.45764,4.49076 c 4.10169,2.46991 9.10381,4.85231 11.11581,5.29423 l 3.65819,0.80347 0.88285,72.94182 c 1.17843,97.36294 1.12148,193.6217 -0.11453,193.55262 -0.55,-0.0308 -3.1,-1.19179 -5.66667,-2.58012 z m -48,-20.59655 c -1.83333,-0.98585 -6.78334,-2.8714 -11,-4.19012 l -7.66667,-2.39764 -0.0541,-6.75651 c -0.0298,-3.71608 -0.30531,-64.19784 -0.61233,-134.4039 l -0.55821,-127.6474 6.94566,3.86922 c 3.82012,2.12807 9.49567,4.61438 12.61234,5.52511 l 5.66666,1.65591 v 133.12228 c 0,73.21725 -0.45,133.09825 -1,133.06889 -0.55,-0.0293 -2.5,-0.85999 -4.33333,-1.84584 z m 326,163.36511 c 4.9959,-2.6389 37.7409,-17.54182 63.3333,-28.82435 11.4122,-5.03111 19.9805,-8.8658 56.6667,-25.361 18.3548,-8.25284 35.2007,-15.59145 88.6667,-38.62605 22.8751,-9.85522 47.9282,-20.70663 60,-25.98815 4.7666,-2.08548 10.8914,-4.6974 13.6106,-5.80428 l 4.9441,-2.01252 0.3893,-203.75811 c 0.2141,-112.06694 0.301,-203.94638 0.1931,-204.17652 -0.3424,-0.73022 -70.834,28.98055 -121.1371,51.05683 -34.6409,15.20268 -51.2472,22.31667 -96,41.12568 -46.4125,19.50649 -81.0001,34.60231 -92,40.15349 -5.1334,2.59056 -10.35,4.71888 -11.5926,4.7296 -2.9069,0.0251 -3.1207,8.58423 -2.9313,117.35283 0.078,45.1 0.2285,130.41476 0.3333,189.58836 l 0.1906,107.58836 15,-7.11353 c 8.25,-3.91244 17.4,-8.38123 20.3333,-9.93064 z m 22.327,-213.07291 0.3397,-134.27371 4.6702,-0.97028 c 2.5686,-0.53364 11.2686,-4.07604 19.3333,-7.87198 8.0647,-3.79595 26.0631,-11.84755 39.9965,-17.89246 13.9333,-6.0449 35.2333,-15.51492 47.3333,-21.04446 12.1,-5.52956 31.9,-14.40179 44,-19.71608 12.1,-5.3143 29.0408,-13.17872 37.6462,-17.47651 8.6054,-4.29779 15.8054,-7.81409 16,-7.81401 0.1946,8e-5 0.3538,60.62693 0.3538,134.72633 v 134.72619 l -8.6667,3.1063 c -4.7666,1.70847 -20.3666,8.31428 -34.6666,14.67959 -14.3,6.36531 -39.8,17.59791 -56.6667,24.96135 -16.8667,7.36344 -40.8667,18.05422 -53.3333,23.75732 -12.4667,5.70309 -27.7667,12.64653 -34,15.42988 -6.2334,2.78334 -13.1334,6.15764 -15.3334,7.49844 -2.2,1.3408 -4.7528,2.44006 -5.673,2.4428 -1.3331,0.004 -1.604,-27.28306 -1.3333,-134.26871 z m -67.30052,-211.5316 c 2.7354,-1.72625 9.77352,-4.795 15.64022,-6.81943 5.8666,-2.02444 15.3956,-6.05844 21.1754,-8.96445 5.7798,-2.90601 17.4798,-8.16879 26,-11.69507 16.5142,-6.83478 47.2742,-19.9613 64.8246,-27.6632 5.8666,-2.57457 22.9666,-10.08237 38,-16.68401 15.0333,-6.60164 39.0333,-17.09313 53.3333,-23.31443 14.3,-6.22129 35.6,-15.51101 47.3333,-20.6438 11.7334,-5.13278 26.1101,-11.34156 31.9483,-13.79726 10.3195,-4.34067 10.5119,-4.50411 6.9132,-5.87232 -2.036,-0.77407 -4.2722,-1.4074 -4.9694,-1.4074 -1.9596,0 -37.8105,-13.76184 -54.0349,-20.742 -7.9881,-3.4367 -22.9238,-9.70294 -33.1905,-13.92498 -10.2667,-4.22204 -21.8542,-9.08409 -25.75,-10.80456 l -7.0833,-3.12811 -8.9167,3.06801 c -9.0687,3.12032 -33.6351,14.62549 -92.25,43.2033 -17.9667,8.75968 -39.6218,19.10274 -48.1225,22.98455 -8.5007,3.88183 -16.6007,7.72972 -18,8.55088 -1.3993,0.82117 -10.64422,5.15623 -20.54422,9.63345 -9.9,4.47724 -24.59994,11.12623 -32.66661,14.77552 -8.06666,3.64931 -23.96666,10.80167 -35.33333,15.89414 -27.63003,12.37874 -43.88999,20.29333 -43.95039,21.39297 -0.0869,1.58248 15.72298,8.54503 71.95039,31.68637 8.43333,3.47088 18.63337,7.40094 22.66667,8.73347 4.03327,1.33253 9.43327,3.79468 11.99997,5.47144 5.9317,3.87509 6.9835,3.88049 13.0265,0.0669 z M 363.42176,354.40652 c 25.27671,-13.04236 140.07567,-66.88347 166.53246,-78.10429 4.7667,-2.02163 14.3667,-6.38016 21.3333,-9.68563 44.39152,-21.06237 68.88082,-32.52915 79.69242,-37.31486 6.7975,-3.00887 11.8975,-5.87309 11.3333,-6.36495 -0.5641,-0.49185 -7.9257,-3.73956 -16.359,-7.21713 -8.4333,-3.47757 -21.3333,-9.21666 -28.6667,-12.75354 -18.3014,-8.82678 -30.0405,-14.10839 -34,-15.29718 -1.8333,-0.55044 -8.93062,-3.36387 -15.77182,-6.25208 l -12.4385,-5.25129 -8.8949,2.95313 c -4.89207,1.62422 -12.79474,4.72275 -17.56141,6.88561 -10.35244,4.6974 -62.40304,27.21597 -79.33333,34.32186 -6.6,2.77012 -19.8,8.47115 -29.33334,12.66897 -9.53333,4.19781 -20.45212,8.71857 -24.26396,10.04609 -3.81184,1.32754 -15.21184,5.99388 -25.33333,10.36965 -10.12149,4.37577 -34.30271,14.28599 -53.73604,22.02272 -59.02933,23.50054 -83.46568,34.50785 -81.97225,36.92428 0.43796,0.70864 1.36641,1.28842 2.06322,1.28842 1.28505,0 10.43245,3.77578 45.24236,18.67471 10.63333,4.55116 29.53333,12.31528 42,17.2536 12.46667,4.93832 25.06667,10.24816 28,11.79964 2.93334,1.55147 6.89372,2.84739 8.80086,2.87979 1.90713,0.0324 12.10713,-4.39898 22.66666,-9.84752 z"
     id="path187" />
  <circle
     style="fill:none;fill-opacity:0.497448;stroke:#2979ad;stroke-width:62.7022;stroke-miterlimit:4;stroke-dasharray:none;stroke-opacity:1"
     id="path1922"
     cy="535"
     cx="535"
     r="503.6489" />
</svg>
