<?xml version="1.0" encoding="UTF-8" standalone="no"?>
<!-- Created with Inkscape (http://www.inkscape.org/) -->

<svg
   version="1.1"
   id="svg2"
   width="981.33331"
   height="977.33331"
   viewBox="0 0 981.33331 977.33331"
   sodipodi:docname="documentation.svg"
   inkscape:version="1.1.2 (0a00cf5339, 2022-02-04)"
   xmlns:inkscape="http://www.inkscape.org/namespaces/inkscape"
   xmlns:sodipodi="http://sodipodi.sourceforge.net/DTD/sodipodi-0.dtd"
   xmlns="http://www.w3.org/2000/svg"
   xmlns:svg="http://www.w3.org/2000/svg">
  <sodipodi:namedview
     id="namedview6"
     pagecolor="#ffffff"
     bordercolor="#666666"
     borderopacity="1.0"
     inkscape:pageshadow="2"
     inkscape:pageopacity="0.0"
     inkscape:pagecheckerboard="0"
     showgrid="false"
     inkscape:zoom="0.36783766"
     inkscape:cx="296.32637"
     inkscape:cy="634.7909"
     inkscape:window-width="1610"
     inkscape:window-height="986"
     inkscape:window-x="1150"
     inkscape:window-y="607"
     inkscape:window-maximized="1"
     inkscape:current-layer="svg2" />
  <defs
     id="defs6" />
  <g
     id="g8"
     style="fill:#2979ad;fill-opacity:1">
    <path
       style="fill:#2979ad;fill-opacity:1;stroke-width:1.33333"
       d="m 465.99999,976.49252 c -25.05545,-2.05724 -59.34559,-6.64724 -78.95359,-10.56853 -36.82765,-7.36496 -81.0427,-22.55055 -116.08701,-39.86989 -5.25366,-2.59644 -9.9301,-4.72079 -10.39209,-4.72079 -1.46835,0 -50.24485,-29.41269 -58.29864,-35.15462 -12.75678,-9.09494 -33.23326,-25.30056 -39.49616,-31.25832 -3.23026,-3.07288 -6.1392,-5.58706 -6.4643,-5.58706 -0.3251,0 -1.77548,-1.50572 -3.22307,-3.34604 -1.4476,-1.84032 -3.18508,-3.00421 -3.86107,-2.58642 -0.67598,0.41777 -1.81308,-0.77651 -2.52689,-2.65398 -0.71381,-1.87745 -1.97812,-3.41356 -2.80957,-3.41356 -2.08859,0 -6.75887,-4.47202 -15.31688,-14.66666 -4.00143,-4.76667 -9.05185,-10.76667 -11.22315,-13.33334 -10.24688,-12.1127 -13.10334,-15.70021 -19.013151,-23.87912 -3.492273,-4.83314 -9.126008,-12.83754 -12.519412,-17.78754 -3.393404,-4.95 -6.689992,-9 -7.32575,-9 -0.635759,0 -1.155926,-0.85404 -1.155926,-1.89787 0,-1.04384 -2.218343,-4.79384 -4.929654,-8.33333 -6.028131,-7.86948 -17.955662,-29.45241 -19.224014,-34.78596 -0.12855,-0.54056 -1.549214,-3.08284 -3.15703,-5.64951 -1.607815,-2.56666 -4.970651,-9.76666 -7.472967,-16 -2.502318,-6.23333 -4.999667,-11.53333 -5.549667,-11.77777 -0.55,-0.24445 -1,-1.49269 -1,-2.77388 0,-1.28119 -2.7254,-9.18119 -6.056444,-17.55556 -3.331044,-8.37436 -6.633261,-17.62612 -7.338258,-20.55945 -0.704999,-2.93334 -2.523225,-9.53334 -4.040504,-14.66667 -1.517277,-5.13333 -3.622157,-13.23333 -4.677509,-18 -1.055351,-4.76666 -2.583423,-11.36666 -3.395715,-14.66666 C 6.5782522,576.10183 5.2802444,567.94985 3.4534979,547.79827 0.05327563,510.28904 -0.38059703,490.29085 1.8379362,473.33332 c 1.1033228,-8.43333 1.966897,-22.66577 1.9190541,-31.62762 -0.054553,-10.21892 0.7009184,-19.91311 2.0261916,-26 1.1622482,-5.33815 3.0507402,-16.20907 4.1966488,-24.15762 1.1459083,-7.94854 2.9900513,-16.62166 4.0980953,-19.27358 1.108044,-2.65192 2.94928,-9.04856 4.091635,-14.21476 2.224489,-10.06004 3.08307,-12.78957 10.503858,-33.39308 5.89851,-16.37696 11.072615,-29.57723 13.326967,-34 0.934478,-1.83333 2.382757,-4.83333 3.218397,-6.66667 0.83564,-1.83333 3.211172,-6.37556 5.27896,-10.09384 2.067788,-3.71826 4.152609,-8.32632 4.632937,-10.24009 0.480328,-1.91377 1.622421,-4.27155 2.537987,-5.23949 0.915566,-0.96795 2.864665,-3.96556 4.331332,-6.66136 8.737994,-16.06083 14.769609,-26.22464 17.526766,-29.53419 1.726945,-2.07292 3.1399,-4.62292 3.1399,-5.66667 0,-1.04373 0.6,-1.89769 1.333333,-1.89769 0.733333,0 1.333711,-0.75 1.334172,-1.66667 4.61e-4,-0.91666 2.700461,-5.10549 6,-9.30849 3.299538,-4.203 5.999161,-8.01666 5.999161,-8.4748 0,-0.7564 7.585009,-10.96018 9.329109,-12.55004 0.40224,-0.36666 5.40831,-6.28541 11.12461,-13.15277 5.7163,-6.86735 14.03945,-15.66605 18.49591,-19.55265 4.45645,-3.88662 9.24074,-8.86408 10.63177,-11.06106 1.39103,-2.19698 5.94321,-6.59828 10.11596,-9.78068 4.17275,-3.18239 9.75497,-8.03617 12.40495,-10.78617 2.64997,-2.75 5.68358,-5 6.74137,-5 1.05777,0 4.90068,-3.0377 8.53977,-6.75044 3.63911,-3.71275 9.9227,-8.768802 13.96354,-11.235678 4.04084,-2.466876 9.76784,-6.779175 12.72666,-9.582889 2.95883,-2.803712 7.73821,-6.297658 10.62085,-7.764325 2.88266,-1.466666 9.03916,-5.213646 13.68115,-8.326622 4.64197,-3.112976 9.94548,-6.037816 11.78555,-6.499644 1.84006,-0.461828 7.83884,-3.164848 13.3306,-6.006711 5.49177,-2.841862 10.77928,-5.167022 11.75002,-5.167022 0.97075,0 2.54832,-0.943854 3.50572,-2.097451 2.68763,-3.238388 11.05784,-7.075686 17.46343,-8.006048 3.18397,-0.462445 8.32729,-2.607196 11.42963,-4.766113 3.10232,-2.158917 8.80232,-4.862633 12.66666,-6.00826 3.86434,-1.145626 9.12607,-3.136424 11.69274,-4.423993 2.56666,-1.287571 7.96666,-3.110531 12,-4.051024 6.72029,-1.567037 12.7685,-3.344306 27.33333,-8.03191 2.93333,-0.944075 9.23333,-2.162537 14,-2.707692 13.90833,-1.590669 38.41038,-5.0589779 50.66666,-7.1719528 30.74667,-5.30070715 51.67864,-5.67956318 108.66667,-1.9668002 30.51466,1.9880266 66.86756,9.652975 108.66666,22.912187 2.56667,0.814179 4.96667,1.57086 5.33333,1.681513 1.01078,0.305032 5.25247,2.083066 13,5.449332 3.85,1.672807 7,2.753375 7,2.401261 0,-0.352113 1.35,0.10964 3,1.026126 1.65,0.916481 3.3,1.740736 3.66667,1.831674 0.84979,0.210758 13.19915,5.89736 26.03692,11.989412 5.47983,2.600403 15.11059,7.700645 21.40169,11.333872 6.2911,3.633226 11.67168,6.605866 11.95684,6.605866 0.28518,0 8.18786,5.108591 17.56152,11.352424 19.82939,13.208426 34.8824,24.443508 46.99949,35.078898 4.74272,4.16277 9.13732,7.40381 9.76578,7.20231 0.62845,-0.2015 0.79642,0.1938 0.37329,0.87846 -0.42315,0.68466 1.18225,2.86001 3.56756,4.83412 8.73265,7.22725 23.26828,21.95421 33.67024,34.11345 5.86667,6.85776 11.45111,13.38479 12.40987,14.5045 0.95876,1.11972 5.75482,7.43584 10.65794,14.03584 4.90311,6.6 9.81867,12.73092 10.92347,13.62426 1.1048,0.89334 1.50244,1.64334 0.88364,1.66667 -0.61879,0.0233 1.03121,3.04379 3.66667,6.71214 2.63546,3.66838 4.79174,7.26838 4.79174,8 0,0.73164 0.63542,1.33026 1.41203,1.33026 0.77661,0 1.08005,0.53713 0.67432,1.19362 -0.40573,0.65648 0.15885,1.53766 1.25464,1.95815 1.09579,0.42049 1.99235,1.68336 1.99235,2.80639 0,1.12301 0.6,2.04184 1.33333,2.04184 0.73333,0 1.33333,0.87018 1.33333,1.93374 0,1.06356 1.05,2.54532 2.33334,3.29279 1.28333,0.74748 1.73333,1.38648 1,1.42 -0.73334,0.0335 -0.64206,0.50177 0.20284,1.04055 2.15128,1.37182 21.95425,39.26276 29.89602,57.20292 7.61788,17.2085 18.19871,45.9539 23.11811,62.80599 6.0848,20.84432 14.305,62.38822 16.28532,82.304 0.3646,3.66667 1.03808,10.26667 1.49664,14.66667 1.89086,18.14357 0.78949,80.2992 -1.55048,87.5 -0.32766,1.00833 -0.93254,6.63333 -1.34415,12.5 -0.7066,10.07106 -2.24824,21.19262 -3.97369,28.66666 -0.42324,1.83334 -1.01764,4.83334 -1.32088,6.66667 -0.82348,4.97848 -2.26459,11.07569 -3.15142,13.33333 -0.43209,1.1 -1.50649,5 -2.38756,8.66667 -1.31424,5.46939 -4.29297,16.3606 -7.84026,28.66666 -1.52067,5.27536 -6.12936,17.45415 -9.27102,24.49924 -1.92104,4.30792 -3.49281,8.28464 -3.49281,8.83718 0,0.55252 -1.01355,3.32786 -2.25232,6.16742 -1.23877,2.83955 -2.31731,5.46283 -2.39672,5.8295 -0.0795,0.36666 -1.46364,2.76666 -3.07603,5.33333 -1.6124,2.56667 -2.93388,5.27088 -2.93661,6.00936 -0.003,0.73848 -3.06305,7.63848 -6.80069,15.33333 -6.63822,13.66642 -12.37608,23.26284 -28.11835,47.02726 -4.26393,6.4368 -7.75261,12.01882 -7.75261,12.4045 0,0.38568 -3.26984,4.79937 -7.26631,9.8082 -3.99645,5.00883 -6.89645,9.4768 -6.44444,9.92883 0.45203,0.45201 0.21758,0.82185 -0.52101,0.82185 -0.73857,0 -5.46724,4.95 -10.50816,11 -20.80089,24.96481 -54.59664,57.7224 -72.83285,70.59552 -3.43168,2.42247 -13.03168,9.28587 -21.33334,15.25201 -25.5397,18.35463 -58.10134,35.888 -95.76055,51.56391 -21.86743,9.10246 -42.41262,16.1306 -52,17.78825 -1.83333,0.31699 -8.13333,1.99429 -14,3.72735 -17.79745,5.25749 -30.33016,7.52609 -70.66667,12.79169 -10.35848,1.35221 -64.21802,2.63172 -74.66666,1.77381 z m 78.66666,-65.07509 c 46.465,-6.63124 70.88738,-13.19926 116.66667,-31.37576 44.25377,-17.57078 94.14934,-51.2432 131.33333,-88.63134 34.86096,-35.05235 59.61677,-70.93097 86.04352,-124.70296 13.57708,-27.62604 24.34164,-59.98868 31.27438,-94.02352 8.50703,-41.76348 9.58807,-100.59235 2.69083,-146.43351 C 907.03287,388.74838 892.73051,342.69381 876.1595,308.66666 835.73937,225.66741 782.55551,165.90913 710.69582,122.74886 644.61718,83.060797 569.51177,62.6632 489.47303,62.66778 c -32.14337,0.0018 -75.44103,5.428649 -107.19692,13.435774 -29.58148,7.458849 -78.91716,27.444696 -104.94278,42.512236 -15.72535,9.1042 -40.82338,26.16034 -54.66667,37.15045 -16.37657,13.00126 -52.36566,49.0717 -66.4654,66.61563 -33.44706,41.61732 -64.146801,101.55128 -78.687211,153.61812 -11.585275,41.48497 -15.36844,71.0214 -15.455557,120.66666 -0.06905,39.35339 1.845125,55.70696 10.690552,91.33334 12.908197,51.98983 30.598366,92.81583 58.479756,134.96166 18.08476,27.33711 32.92953,45.41053 57.33164,69.80097 45.59994,45.57813 100.58241,78.28345 171.08402,101.76625 23.56018,7.84746 63.87365,16.13023 91.24697,18.74753 18.47964,1.76692 76.41622,0.6184 93.77522,-1.85897 z M 398.66666,799.9441 l -102,-0.72255 -10.88204,-3.37654 c -18.59016,-5.76827 -34.94705,-17.65367 -46.41789,-33.72861 -8.10994,-11.36506 -10.755,-18.12931 -14.79839,-37.84415 -5.94641,-28.99357 -3.42408,-47.42624 9.70729,-70.93893 8.20168,-14.68571 25.5554,-32.53161 37.04098,-38.09155 6.8609,-3.32121 9.90702,-3.93574 21.66666,-4.37105 l 13.68339,-0.50652 0.007,7.81789 c 0.003,4.29984 0.38858,14.45576 0.85612,22.56872 l 0.85006,14.75081 -9.18945,2.44518 c -5.05421,1.34484 -11.90135,3.79709 -15.21587,5.44944 -7.971,3.97368 -17.9803,14.85972 -22.3549,24.31298 -3.05668,6.60534 -3.53418,9.40575 -3.5734,20.95743 -0.04,11.77835 0.37766,14.23605 3.58137,21.07375 4.75452,10.1476 17.60971,23.46677 27.16516,28.14561 10.09191,4.94153 17.69611,5.90649 34.75527,4.4104 8.12297,-0.7124 94.16337,-1.34685 196.4529,-1.44864 l 181.99939,-0.18112 5.81756,-3.10408 c 10.24994,-5.46907 16.59232,-13.34281 21.31311,-26.45915 5.76037,-16.00473 5.51956,-15.71236 11.00907,-13.36644 21.09878,9.0165 19.01974,36.77706 -4.51162,60.24219 -8.34384,8.32036 -11.13985,10.18632 -20.96145,13.98892 -23.58872,9.1328 -15.3738,8.53921 -119.33333,8.62261 -52.06667,0.0417 -140.56666,-0.2492 -196.66666,-0.6466 z m -63.94412,-68.88828 c -6.0496,-2.06346 -11.53871,-8.18357 -13.34016,-14.87368 -1.60352,-5.95498 -0.472,-10.20928 3.71943,-13.98442 2.64257,-2.38014 9.6388,-2.46442 194.48634,-2.34311 105.45984,0.0692 192.11335,0.13027 192.56335,0.13561 0.45,0.005 2.4,1.59158 4.33334,3.52491 6.44016,6.44017 3.36608,19.06881 -5.79495,23.80616 -2.25207,1.1646 -9.0286,2.69743 -15.05896,3.40628 -17.31099,2.03489 -355.0045,2.34203 -360.90839,0.32825 z m 32.95758,-62.41789 c -13.7985,-3.43168 -26.4621,-11.55559 -32.07142,-20.57433 l -2.94204,-4.73028 -0.66667,-221.33333 c -0.36666,-121.73333 -0.36666,-227.23613 0,-234.45065 0.6199,-12.19693 0.91888,-13.33413 4.26127,-16.20738 1.97704,-1.69955 6.77704,-3.79284 10.66667,-4.65176 8.80139,-1.94358 278.43243,-1.92775 285.21243,0.0167 2.38634,0.6844 4.8218,2.00532 5.41213,2.93539 2.20797,3.47867 0.98148,11.71625 -3.15916,21.21808 -4.2126,9.66696 -4.274,10.10939 -4.32105,31.13961 -0.0544,24.2912 1.03989,27.94052 11.1044,37.0332 10.52037,9.50453 14.3763,10.67311 38.8233,11.76573 12.1,0.54079 26.35,0.64423 31.66667,0.22986 8.34945,-0.65076 9.66667,-1.09915 9.66667,-3.29066 0,-4.07224 -3.42407,-9.57417 -9.2134,-14.80449 -6.3843,-5.76783 -7.08947,-5.94584 -26.55115,-6.7022 -14.41209,-0.56011 -15.2826,-0.76039 -19.16423,-4.40909 -5.93842,-5.58207 -7.73789,-10.96732 -7.73789,-23.15714 0,-8.8277 -0.59703,-11.93198 -3.33333,-17.33182 -3.46992,-6.84755 -4.17408,-15.01824 -2.24071,-26 0.80795,-4.58923 1.46463,-5.39377 4.70669,-5.76651 5.0697,-0.58285 10.495,3.22371 28.20068,19.78647 8.06667,7.54595 23.87862,21.81364 35.13767,31.70597 12.69765,11.15629 22.15347,20.61615 24.90172,24.91236 9.31645,14.56397 8.73419,0.67107 8.32752,198.69504 l -0.36691,178.66666 -4.37589,8 c -10.97568,20.06573 -19.68377,27.45954 -40.29077,34.20982 l -12.66667,4.14926 -160.66666,0.42444 c -135.75732,0.35864 -161.8532,0.12933 -168.31987,-1.47891 z m 297.53856,-79.19096 c 13.65256,-1.93858 19.22822,-13.76098 10.89092,-23.09261 l -3.8904,-4.35437 -131.77627,-0.3547 c -96.70709,-0.26029 -132.75926,0.0519 -135.46994,1.17295 -8.29921,3.43241 -13.04015,14.37776 -8.59727,19.84841 5.08619,6.26276 -0.31989,5.95707 118.16208,6.68179 61.3042,0.37499 118.66218,0.78119 127.46218,0.90267 8.8,0.12146 19.24842,-0.24039 23.2187,-0.80414 z m 6.34457,-55.8015 c 8.76049,-4.92562 10.94183,-14.83116 4.77007,-21.66111 l -3.66667,-4.05769 -134.66666,-0.0355 -134.66667,-0.0355 -4.33333,4.71923 c -6.87865,7.49121 -5.29591,16.4174 3.72805,21.02504 4.81475,2.45841 264.46553,2.50235 268.83521,0.0455 z m 0.95023,-56.42988 c 4.13101,-3.24944 7.4865,-9.20284 7.4865,-13.28272 0,-1.57641 -2.04,-4.90621 -4.53333,-7.39955 l -4.53333,-4.53333 H 538.73377 c -114.67833,0 -132.71018,0.26407 -136.05239,1.99239 -9.21794,4.76678 -10.74842,14.20725 -3.48139,21.47428 l 4.53333,4.53333 h 132.62019 c 132.47038,0 132.62418,-0.003 136.15997,-2.7844 z m -2.69454,-52.38736 c 10.27191,-4.29188 13.3499,-15.19784 6.2836,-22.26413 l -3.89742,-3.89744 h -134.8718 -134.8718 l -3.89742,3.89744 c -5.5262,5.52618 -5.45047,12.7823 0.18978,18.18644 l 4.08724,3.91612 122.24609,0.68053 c 67.23536,0.37429 126.31537,0.82429 131.28893,1 5.38699,0.19031 10.82164,-0.42377 13.4428,-1.51896 z m 4.93996,-59.10995 c 6.85007,-7.33882 7.0355,-12.19054 0.70775,-18.51829 l -4.53333,-4.53333 H 538.73377 c -142.98371,0 -136.90563,-0.29776 -141.98618,6.95572 -4.84679,6.91977 0.004,18.44989 8.70989,20.70146 2.14668,0.55522 62.43846,1.00948 133.98171,1.00948 h 130.07865 z m -4.93996,-48.89005 c 5.39654,-2.25481 10.18104,-8.08568 10.18104,-12.4076 0,-4.92077 -3.60364,-10.81385 -8.00426,-13.0895 -3.4844,-1.80187 -19.67799,-2.03752 -135.05213,-1.96534 -128.20247,0.0801 -131.18867,0.14019 -135.43187,2.72064 -2.38637,1.45124 -5.21081,4.72548 -6.27653,7.2761 -1.69465,4.05588 -1.69465,5.21905 0,9.27493 1.06572,2.55061 3.92377,5.84837 6.35123,7.32836 4.3468,2.65016 6.37589,2.69095 134.12306,2.69585 107.22293,0.004 130.47228,-0.31372 134.10946,-1.83344 z M 227.30299,601.03764 c -0.35322,-0.93737 -0.79089,-63.50432 -0.97261,-139.03765 l -0.33039,-137.33333 3.19528,-7.93256 c 8.45644,-20.99383 39.41912,-40.81879 67.13806,-42.98753 l 10.33333,-0.80848 v 132.65346 c 0,72.95941 0.39301,140.84834 0.87337,150.86429 l 0.87338,18.21081 -11.20671,0.0232 c -6.16369,0.0133 -15.40671,0.89952 -20.54004,1.97064 -11.53928,2.40778 -31.66669,12.19024 -41.41031,20.12651 -4.87796,3.97316 -7.52488,5.38781 -7.95336,4.25069 z m -1.9596,-342.70431 c 0.0133,-20.91578 1.72282,-31.15374 7.1736,-42.95124 8.28591,-17.93373 29.10067,-36.00356 51.36159,-44.58828 5.88613,-2.26993 13.03985,-4.12715 15.89717,-4.12715 5.1696,0 5.19928,0.0304 6.04302,6.1861 0.92632,6.7583 1.18826,55.14723 0.29852,55.14723 -3.27506,0 -23.63943,4.72447 -31.92316,7.40608 -23.43758,7.58719 -30.55115,12.82952 -42.87131,31.59392 -2.76853,4.21667 -5.24876,7.66667 -5.5116,7.66667 -0.26284,0 -0.47336,-7.35 -0.46783,-16.33333 z"
       id="path827" />
  </g>
</svg>
