<?xml version="1.0" encoding="UTF-8" standalone="no"?>
<!-- Created with Inkscape (http://www.inkscape.org/) -->

<svg
   version="1.1"
   id="svg2939"
   width="1958.4429"
   height="1053.1796"
   viewBox="0 0 1958.4429 1053.1795"
   sodipodi:docname="wfs-dbs.svg"
   inkscape:version="1.1.2 (0a00cf5339, 2022-02-04)"
   xmlns:inkscape="http://www.inkscape.org/namespaces/inkscape"
   xmlns:sodipodi="http://sodipodi.sourceforge.net/DTD/sodipodi-0.dtd"
   xmlns="http://www.w3.org/2000/svg"
   xmlns:svg="http://www.w3.org/2000/svg">
  <sodipodi:namedview
     id="namedview13"
     pagecolor="#ffffff"
     bordercolor="#666666"
     borderopacity="1.0"
     inkscape:pageshadow="2"
     inkscape:pageopacity="0.0"
     inkscape:pagecheckerboard="0"
     showgrid="false"
     inkscape:zoom="0.3413473"
     inkscape:cx="963.82775"
     inkscape:cy="666.47664"
     inkscape:window-width="1610"
     inkscape:window-height="986"
     inkscape:window-x="1150"
     inkscape:window-y="607"
     inkscape:window-maximized="1"
     inkscape:current-layer="svg2939" />
  <defs
     id="defs2943" />
  <g
     id="g2074"
     style="fill:#2979ad;fill-opacity:1">
    <g
       id="g2064"
       style="fill:#2979ad;fill-opacity:1">
      <path
         id="path2949"
         style="fill:#2979ad;fill-opacity:1;stroke-width:1.33086"
         d="m 1700.6152,638.76953 c -0.4171,0 -1.8013,2.92847 -3.0761,6.50781 -2.8342,7.95722 -11.8502,18.19475 -23.0332,26.15235 -28.1271,20.01491 -90.506,38.35179 -165.1895,48.56054 -25.1846,3.44256 -95.8872,4.9077 -127.2754,2.63672 -87.4872,-6.3298 -177.6595,-33.68542 -203.6211,-61.77148 -5.7892,-6.26291 -10.9139,-15.13261 -11.0039,-19.04297 -0.086,-3.72193 -10.1003,8.04928 -11.1035,13.05078 -0.4603,2.29576 -0.8342,32.65536 -0.8242,67.4668 l 0.014,63.29297 3.164,6.64648 c 1.7406,3.65474 6.0839,9.42806 9.6504,12.83008 7.6719,7.31817 26.2537,19.54341 38.0606,25.04101 9.7738,4.5509 45.0684,17.50751 60.0253,22.03516 24.1141,7.29961 84.1225,17.4526 116.9707,19.79102 50.5944,3.60173 108.5198,1.98544 144.5391,-4.03321 38.6771,-6.46275 86.345,-18.52598 113.4277,-28.70507 36.3235,-13.65229 64.8472,-36.4331 68.3985,-54.62696 0.8311,-4.25832 1.2541,-32.02445 1.0898,-71.66406 l -0.2695,-64.71484 -4.5918,-4.72657 c -2.5261,-2.59979 -4.9344,-4.72656 -5.3516,-4.72656 z" />
      <path
         id="path1607"
         style="fill:#2979ad;fill-opacity:1;stroke-width:1.33086"
         d="m 1700.1895,440.90039 c -0.1605,0.28174 -2.026,3.97395 -4.1465,8.20508 -15.1864,30.30356 -76.6958,55.07012 -170.7246,68.74219 -67.9636,9.88212 -125.734,9.63443 -192.5899,-0.82618 -66.3533,-10.38197 -124.0771,-29.43153 -147.498,-48.67773 -8.4795,-6.96806 -16.0915,-16.40572 -17.166,-21.28125 -0.443,-2.01011 -1.5533,-3.65625 -2.4668,-3.65625 -2.8676,0 -7.63,6.17445 -8.8692,11.5 -0.6543,2.81171 -1.198,33.22158 -1.209,67.57617 l -0.018,62.46289 3.1132,6.66797 c 5.0172,10.74389 20.8623,24.88999 41.0489,36.64649 36.5277,21.27359 121.4472,42.57022 185.041,46.40625 27.8438,1.67958 103.2799,0.45169 120.6133,-1.9629 81.0432,-11.28947 136.562,-27.92591 173.6855,-52.04492 14.2275,-9.24357 22.7252,-17.77632 27.6387,-27.75586 l 3.916,-7.95703 0.3809,-66.09179 c 0.3322,-57.7111 0.1176,-66.60144 -1.6934,-70.09375 -1.8507,-3.56863 -8.3089,-9.17319 -9.0566,-7.85938 z" />
      <path
         id="path1605"
         style="fill:#2979ad;fill-opacity:1;stroke-width:1.33086"
         d="m 1703.6094,241.37695 c -1.2032,-0.12154 -2.2279,1.57584 -3.4824,5.04883 -6.5563,18.15126 -33.2836,36.56399 -72.4961,49.94531 -34.9348,11.92161 -70.6532,19.48156 -114.9825,24.33399 -17.8761,1.95675 -33.0858,2.40997 -81.2968,2.41797 -54.0788,0.009 -61.4808,-0.26298 -83.9629,-3.07227 -44.8038,-5.59852 -67.7911,-10.42432 -100.5449,-21.10937 -30.1709,-9.84242 -42.7974,-15.26833 -56.5411,-24.29883 -13.2288,-8.69214 -21.1712,-16.77317 -26.1855,-26.64063 -3.9983,-7.86805 -5.6449,-7.51371 -7.4102,1.59571 -1.6162,8.33941 -1.5267,132.33161 0.1,137.98632 3.4316,11.93191 20.1498,28.57075 39.6114,39.42383 41.96,23.3996 113.4091,41.29045 182.291,45.64649 11.7281,0.74167 24.3212,1.57956 27.9863,1.86132 25.217,1.93858 94.7118,-1.82797 132.5938,-7.18554 19.0607,-2.69572 57.3087,-11.39426 73.9804,-16.82617 51.6015,-16.81265 83.4005,-36.78029 93.8438,-58.92774 l 3.4453,-7.31055 -0.1504,-66.49414 c -0.1303,-57.64994 -0.4285,-67.03215 -2.2441,-70.5332 -1.9699,-3.79872 -3.3516,-5.73978 -4.5547,-5.86133 z" />
      <path
         id="path1603"
         style="fill:#2979ad;fill-opacity:1;stroke-width:1.33086"
         d="m 1431.3516,147.89453 c -61.3103,-0.0426 -104.3823,4.07119 -151.5723,14.47656 -35.1621,7.7532 -74.8133,23.50455 -85.707,34.04688 -11.9469,11.56144 -13.1719,22.61267 -4.0645,36.66406 10.587,16.33423 27.2905,25.19665 72.086,38.24609 33.4526,9.74518 84.2493,17.18229 135.2539,19.80274 46.4035,2.38406 99.3662,0.33293 133.75,-5.17969 85.3999,-13.69182 133.9799,-33.14587 147.4003,-59.02539 3.4934,-6.73654 2.7082,-16.15051 -1.873,-22.45703 -13.2098,-18.18438 -53.4686,-34.60707 -112.666,-45.95703 -41.1199,-7.88394 -74.7576,-10.57699 -132.6074,-10.61719 z" />
      <path
         id="path1597"
         style="fill:#2979ad;fill-opacity:1;stroke-width:1.33086"
         d="m 978.51172,794.33398 c 21.52028,38.15897 48.52468,73.91493 78.34178,103.42774 31.3009,30.9815 54.0074,48.82563 94.6231,74.35742 32.8279,20.63619 69.3653,37.68146 111.9511,52.23046 43.3925,14.8247 87.2593,22.8162 147.9336,26.9473 13.8635,0.9439 60.6654,-0.5222 79.9629,-2.5039 40.1153,-4.1196 56.6172,-7.4051 97.957,-19.5098 35.0304,-10.2573 86.7861,-33.079 118.6133,-52.30078 77.0089,-46.50878 126.971,-96.48138 178.4805,-178.51953 12.5985,-20.06532 38.3786,-78.83739 48.5273,-110.62695 16.4742,-51.60448 25.8174,-126.7566 22.8692,-183.95899 -3.8968,-75.60464 -21.8852,-145.71325 -55.2461,-215.31836 C 1886.6323,255.3988 1865.8469,222.38419 1840.6309,190.25 1803.7443,143.24314 1750.1557,98.122629 1693.6621,66.503906 1656.8118,45.879291 1606.0856,26.11136 1562.6934,15.46875 1518.3581,4.594854 1490.859,1.6292258 1434.0176,1.5898438 c -72.3225,-0.05011 -108.2005,5.6176609 -177.9199,28.1093752 -23.6962,7.644455 -78.6328,33.107132 -100.4571,46.560547 -24.1386,14.879951 -55.1905,37.843824 -74.4023,55.023434 -34.2141,30.59497 -69.1137,72.16107 -93.16408,110.96094 -2.9602,4.77564 -7.00588,12.08404 -11.33399,20.14844 3.02649,5.36018 6.02485,10.75582 8.90625,16.23828 3.4092,6.48667 6.7094,13.04288 9.88477,19.63086 3.17537,6.58797 6.22455,13.20677 9.13285,19.82031 0.4729,1.07538 0.8823,2.1419 1.3476,3.2168 22.3614,-47.17016 52.0985,-90.80561 88.8242,-128.83594 53.6852,-55.59218 137.429,-103.119813 216.5703,-122.912109 24.0947,-6.025795 60.6671,-12.255952 84.1016,-14.326172 24.9966,-2.208232 76.8993,-0.853392 105.8125,2.761719 82.3068,10.291098 169.1085,47.758132 232.4649,100.341792 69.1698,57.40871 119.5318,131.49368 149.0703,219.29297 10.1004,30.02201 16.4277,58.94066 21.2285,97.01758 3.1569,25.0384 3.1376,85.31776 -0.035,110.30664 -5.8837,46.34009 -15.184,81.42168 -32.6328,123.09571 -7.953,18.9942 -23.3489,50.54057 -27.8965,57.16015 -2.1926,3.19162 -5.3557,8.49394 -7.0293,11.78321 -4.1181,8.09283 -25.9815,38.90459 -38.8418,54.74023 -38.5474,47.46609 -86.3383,85.31304 -145.7304,115.4082 -49.2907,24.97657 -91.2032,37.9344 -152.8535,47.25196 -19.7227,2.98081 -28.2842,3.54206 -59.0508,3.87109 -19.7911,0.21171 -38.3825,0.14945 -41.3145,-0.13672 -53.2009,-5.19134 -91.2086,-13.51133 -134.6054,-29.46484 -45.0969,-16.57847 -81.7841,-36.87325 -127.2735,-70.40625 -17.8499,-13.15823 -59.9452,-54.49628 -73.4101,-72.08985 -22.9572,-29.99644 -41.2478,-59.18994 -56.0782,-89.31054 -3.9486,8.98509 -8.14357,17.94511 -12.66989,26.89648 -7.34827,14.53211 -11.17555,22.06354 -15.13672,28.98242 -0.25163,0.43952 -0.76001,1.17121 -1.01367,1.60742 z" />
    </g>
    <g
       id="g8"
       transform="matrix(1.1515771,0,0,1.1597081,2.7773,0.85543041)"
       style="fill:#2979ad;fill-opacity:1">
      <path
         style="fill:#2979ad;fill-opacity:1;stroke-width:1.33333"
         d="m 423.89651,905.69947 c -17.86299,-1.00638 -54.49144,-6.1334 -70.00004,-9.79818 -33.71888,-7.96797 -40.54893,-10.09489 -68.90011,-21.4558 C 193.45988,837.76486 123.08397,779.59045 67.303778,694.49559 34.575388,644.56714 13.659628,586.32279 3.1439283,515.82892 -0.21104172,493.33826 -0.97475172,433.09224 1.7876383,408.83607 9.1336783,344.33151 28.201778,284.35153 58.271528,231.16225 92.757578,170.16113 141.07046,115.8283 192.07291,80.688777 213.40776,65.989537 254.0673,44.296843 279.2298,34.188783 340.68943,9.4997638 387.1736,0.63724781 455.22981,0.63321781 c 38.5349,-0.0023 48.3163,0.77858399 83.0209,6.62774399 43.2596,7.2910192 80.0583,19.6988982 124.4165,41.9510512 71.4468,35.841164 132.8828,91.351727 174.5672,157.730527 26.2382,41.78196 48.2927,91.58367 58.7599,132.68675 12.0848,47.45554 15.9022,74.49196 15.9022,112.62867 0,76.07786 -15.1789,141.01097 -48.0546,205.57097 -12.7621,25.06166 -13.2885,25.97462 -26.9918,46.81545 -13.9057,21.1487 -29.6278,40.97398 -46.287,58.3672 -74.2805,77.55338 -169.3064,126.68027 -271.2836,140.24921 -14.2133,1.89121 -76.7296,3.48957 -95.383,2.43868 z m 79.374,-45.21744 c 26.2166,-2.8858 38.6688,-5.20602 61.4288,-11.44606 54.6697,-14.98864 106.191,-41.23041 149.8638,-76.33141 15.5523,-12.49976 50.1428,-47.11036 61.5066,-61.5423 30.532,-38.77555 53.0949,-79.39259 67.2801,-121.11592 17.8099,-52.38476 24.1651,-92.7552 22.808,-144.88409 -1.9084,-73.30098 -22.2688,-139.00449 -64.0425,-206.66667 -26.2628,-42.53873 -61.8419,-81.8506 -100.2188,-110.73328 -32.8521,-24.72462 -55.8931,-38.131463 -91.3334,-53.144013 -40.182,-17.021162 -74.4237,-25.460531 -116.824,-28.793026 -43.6096,-3.427531 -65.1686,-2.503638 -109.76172,4.703743 -28.44412,4.59729 -61.1754,14.422323 -95.81151,28.759983 -48.79385,20.19827 -100.387,58.186063 -137.54626,101.274663 -48.22866,55.92429 -78.589832,114.37711 -95.882942,184.5986 -12.45447,50.57342 -13.04426,124.35011 -1.42832,178.66667 9.73721,45.53151 30.77768,95.03963 57.798702,136.00001 43.91461,66.56889 101.47004,115.12257 176.2839,148.71292 23.82334,10.69633 39.51999,16.07774 65.95731,22.61267 48.17437,11.90803 98.20264,15.02056 149.92224,9.32751 z m -23.7061,-48.62814 c -6.5445,-5.14788 -7.5724,-10.69016 -8.536,-46.02341 l -0.8909,-32.66822 h -67.69069 c -40.7163,0 -71.77018,-0.5674 -77.92784,-1.42385 -23.85098,-3.31736 -50.56151,-12.97985 -67.95584,-24.58291 -50.88907,-33.94601 -78.04127,-71.53001 -84.76147,-117.32657 -2.26641,-15.44503 -2.33928,-55.97198 -0.12107,-67.33334 10.68146,-54.70893 46.70824,-99.05742 101.78243,-125.29274 17.5,-8.33634 33.43195,-12.92468 50.75535,-14.61732 8.57614,-0.83796 64.06353,-1.12774 148.75893,-0.77692 85.4741,0.35406 136.3302,0.0845 138.4831,-0.73404 l 3.4023,-1.29356 -1.1498,-20.30938 c -0.6324,-11.17015 -1.1498,-26.71678 -1.1498,-34.54804 0,-12.36539 0.3673,-14.73353 2.792,-18.00001 6.0569,-8.15958 19.5048,-12.22114 26.6452,-8.04741 3.8167,2.23096 35.9846,31.28811 58.1349,52.51308 10.0792,9.65819 22.6988,21.29347 28.0436,25.85618 22.8444,19.50196 44.9967,42.60037 49.6365,51.7567 4.0133,7.9198 4.513,17.244 1.1956,22.30699 -1.2203,1.86252 -17.2411,16.9914 -35.6018,33.61976 -18.3606,16.62836 -38.9829,35.33338 -45.8274,41.56671 -44.2524,40.30107 -51.5232,46.04195 -60.6335,47.87493 -11.9025,2.3948 -20.0602,-0.84478 -24.6946,-9.80673 -1.5637,-3.02399 -1.8377,-6.27436 -1.1803,-14.00315 0.4708,-5.53577 0.4539,-22.236 -0.038,-37.1116 l -0.8936,-27.04656 -138.7895,0.3799 -138.78947,0.37988 -10.66667,3.63254 c -36.4618,12.41712 -60.69591,42.91664 -57.38104,72.21616 2.66881,23.58918 17.81284,44.6131 40.04771,55.59682 17.88841,8.83661 21.29049,9.17377 92.66666,9.18332 34.83331,0.004 65.60621,-0.36713 68.38421,-0.82623 3.0877,-0.51028 5.6062,-1.87234 6.4797,-3.50444 1.0218,-1.90929 0.9455,-12.2086 -0.268,-36.15832 -1.6025,-31.62869 -1.562,-33.77244 0.7287,-38.59987 3.4138,-7.19402 11.0953,-11.92286 20.4626,-12.59702 6.8601,-0.49372 8.1128,-0.13702 13.7794,3.92364 3.4282,2.4567 18.1777,15.56673 32.7766,29.1334 14.5988,13.56667 33.6939,30.72925 42.4334,38.13909 8.7395,7.40983 24.6464,21.64094 35.3486,31.62468 22.8028,21.27204 27.8748,28.82431 27.8748,41.50595 v 7.56312 l -9,8.93832 c -18.3635,18.23762 -97.0106,90.60295 -110.0096,101.22283 -17.3181,14.14845 -21.8634,16.33935 -33.8982,16.33935 -7.3507,0 -10.1312,-0.57575 -12.7576,-2.64171 z M 142.10464,471.61694 c -1.3141,-30.36065 -1.0323,-88.19257 0.49599,-101.78802 4.08391,-36.32976 11.92235,-63.76259 26.09689,-91.33334 9.48675,-18.45257 16.45456,-28.33517 33.38614,-47.35229 13.23294,-14.86292 23.85444,-23.97468 42.70601,-36.63579 19.87184,-13.34635 42.07704,-23.00339 69.77347,-30.34448 12.45988,-3.30256 13.82912,-3.37595 83.87212,-4.49564 39.16295,-0.62604 71.56295,-1.49629 71.99995,-1.93389 0.437,-0.4376 0.5757,-16.9362 0.3081,-36.66357 l -0.4866,-35.867953 4.5491,-4.54909 c 7.2726,-7.27257 20.9686,-9.75171 28.0554,-5.07833 1.9973,1.3171 18.2244,17.06314 36.0603,34.991213 17.836,17.92807 39.0018,38.90271 47.0353,46.61031 24.8362,23.82876 52.6063,53.51127 52.6063,56.22902 0,1.40595 -0.8749,4.24812 -1.9442,6.31596 -2.561,4.95236 -37.0908,37.60661 -72.0558,68.14189 -15.4,13.44899 -33.658,29.78122 -40.5734,36.29386 -16.6302,15.66163 -22.3867,18.9944 -32.8186,19.00064 -9.1995,0.005 -13.9167,-2.37081 -18,-9.06763 -2.2346,-3.66494 -2.5996,-6.77846 -2.6091,-22.26089 -0.01,-9.9 -0.3926,-24.6 -0.8591,-32.66667 l -0.8481,-14.66667 -64.14582,0.10854 -64.14585,0.10853 -11.72879,3.57025 c -23.45729,7.14042 -40.41149,18.25324 -57.19177,37.48704 -12.87908,14.76219 -14.41384,19.20203 -15.57879,45.06711 l -0.83399,18.51704 -6.76694,2.28692 c -9.76079,3.2987 -25.73546,12.77522 -37.77942,22.41158 -13.68737,10.95125 -33.058,31.51761 -40.90812,43.43336 -7.6432,11.60164 -19.57102,36.05136 -22.72604,46.58397 -1.27828,4.2674 -2.71692,7.75891 -3.19697,7.75891 -0.48005,0 -1.26651,-9.0954 -1.74767,-20.21199 z"
         id="path827" />
    </g>
  </g>
</svg>
