<?xml version="1.0" encoding="UTF-8" standalone="no"?>
<!-- Created with Inkscape (http://www.inkscape.org/) -->

<svg
   version="1.1"
   id="svg2"
   width="95.68"
   height="69.440002"
   viewBox="0 0 95.68 69.440002"
   xmlns="http://www.w3.org/2000/svg"
   xmlns:svg="http://www.w3.org/2000/svg">
  <defs
     id="defs6" />
  <g
     id="g8">
    <path
       style="fill:#ffffff;stroke-width:0.32;fill-opacity:1"
       d="m 27.879731,68.821017 c -0.617997,-0.500423 -0.750279,-0.922986 -0.776355,-2.48 -0.01729,-1.032237 -0.233712,-2.345111 -0.480945,-2.917492 -0.413806,-0.958022 -0.396351,-1.093856 0.21973,-1.709936 0.427219,-0.427219 1.284095,-0.745212 2.369413,-0.879308 1.581118,-0.195351 1.746497,-0.29969 2.361797,-1.490061 0.941719,-1.821863 2.05721,-1.870903 5.074256,-0.223075 3.244301,1.771945 3.746125,1.898086 3.746125,0.941644 0,-1.533728 -1.002461,-3.745203 -2.029914,-4.47808 C 37.42851,54.917544 36.998498,54.862376 32.553752,54.83933 26.285012,54.806821 24.922611,54.334178 21.644226,51.054581 17.819316,47.228264 16.698013,43.963774 14.654181,30.704219 13.089598,20.553844 12.707299,19.03602 11.331786,17.513492 9.5826695,15.577429 8.8900983,15.344218 4.8896433,15.344218 c -3.1092245,0 -3.6131183,-0.07723 -4.17589121,-0.64 -0.84734075,-0.84734 -0.81308919,-1.258359 0.32000001,-3.84 0.528,-1.203 0.9631625,-2.5951364 0.9670278,-3.0936362 0.027796,-3.5848008 4.5894599,-7.22583727 9.6474051,-7.70038286 1.561959,-0.14654574 2.104197,-0.03463668 3.896844,0.80424397 4.864712,2.27647349 9.167898,6.07215159 14.742115,13.00346209 2.017283,2.508408 4.192598,4.961036 4.834038,5.450286 0.697066,0.531677 3.08738,1.515784 5.941543,2.44617 6.003414,1.956963 9.045904,3.216096 14.777757,6.11577 2.504297,1.266893 5.05727,2.490721 5.67327,2.719618 0.871715,0.323918 2.999869,0.368909 9.6,0.202951 12.050934,-0.303016 20.812413,-0.309645 21.863274,-0.01654 0.645014,0.179905 1.073932,0.63774 1.500156,1.601284 0.84466,1.909495 1.321309,6.142301 0.950381,8.439716 -0.391062,2.422125 -2.252483,6.176195 -3.686883,7.435613 -1.358723,1.192973 -2.253859,1.246227 -5.392429,0.320797 -3.604067,-1.062685 -13.104281,-4.158855 -13.466,-4.388637 -0.301805,-0.191725 -2.599091,-0.864064 -5.758041,-1.685184 -0.698247,-0.181501 -1.562247,-0.255216 -1.92,-0.163815 -0.357751,0.0914 -1.821879,1.308976 -3.253613,2.705719 -1.431738,1.396742 -3.015738,2.804304 -3.52,3.127913 -0.504266,0.32361 -1.532077,1.05184 -2.284026,1.618292 -0.751949,0.566451 -3.57575,2.129427 -6.27511,3.473283 -5.262442,2.619869 -5.614426,2.947802 -6.133434,5.714359 -0.282413,1.505398 0.228794,2.108723 1.786759,2.108723 1.753766,0 5.862646,0.836873 7.002227,1.426173 1.107622,0.572774 1.661209,1.994704 0.950051,2.440272 -0.243821,0.152757 -2.747312,0.198815 -5.563312,0.102345 l -5.12,-0.175402 -4.64,1.660314 c -4.70912,1.685047 -8.483132,2.866295 -9.157624,2.866295 -0.204311,0 -0.70669,-0.27144 -1.116397,-0.603203 z m 6.853627,-2.247891 c 5.83208,-2.269162 6.676644,-2.5041 9.980394,-2.776317 1.9424,-0.160045 3.061802,-0.07804 4.64,0.339936 2.834854,0.750787 3.04,0.751292 3.04,0.0075 0,-0.885415 -2.709178,-1.748042 -6.231267,-1.984096 -1.500803,-0.100598 -2.908733,-0.324956 -3.128733,-0.498588 -0.22,-0.173632 -0.4,-0.874061 -0.4,-1.556509 0,-0.869725 -0.13856,-1.240832 -0.463277,-1.240832 -0.333257,0 -0.490422,0.471491 -0.56,1.68 -0.09125,1.584832 -0.142041,1.67423 -0.896723,1.578166 -0.975101,-0.124121 -1.977645,-0.106761 -3.740307,0.06477 -0.737171,0.07174 -2.537171,-0.0065 -4,-0.17383 -3.293178,-0.376727 -5.381705,-0.131728 -5.374793,0.630502 0.01179,1.299597 0.365655,1.386746 3.540299,0.871895 4.699137,-0.762087 8.806622,-0.601136 7.366884,0.288672 -0.158355,0.09787 -1.706355,0.322 -3.44,0.498073 -6.465763,0.656679 -6.93875,0.830135 -6.93875,2.544612 0,1.010953 0.486571,1.602435 1.326274,1.612243 0.230785,0.0026 2.606785,-0.846093 5.279999,-1.886195 z m 1.536919,-6.443591 c -2.76657,-1.279821 -4.211144,-1.229661 -3.690112,0.128128 0.193769,0.504947 1.273379,0.708166 4.133587,0.77808 l 1.6,0.03911 z m 7.323475,-3.91224 c 0.399648,-0.860141 1.177466,-1.381261 4.646531,-3.113075 2.291591,-1.144001 5.287735,-2.859617 6.658096,-3.812477 2.974291,-2.068135 9.618752,-7.69081 9.375677,-7.933885 -0.09427,-0.09427 -1.299459,0.489926 -2.678192,1.298224 -5.152362,3.020621 -16.122758,7.871005 -20.805936,9.199011 -3.633286,1.030285 -7.360746,0.983578 -9.776759,-0.122509 -2.606861,-1.193462 -5.089016,-3.794809 -6.544397,-6.858659 -1.539032,-3.239949 -1.710864,-5.554637 -0.709175,-9.553037 0.551034,-2.199539 0.667193,-3.330042 0.512823,-4.990994 -0.212035,-2.281419 0.172034,-3.104517 0.951322,-2.038777 0.803849,1.099328 0.865429,3.69092 0.157305,6.62019 -0.367012,1.518208 -0.667295,3.48153 -0.667295,4.362938 0,3.785485 2.500884,8.51071 5.585914,10.55415 2.171283,1.438199 4.429801,1.875188 7.34736,1.421604 3.105372,-0.482781 4.368636,-0.932004 11.629232,-4.135399 5.18719,-2.288608 6.19351,-2.842464 6.358428,-3.499552 0.10776,-0.429347 0.114285,-0.862275 0.0145,-0.962061 -0.09978,-0.09979 -1.737081,0.144013 -3.638432,0.541773 -5.11112,1.069245 -5.537002,1.108838 -5.537002,0.514755 0,-0.56752 4.141341,-1.966761 6.881152,-2.324947 2.35743,-0.308198 2.718848,-0.578406 2.718848,-2.032723 0,-0.687421 -0.139414,-1.336016 -0.309808,-1.441325 -0.170394,-0.105312 -1.574394,0.02973 -3.12,0.30009 -3.77527,0.660377 -4.645987,0.647564 -4.512115,-0.06639 0.08302,-0.442768 0.90855,-0.719347 3.943465,-1.321181 2.111152,-0.418646 3.944253,-0.922646 4.073559,-1.12 0.129305,-0.19735 0.237305,-0.842845 0.24,-1.434432 0.0047,-1.037177 -0.03226,-1.069289 -1.035101,-0.898646 -2.581946,0.43935 -7.92,0.604182 -7.92,0.244563 0,-0.553453 1.11825,-0.863168 4.64,-1.285117 4.003053,-0.479613 4.32,-0.574147 4.32,-1.288508 0,-0.50416 -0.492739,-0.633728 -3.76,-0.988713 -4.051616,-0.440204 -5.2,-0.726285 -5.2,-1.295407 0,-0.263649 1.075078,-0.300901 3.92,-0.135828 2.631242,0.152675 3.814794,0.121504 3.6,-0.09481 -0.829882,-0.835758 -10.049878,-4.772021 -14.753504,-6.298665 -2.891382,-0.938449 -5.776861,-2.01296 -6.41217,-2.387803 -1.045529,-0.616876 -1.206796,-0.634758 -1.699916,-0.188492 -0.299642,0.271172 -0.848967,0.493041 -1.220722,0.493041 -0.371754,0 -0.764914,0.144 -0.873688,0.32 -0.108774,0.176 -0.553792,0.32 -0.988929,0.32 -0.435136,0 -0.874044,0.216 -0.975351,0.48 -0.101306,0.264 -0.454043,0.48 -0.78386,0.48 -0.373323,0 -0.675718,0.303011 -0.801153,0.802785 -0.120419,0.479789 -0.502347,0.878297 -0.949254,0.990464 -0.411272,0.103222 -0.971633,0.529339 -1.245247,0.946927 -0.327418,0.499704 -0.677165,0.690297 -1.023117,0.557543 -0.318128,-0.122077 -0.690794,0.02416 -0.943989,0.370423 -0.230094,0.314672 -0.627811,0.491753 -0.883817,0.393514 -0.304037,-0.11667 -0.600282,0.14686 -0.854197,0.759864 -0.438934,1.059681 -0.443081,1.061615 -1.296871,0.60468 -0.482803,-0.258388 -0.666519,-0.222242 -0.813199,0.16 -0.104219,0.27159 -0.459339,0.4938 -0.789156,0.4938 -0.372768,0 -0.67564,0.3027 -0.800454,0.8 -0.110433,0.44 -0.398969,0.8 -0.64119,0.8 -0.472072,0 -0.434802,1.115252 0.224572,6.72 0.647468,5.503552 2.434153,10.119402 5.264234,13.6 2.978791,3.663492 3.199099,3.751857 10.060978,4.035383 6.730074,0.278077 7.877952,0.554355 8.501251,2.046122 0.357031,0.854492 0.666115,1.104064 1.494439,1.206688 0.574371,0.07116 1.11631,0.149312 1.20431,0.17367 0.088,0.02435 0.376,-0.420598 0.64,-0.988787 z m 45.535376,-10.59906 c 1.157699,-1.743619 1.196624,-2.114016 0.222147,-2.114016 -0.508544,0 -2.237523,2.69162 -2.237523,3.483306 0,0.870042 0.962934,0.215805 2.015376,-1.36929 z m -3.032803,-0.23016 c 0.584416,-0.893555 0.992512,-1.807219 0.906883,-2.030361 -0.169574,-0.441908 -5.791242,-2.057687 -10.129456,-2.911412 -1.496,-0.294403 -3.676928,-0.88007 -4.846506,-1.301488 -1.217721,-0.438764 -2.38014,-0.673363 -2.72,-0.548947 -0.938371,0.343517 -3.994499,2.094013 -3.871174,2.217341 0.0613,0.0613 2.767853,0.902784 6.014566,1.869968 3.246714,0.967184 7.487114,2.332147 9.423114,3.033255 1.936,0.701104 3.664,1.279584 3.84,1.28551 0.176,0.0059 0.798157,-0.72031 1.382573,-1.613866 z m 5.351651,-4.605421 c 0.615178,-2.116144 0.523286,-2.846304 -0.374416,-2.975046 -0.585238,-0.08393 -0.744458,0.185257 -1.213117,2.050989 -0.437891,1.743257 -0.461062,2.197325 -0.123075,2.411712 0.852765,0.540905 1.21161,0.228829 1.710608,-1.487655 z m -3.26,0.325463 c 0.100483,-0.261856 0.276442,-1.182781 0.391018,-2.046496 0.242496,-1.828013 0.680208,-1.623117 -5.145242,-2.408535 -5.169152,-0.696937 -6.176077,-0.751741 -8.558579,-0.465821 -2.025331,0.243056 -4.340295,1.084746 -3.978509,1.446535 0.179872,0.179869 15.74616,3.852736 16.582851,3.912723 0.289171,0.02074 0.607978,-0.17655 0.708461,-0.438406 z M 62.873752,39.608446 c 0.37041,-0.189667 0.56,-0.662112 0.56,-1.395484 v -1.108743 h -1.6 c -1.531062,0 -1.600189,0.03792 -1.604368,0.88 -0.0026,0.484 -0.08947,1.197392 -0.193485,1.585315 -0.176701,0.659028 -0.108163,0.692858 1.044371,0.515485 0.678416,-0.104403 1.485482,-0.318864 1.793482,-0.476573 z m 4.861709,-1.895837 c 0.626061,-0.369382 1.138291,-0.729382 1.138291,-0.8 0,-0.07061 -0.576,-0.12839 -1.28,-0.12839 -1.152,0 -1.28,0.08 -1.28,0.8 0,0.967559 -6.4e-4,0.967514 1.421709,0.12839 z m 24.575056,-2.756208 c -0.213264,-0.608646 -1.397421,-0.861129 -1.718547,-0.366425 -0.493082,0.759593 -0.160032,1.677971 0.681782,1.880009 0.626054,0.150256 0.840515,0.04874 0.986326,-0.46688 0.10248,-0.362387 0.125178,-0.833404 0.05044,-1.046704 z M 63.54459,35.162184 c 0.06605,-0.07588 0.21384,-0.749965 0.328413,-1.497965 l 0.208314,-1.36 -1.203783,0.0044 c -2.345929,0.0085 -2.643782,0.22209 -2.643782,1.8956 v 1.505309 l 1.59537,-0.204666 c 0.877452,-0.112569 1.649414,-0.266752 1.715468,-0.34263 z m 25.489162,-0.100643 c 0,-0.514029 -0.234736,-0.832618 -0.72,-0.977207 -0.396,-0.11799 -3.564,-0.299613 -7.04,-0.403606 -5.728125,-0.171373 -6.32,-0.139792 -6.32,0.337206 0,0.289456 0.18,0.535895 0.4,0.547642 0.22,0.01174 2.92,0.282102 6,0.60079 7.848864,0.812125 7.68,0.814429 7.68,-0.104825 z m -16.16,-1.219124 c 0,-0.502323 -5.320502,-2.033925 -6.068442,-1.746912 -0.400883,0.153831 -0.504828,0.532244 -0.430099,1.565786 l 0.09854,1.362928 2.24,0.166029 c 2.332262,0.17287 4.16,-0.419315 4.16,-1.347831 z m 18.5424,-1.298198 c -0.467715,-1.525655 -1.4224,-2.051859 -1.4224,-0.784 0,0.824419 0.544733,1.504 1.205565,1.504 0.305837,0 0.371113,-0.216752 0.216835,-0.72 z m -2.762464,-0.657713 c -0.09832,-0.690955 -0.177392,-0.701176 -4.899936,-0.633463 -4.425123,0.06345 -8.749747,0.514871 -9.653158,1.007637 -0.205239,0.111945 3.007734,0.231568 7.139936,0.265827 l 7.513091,0.06229 z M 16.437439,25.560838 c 0.351445,-0.188088 1.139692,-0.29884 1.751658,-0.246116 0.913167,0.07867 1.185059,-0.04636 1.516417,-0.697321 0.222062,-0.43625 0.631374,-0.754633 0.909583,-0.707516 0.278208,0.04712 0.59556,-0.148158 0.705226,-0.433942 0.142993,-0.372634 0.42628,-0.462664 1.001525,-0.318286 0.659551,0.165536 0.858149,0.05399 1.117267,-0.627543 0.232336,-0.611091 0.472273,-0.778992 0.913217,-0.639041 0.47261,0.15 0.638936,-0.01443 0.792808,-0.783796 0.129038,-0.645187 0.466931,-1.077112 1.001668,-1.280418 0.443819,-0.16874 0.806944,-0.469975 0.806944,-0.669411 0,-0.217746 0.291703,-0.289398 0.730164,-0.179351 0.515339,0.129342 0.847007,-0.0038 1.127302,-0.45266 0.316525,-0.506838 0.522839,-0.568647 1.0164,-0.304501 0.499372,0.267255 0.688219,0.202571 0.975441,-0.334108 0.403495,-0.753937 0.339471,-0.876323 -2.501934,-4.78261 C 25.946364,9.8669553 24.178405,8.0552503 20.450722,5.0595654 16.391491,1.7974387 15.19616,1.198437 12.393752,1.0220711 7.4361076,0.71006841 2.9537521,4.0158389 2.9537521,7.9841418 c 0,1.1005475 0.2008832,1.5023258 1.28,2.5600762 0.704,0.690061 1.28,1.451258 1.28,1.691548 0,0.671448 1.2807408,1.663138 2.9335306,2.271461 1.8239813,0.671332 4.1666413,2.679663 5.2175883,4.47297 0.882538,1.505936 1.735577,4.773276 1.807729,6.924022 0.02657,0.792 0.110755,1.115684 0.187078,0.719298 0.07632,-0.396386 0.426317,-0.874591 0.777761,-1.062679 z M 4.7937521,10.198587 C 3.5186871,9.4559293 4.5556254,5.7166364 5.894194,6.2302934 6.4427582,6.4407971 7.1137521,7.9502723 7.1137521,8.973824 c 0,0.3157568 -0.320041,0.7982689 -0.7112019,1.072249 -0.827081,0.57931 -0.8691811,0.583301 -1.6087981,0.152514 z M 4.2310772,14.392643 C 4.5687911,14.179134 4.6086977,13.991164 4.3675159,13.749982 4.1263342,13.5088 3.8552225,13.598499 3.440595,14.056657 2.9971063,14.546706 2.9639191,14.703026 3.3041559,14.699318 3.551434,14.69663 3.9685483,14.55862 4.2310772,14.392643 Z M 2.7666927,12.967798 4.0196334,11.895407 2.949888,11.34222 c -1.0201716,-0.527551 -1.0893569,-0.526366 -1.4929406,0.02557 -0.4478027,0.612407 -0.59059678,2.704812 -0.1831953,2.684416 0.132,-0.0066 0.8038233,-0.49459 1.4929406,-1.084405 z"
       id="path827" />
  </g>
</svg>
