<?xml version="1.0" encoding="UTF-8" standalone="no"?>
<svg
   viewBox="0 0 36 36"
   version="1.1"
   id="svg713"
   sodipodi:docname="mask-icon.svg"
   xmlns:inkscape="http://www.inkscape.org/namespaces/inkscape"
   xmlns:sodipodi="http://sodipodi.sourceforge.net/DTD/sodipodi-0.dtd"
   xmlns="http://www.w3.org/2000/svg"
   xmlns:svg="http://www.w3.org/2000/svg">
  <defs
     id="defs717" />
  <sodipodi:namedview
     id="namedview715"
     pagecolor="#ffffff"
     bordercolor="#000000"
     borderopacity="0.25"
     inkscape:showpageshadow="2"
     inkscape:pageopacity="0.0"
     inkscape:pagecheckerboard="0"
     inkscape:deskcolor="#d1d1d1"
     showgrid="false" />
  <path
     fill="#E1E8ED"
     d="M32.415 9.586l-9-9C23.054.225 22.553 0 22 0c-1.104 0-1.999.896-2 2 0 .552.224 1.053.586 1.415l-3.859 3.859 9 9 3.859-3.859c.362.361.862.585 1.414.585 1.104 0 2.001-.896 2-2 0-.552-.224-1.052-.585-1.414z"
     id="path707" />
  <path
     fill="#ccd6dd"
     d="M 22,-5.0000001e-8 H 7 C 4.791,-5.0000001e-8 3,1.7909999 3,3.9999999 V 32 c 0,2.209 1.791,4 4,4 h 22 c 2.209,0 4,-1.791 4,-4 V 11 h -9 c -1,0 -2,-1 -2,-2 z"
     id="path709" />
  <path
     fill="#99AAB5"
     d="M22 0h-2v9c0 2.209 1.791 4 4 4h9v-2h-9c-1 0-2-1-2-2V0zm-5 8c0 .552-.448 1-1 1H8c-.552 0-1-.448-1-1s.448-1 1-1h8c.552 0 1 .448 1 1zm0 4c0 .552-.448 1-1 1H8c-.552 0-1-.448-1-1s.448-1 1-1h8c.552 0 1 .448 1 1zm12 4c0 .552-.447 1-1 1H8c-.552 0-1-.448-1-1s.448-1 1-1h20c.553 0 1 .448 1 1zm0 4c0 .553-.447 1-1 1H8c-.552 0-1-.447-1-1 0-.553.448-1 1-1h20c.553 0 1 .447 1 1zm0 4c0 .553-.447 1-1 1H8c-.552 0-1-.447-1-1 0-.553.448-1 1-1h20c.553 0 1 .447 1 1zm0 4c0 .553-.447 1-1 1H8c-.552 0-1-.447-1-1 0-.553.448-1 1-1h20c.553 0 1 .447 1 1z"
     id="path711" />
</svg>
