<?xml version="1.0" encoding="UTF-8" standalone="no"?>
<!-- Created with Inkscape (http://www.inkscape.org/) -->

<svg
   version="1.1"
   id="svg2"
   width="702"
   height="97"
   viewBox="0 0 702 97"
   xmlns="http://www.w3.org/2000/svg"
   xmlns:svg="http://www.w3.org/2000/svg">
  <defs
     id="defs6" />
  <g
     id="g8">
    <path
       style="fill:#ffffff;fill-opacity:1"
       d="M 35.683508,94.970427 C 21.926871,91.474482 10.609421,82.726097 4.9793536,71.236125 0.9885926,63.091687 -0.4368394,55.064316 0.1688916,44.145823 c 0.423645,-7.63636 0.994445,-9.83379 4.282616,-16.486951 4.798111,-9.708319 11.6905414,-16.691779 21.1305884,-21.4096589 12.484264,-6.23929002 28.761683,-7.3683 41.965441,-2.91074 5.609439,1.89374 5.693541,1.89264 11.253003,-0.14661 4.415895,-1.61978 8.140925,-2.07351 17.601325,-2.14396 12.197555,-0.0908 19.100755,1.04899 27.153665,4.48345 4.65068,1.98345 4.83606,2.45862 5.92044,15.1751419 l 0.66087,7.75 h -3.09181 c -2.43734,0 -3.42674,-0.647677 -4.67406,-3.059737 -2.4836,-4.802756 -8.44909,-10.889214 -12.9009,-13.162515 -4.96984,-2.5378299 -15.451425,-3.4378499 -21.374615,-1.83536 l -4.30642,1.16508 3.08994,3.519246 c 8.52501,9.709453 12.02289,19.211449 12.02289,32.660239 0,14.331279 -3.51482,23.891884 -12.27898,33.399875 l -3.9756,4.31302 4.79223,2.119832 c 5.66518,2.50598 11.79655,2.153118 19.156305,-1.102451 6.8158,-3.014953 10.56704,-6.19687 14.76918,-12.527663 3.118,-4.697465 4.13815,-5.554931 6.30217,-5.297142 2.52742,0.301078 2.57689,0.455463 2.34141,7.307576 -0.46728,13.597649 -0.46473,13.593392 -10.12833,16.908691 -6.99485,2.399732 -10.57814,2.984322 -20.478385,3.340915 -10.66713,0.384215 -12.83829,0.163394 -19.54719,-1.988078 l -7.547188,-2.420301 -5.452812,1.904238 c -7.338849,2.562881 -23.491138,3.220177 -31.171167,1.268467 z m 21.59062,-5.460053 C 63.702002,88.019037 63.78397,87.082439 58.01999,80.987879 50.000387,72.508332 45.901864,61.391058 45.901864,48.117373 c 0,-12.243755 4.172999,-22.655186 12.759859,-31.835234 l 4.399675,-4.703606 -4.257375,-2.1719499 c -2.341556,-1.19458 -6.764951,-2.38296 -9.829767,-2.64086 C 38.167684,5.8563831 28.005982,13.844943 24.160485,26.272931 21.950003,33.416832 21.737033,55.23373 23.79751,63.456495 28.727421,83.130338 41.598269,93.147344 57.274128,89.510374 Z M 74.950697,67.706495 c 3.248389,-10.757729 3.309125,-26.660348 0.141119,-36.949244 -1.219177,-3.959584 -2.598618,-7.435292 -3.065425,-7.723794 -0.466807,-0.288502 -1.907338,2.951157 -3.201182,7.199244 -3.323631,10.912508 -3.320386,26.545464 0.0078,37.473794 1.298122,4.2625 2.679116,7.75 3.068875,7.75 0.389759,0 1.761734,-3.4875 3.048833,-7.75 z M 293.90186,93.11701 c 0,-0.736717 1.125,-1.852069 2.5,-2.478561 l 2.5,-1.139076 V 68.431423 47.363474 l -2.99368,-1.703489 c -1.64652,-0.93692 -2.99652,-2.16268 -3,-2.723911 -0.005,-0.858535 12.93953,-5.520242 15.24368,-5.489565 0.4125,0.0055 0.75,1.115024 0.75,2.465627 0,2.445934 0.0163,2.449887 4.12573,1 12.38839,-4.370879 22.91307,2.745406 22.85231,15.451643 -0.067,14.006312 -12.44382,22.626525 -25.22804,17.570804 -1.58368,-0.626291 -1.75,0.115652 -1.75,7.806515 0,8.231164 0.0787,8.518325 2.5,9.126041 1.375,0.345103 2.5,1.293887 2.5,2.108408 0,1.209201 -1.83495,1.480948 -10,1.480948 -7.68963,0 -10,-0.309471 -10,-1.339485 z m 28.00338,-23.510052 c 9.37163,-9.371622 -0.0923,-29.989878 -11.06912,-24.115279 -1.72399,0.922653 -1.93426,2.177713 -1.93426,11.545454 0,9.82572 0.15987,10.67014 2.45455,12.964817 3.27762,3.277624 7.0162,3.137636 10.54883,-0.394992 z M 531.90186,93.11701 c 0,-0.736717 1.125,-1.852069 2.5,-2.478561 l 2.5,-1.139076 V 68.431423 47.363474 l -2.99368,-1.703489 c -1.64652,-0.93692 -2.99652,-2.16268 -3,-2.723911 -0.005,-0.858535 12.93953,-5.520242 15.24368,-5.489565 0.4125,0.0055 0.75,1.115024 0.75,2.465627 0,2.445934 0.0163,2.449887 4.12573,1 12.38839,-4.370879 22.91307,2.745406 22.85231,15.451643 -0.067,14.006312 -12.44382,22.626525 -25.22804,17.570804 -1.58368,-0.626291 -1.75,0.115652 -1.75,7.806515 0,8.231164 0.0787,8.518325 2.5,9.126041 1.375,0.345103 2.5,1.293887 2.5,2.108408 0,1.209201 -1.83495,1.480948 -10,1.480948 -7.68963,0 -10,-0.309471 -10,-1.339485 z m 28.00338,-23.510052 c 9.37163,-9.371622 -0.0923,-29.989878 -11.06912,-24.115279 -1.72399,0.922653 -1.93426,2.177713 -1.93426,11.545454 0,9.82572 0.15987,10.67014 2.45455,12.964817 3.27762,3.277624 7.0162,3.137636 10.54883,-0.394992 z M 249.73849,73.881844 C 235.40871,69.47125 227.5064,48.935736 234.71022,34.828282 c 10.40205,-20.37064 42.99237,-20.364003 53.38686,0.01087 2.96817,5.818093 3.44991,14.150762 1.22879,21.254273 -2.499,7.992217 -9.90829,15.538497 -17.45764,17.780414 -6.50419,1.931535 -15.86928,1.934922 -22.12974,0.008 z m 17.49218,-3.789375 c 7.54401,-3.152087 11.28624,-12.150558 10.45295,-25.134904 -0.64578,-10.062622 -3.76425,-16.220542 -9.78176,-19.315637 -5.11823,-2.632554 -11.26663,-2.551201 -15.47271,0.204729 -6.3711,4.174506 -9.21988,18.402658 -6.12874,30.609838 1.95076,7.703716 4.0311,10.881724 8.67253,13.248446 4.12327,2.102504 7.86974,2.220949 12.25773,0.387528 z m 82.67119,4.642494 c -8.51916,-3.201144 -13.3652,-14.888245 -9.93638,-23.963368 5.71951,-15.137933 28.50854,-14.704277 31.56955,0.600742 l 0.61683,3.084158 h -11.625 c -12.94773,0 -12.64331,-0.206556 -10.59017,7.185724 1.23157,4.434221 6.10479,8.814276 9.8067,8.814276 1.47845,0 4.34857,-0.889964 6.37805,-1.977699 3.95344,-2.118922 5.98073,-1.177188 3.61651,1.679982 -3.2764,3.959553 -14.55347,6.561172 -19.83609,4.576185 z m 11.54536,-26.028468 c -1.65999,-6.798567 -8.01245,-8.114996 -11.02717,-2.285173 -2.40958,4.659615 -2.02992,5.035173 5.09022,5.035173 h 6.60841 z m 78.16812,25.391157 c -5.39821,-1.523116 -11.12729,-5.731361 -14.45302,-10.616351 -6.72229,-9.873992 -5.35527,-25.627152 3.01153,-34.704059 6.98053,-7.572971 10.36572,-8.82641 23.72801,-8.785778 6.91912,0.02104 12.34568,0.50591 13.62303,1.217234 1.95371,1.087971 4.37697,7.560349 4.37697,11.690617 0,2.7962 -2.95061,1.643416 -7.26682,-2.839099 -7.47383,-7.76179 -16.86988,-8.628868 -22.61386,-2.086832 -8.35242,9.51287 -8.14213,31.865844 0.37009,39.339669 6.86903,6.031093 15.11585,5.178131 22.47967,-2.325056 2.44604,-2.492326 5.25364,-4.531502 6.23913,-4.531502 2.11557,0 2.06926,-0.392243 0.70478,5.970091 -0.89188,4.158708 -1.65379,5.361633 -4.24454,6.701359 -4.24741,2.196421 -19.57735,2.769165 -25.95497,0.969707 z m 38.28652,-0.641157 c -4.74361,-4.743614 -0.88759,-10.912018 9.94173,-15.903572 6.69622,-3.086491 7.05827,-3.425533 7.05827,-6.609799 0,-5.40553 -1.59882,-8.486629 -4.40382,-8.486629 -3.10781,0 -5.52505,2.39434 -6.29282,6.233206 -0.43429,2.171447 -1.50914,3.372654 -3.91878,4.379464 -4.33305,1.810467 -4.38458,1.798293 -4.38458,-1.035945 0,-7.917263 15.79893,-15.359244 24.34268,-11.466453 3.73824,1.703259 4.65732,5.03392 4.65732,16.877764 0,7.348546 0.3876,11.13348 1.19098,11.629998 0.65504,0.404837 1.36754,0.206395 1.58334,-0.440983 0.54572,-1.637184 3.22568,-1.480915 3.22568,0.18809 0,0.750828 -0.93266,2.550828 -2.07258,4 -2.92685,3.720891 -7.20662,3.547468 -10.84823,-0.439587 -2.32836,-2.549223 -2.91425,-2.797762 -3.42958,-1.454847 -1.60992,4.195407 -13.2198,5.959099 -16.64961,2.529293 z m 15.4433,-5.222506 c 1.67395,-2.389899 2.16261,-10.777494 0.6279,-10.777494 -1.78388,0 -8.0712,6.752278 -8.0712,8.668077 0,4.412431 4.86458,5.791045 7.4433,2.109417 z m 130.5567,5.222506 c -4.74361,-4.743614 -0.88759,-10.912018 9.94173,-15.903572 6.69622,-3.086491 7.05827,-3.425533 7.05827,-6.609799 0,-5.40553 -1.59882,-8.486629 -4.40382,-8.486629 -3.10781,0 -5.52505,2.39434 -6.29282,6.233206 -0.43429,2.171447 -1.50914,3.372654 -3.91878,4.379464 -4.33305,1.810467 -4.38458,1.798293 -4.38458,-1.035945 0,-7.917263 15.79893,-15.359244 24.34268,-11.466453 3.73824,1.703259 4.65732,5.03392 4.65732,16.877764 0,7.348546 0.3876,11.13348 1.19098,11.629998 0.65504,0.404837 1.36754,0.206395 1.58334,-0.440983 0.54572,-1.637184 3.22568,-1.480915 3.22568,0.18809 0,0.750828 -0.93266,2.550828 -2.07258,4 -2.92685,3.720891 -7.20662,3.547468 -10.84823,-0.439587 -2.32836,-2.549223 -2.91425,-2.797762 -3.42958,-1.454847 -1.60992,4.195407 -13.2198,5.959099 -16.64961,2.529293 z m 15,-5 c 1.40741,-1.407407 2,-3.333333 2,-6.5 0,-2.475 -0.41796,-4.5 -0.9288,-4.5 -1.78388,0 -8.0712,6.752278 -8.0712,8.668077 0,2.221082 1.80292,4.331923 3.7,4.331923 0.715,0 2.2,-0.9 3.3,-2 z m 28.5,5.13944 c -6.25792,-3.865483 -9.05105,-10.052805 -8.25904,-18.29539 1.10043,-11.452384 14.38411,-19.418035 24.00904,-14.397192 l 2.75,1.434536 V 36.46862 c 0,-5.987794 -1.5341,-9.012125 -4.57143,-9.012125 -0.78571,0 -1.42857,-0.601222 -1.42857,-1.336049 0,-0.782303 2.59041,-2.073996 6.25,-3.116527 3.4375,-0.979263 7.02939,-2.003403 7.98197,-2.275867 1.60367,-0.458692 1.75182,1.309249 2,23.866527 l 0.26803,24.361916 2.75,0.316422 c 4.86709,0.560021 3.13166,2.898666 -3,4.042759 -3.1625,0.590084 -6.7625,1.36565 -8,1.723481 -1.80254,0.521216 -2.25,0.251106 -2.25,-1.358231 0,-1.990827 -0.0333,-1.991872 -3.71144,-0.116632 -4.71082,2.401712 -10.93006,2.415018 -14.78856,0.03164 z m 16.27749,-4.696144 c 1.99596,-1.398023 2.22251,-2.410728 2.22251,-9.9349 0,-11.817797 -2.17316,-16.3991 -7.81574,-16.476593 -3.70426,-0.05087 -5.82903,1.623115 -7.56401,5.95926 -5.0573,12.639448 4.06549,26.820345 13.15724,20.452233 z m -308.77749,4.165112 c 0,-0.765376 1.125,-1.673949 2.5,-2.019052 2.4673,-0.619252 2.5,-0.764256 2.5,-11.085355 0,-10.051605 -0.0971,-10.521534 -2.5,-12.095958 -3.56384,-2.335118 -3.09605,-4.170456 1.36945,-5.37289 2.1282,-0.573065 5.01168,-1.94041 6.40773,-3.038544 3.74343,-2.944578 4.72282,-2.492977 4.72282,2.177705 v 4.174314 l 2.25,-2.107702 c 2.68273,-2.513063 6.92436,-4.240926 10.41081,-4.240926 2.97223,0 7.95511,2.730386 9.02829,4.947082 0.4135,0.854105 0.99011,7.177918 1.28136,14.052918 0.50907,12.016737 0.61653,12.512354 2.77954,12.819551 1.2375,0.175753 2.25,0.963253 2.25,1.75 0,1.145235 -1.99387,1.430449 -10,1.430449 -8.00613,0 -10,-0.285214 -10,-1.430449 0,-0.786747 1.0125,-1.574247 2.25,-1.75 2.15125,-0.305526 2.26109,-0.7804 2.50263,-10.819551 0.3607,-14.991139 -2.09358,-18.597122 -9.5364,-14.011498 l -3.28377,2.023178 0.28377,10.74416 c 0.26542,10.049311 0.42928,10.808 2.53377,11.731288 1.2375,0.542921 2.25,1.555421 2.25,2.25 0,0.932971 -2.61231,1.262872 -10,1.262872 -7.87599,0 -10,-0.295575 -10,-1.391592 z m 137,0 c 0,-0.765376 1.125,-1.673949 2.5,-2.019052 l 2.5,-0.62746 V 49.456495 28.494599 l -2.5,-0.62746 c -1.375,-0.345103 -2.5,-1.161947 -2.5,-1.815208 0,-1.047912 6.2495,-3.627414 12.75,-5.262606 l 2.25,-0.565984 v 25.097525 25.097525 l 2.5,0.62746 c 1.375,0.345103 2.5,1.253676 2.5,2.019052 0,1.096017 -2.12401,1.391592 -10,1.391592 -7.87599,0 -10,-0.295575 -10,-1.391592 z m 64,-0.03886 c 0,-0.786747 1.0125,-1.574247 2.25,-1.75 2.24074,-0.318236 2.25111,-0.404982 2.52033,-21.081729 l 0.27032,-20.762178 -2.52032,-1.148337 c -4.14949,-1.89063 -2.90617,-3.515308 4.38491,-5.729906 3.79788,-1.153567 7.17288,-2.097398 7.5,-2.097398 0.32712,0 0.59476,5.387339 0.59476,11.971865 v 11.971865 l 4.64894,-2.471865 c 5.2741,-2.804266 9.205,-3.115874 13.20603,-1.046861 4.24472,2.195029 5.14503,5.441462 5.14503,18.552498 0,11.431763 0.0825,11.895541 2.17167,12.202947 1.19442,0.175753 2.35692,0.882051 2.58334,1.569551 0.31107,0.944573 -2.05212,1.25 -9.67168,1.25 -8.0784,0 -10.08333,-0.284425 -10.08333,-1.430449 0,-0.786747 1.0125,-1.574247 2.25,-1.75 2.15514,-0.306079 2.26202,-0.7779 2.53507,-11.191556 0.22343,-8.521191 -0.0518,-11.38619 -1.27305,-13.25 -1.93277,-2.949776 -5.36527,-3.06787 -8.87716,-0.305415 -2.57185,2.023018 -2.63486,2.34585 -2.63486,13.5 v 11.42742 h 2.5 c 1.55556,0 2.5,0.566667 2.5,1.5 0,1.233333 -1.77778,1.5 -10,1.5 -8.00613,0 -10,-0.285214 -10,-1.430449 z"
       id="path827" />
  </g>
</svg>
