<?xml version="1.0" encoding="UTF-8" standalone="no"?>
<!-- Created with Inkscape (http://www.inkscape.org/) -->

<svg
   version="1.1"
   id="svg3191"
   width="1034.6667"
   height="1045.3333"
   viewBox="0 0 1034.6667 1045.3333"
   sodipodi:docname="about.svg"
   inkscape:version="1.1.2 (0a00cf5339, 2022-02-04)"
   xmlns:inkscape="http://www.inkscape.org/namespaces/inkscape"
   xmlns:sodipodi="http://sodipodi.sourceforge.net/DTD/sodipodi-0.dtd"
   xmlns="http://www.w3.org/2000/svg"
   xmlns:svg="http://www.w3.org/2000/svg">
  <sodipodi:namedview
     id="namedview6"
     pagecolor="#ffffff"
     bordercolor="#666666"
     borderopacity="1.0"
     inkscape:pageshadow="2"
     inkscape:pageopacity="0.0"
     inkscape:pagecheckerboard="0"
     showgrid="false"
     inkscape:zoom="0.68781893"
     inkscape:cx="517.57808"
     inkscape:cy="521.21276"
     inkscape:window-width="1610"
     inkscape:window-height="986"
     inkscape:window-x="1150"
     inkscape:window-y="607"
     inkscape:window-maximized="1"
     inkscape:current-layer="svg3191" />
  <defs
     id="defs3195">
    <filter
       style="color-interpolation-filters:sRGB;"
       inkscape:label="Invert"
       id="filter868"
       x="0"
       y="0"
       width="1"
       height="1">
      <feColorMatrix
         type="hueRotate"
         values="180"
         result="color1"
         id="feColorMatrix864" />
      <feColorMatrix
         values="-1 0 0 0 1 0 -1 0 0 1 0 0 -1 0 1 -0.21 -0.72 -0.07 2 0 "
         result="color2"
         id="feColorMatrix866" />
    </filter>
  </defs>
  <g
     id="g3197"
     style="fill:#2979ad;fill-opacity:1;filter:url(#filter868)">
    <path
       style="fill:#2979ad;fill-opacity:1;stroke-width:1.33333"
       d="m 489.36524,1044.896 c -0.36167,-0.3292 -6.95758,-0.98 -14.65758,-1.4462 -7.7,-0.4662 -15.5,-1.121 -17.33333,-1.4552 -1.83334,-0.3342 -9.93334,-1.4666 -18,-2.5166 -27.53984,-3.5846 -56.99564,-11.2228 -93.1141,-24.1452 -12.80553,-4.5816 -14.83425,-5.3983 -27.87137,-11.2204 -3.47535,-1.552 -6.71974,-2.8218 -7.20976,-2.8218 -1.66962,0 -42.44068,-20.89765 -51.13812,-26.21139 -4.76667,-2.91223 -9.56667,-5.69548 -10.66667,-6.18503 -7.67168,-3.4142 -51.65201,-35.17596 -66,-47.66396 -6.62604,-5.76707 -39.58659,-38.67113 -48.84087,-48.75716 -4.83493,-5.26948 -14.86127,-17.54264 -21.15913,-25.9007 -1.83334,-2.43307 -4.59288,-5.96682 -6.13233,-7.85276 -1.53946,-1.88595 -7.39121,-10.329 -13.00389,-18.76234 -5.61268,-8.43333 -11.85313,-17.71938 -13.86766,-20.63566 -5.23851,-7.58339 -18.099714,-29.80412 -26.256554,-45.36433 -6.14761,-11.72736 -25.39914,-58.08568 -26.72053,-64.34392 -0.26973,-1.27751 -2.34515,-8.28156 -4.61202,-15.56455 -2.26688,-7.283 -5.04822,-17.483 -6.18075,-22.66666 -1.13254,-5.18368 -2.58077,-11.22487 -3.21829,-13.42487 -3.32327,-11.46819 -8.2935201,-44.35869 -11.4847501,-76 -2.51144999,-24.90126 -1.01561999,-83.19444 2.75422,-107.33333 0.17179,-1.1 0.77548,-5.6 1.34154,-10 0.8197,-6.37158 9.7886701,-50.63354 12.0229301,-59.33333 4.57349,-17.80827 18.78505,-59.00748 24.60625,-71.33333 2.078,-4.4 5.33724,-11.3 7.24273,-15.33333 3.11488,-6.59322 6.87171,-13.70531 19.72061,-37.33334 2.193324,-4.03333 5.593004,-9.87486 7.554844,-12.98118 1.96184,-3.10632 6.82864,-10.90632 10.81511,-17.33333 16.63175,-26.81382 44.30691,-60.40251 72.28902,-87.73549 42.37055,-41.38762 96.57625,-77.367802 152.46287,-101.200442 8.06666,-3.440001 15.86666,-6.779725 17.33333,-7.421609 8.1752,-3.577861 50,-17.48867 50,-16.629859 0,0.270394 3.31712,-0.649632 7.37139,-2.044504 4.05427,-1.394871 9.8916,-2.912015 12.97184,-3.37143 3.08024,-0.459415 6.01671,-1.09257 6.52548,-1.40701 0.87788,-0.542558 10.44549,-2.5091207 19.13129,-3.9323146 2.2,-0.360476 5.73931,-1.012365 7.86512,-1.448641 2.12582,-0.436277 13.82582,-1.885648 26,-3.220826 38.40669,-4.212169 111.48932,-2.50586803 146.13489,3.411894 17.57987,3.0027929 67.0527,16.1668836 77.33334,20.5774146 1.46666,0.62922 6.26666,2.461023 10.66666,4.070674 30.34124,11.099721 72.60835,31.783255 97.09561,47.514021 5.26409,3.38168 10.77106,6.905252 12.23773,7.830162 1.46667,0.92491 3.97649,2.80084 5.57739,4.168735 1.60089,1.367893 7.52072,5.78708 13.15517,9.820408 41.39043,29.628707 92.31211,83.130477 119.92372,125.999997 2.83398,4.4 6.09567,9.10514 7.2482,10.45584 2.25212,2.63939 3.39543,4.552 18.96816,31.73144 12.01615,20.97207 22.87215,43.52479 30.07525,62.47939 3.54977,9.34129 12.52257,36.90086 15.19357,46.66666 0.9025,3.3 1.8286,6.6 2.0578,7.33333 0.6485,2.07428 2.52,10.21808 7.6602,33.33334 9.031,40.612 11.3846,66.10051 10.6499,115.33333 -0.2791,18.7 -0.7867,35.41896 -1.128,37.15325 -0.3414,1.73429 -0.9817,6.53429 -1.4229,10.66666 -1.0204,9.55775 -8.4235,51.55606 -10.0204,56.84675 -0.664,2.2 -3.7073,13.9 -6.7629,26 -5.8205,23.049 -11.0178,38.60622 -19.73657,59.07841 -10.2291,24.01828 -25.10797,53.57944 -31.93508,63.44814 -1.3216,1.91039 -2.82075,4.37344 -3.33145,5.47344 -2.93906,6.33044 -30.67591,46.13651 -40.41439,58 -22.22781,27.07808 -47.51383,53.68476 -67.091,70.59508 -15.59406,13.46977 -43.023,34.03481 -56.11368,42.07159 -5.3752,3.3 -11.77522,7.35 -14.22226,9 -2.44704,1.65 -4.77989,3 -5.18412,3 -0.40422,0 -2.32759,1.11902 -4.27412,2.48672 -8.02103,5.63581 -46.83852,23.92785 -79.53916,37.48135 -13.62216,5.646 -32.78399,11.406 -53.33334,16.0318 -7.33333,1.6508 -16.33333,3.8188 -20,4.8176 -6.79453,1.851 -36.73054,6.5163 -50,7.7921 -10.06637,0.9679 -79.19416,2.4043 -80.00909,1.6625 z m 66.00909,-36.9571 c 65.55702,-6.0321 108.15512,-17.63437 164.54986,-44.81783 34.01149,-16.39424 68.09863,-37.7336 93.45015,-58.502 25.29952,-20.72578 68.33631,-64.95023 80.38662,-82.60501 2.98192,-4.36876 8.81678,-12.46876 12.9664,-18 20.32682,-27.09474 44.00082,-70.46814 58.69477,-107.5353 13.8721,-34.99396 26.0022,-80.73432 30.017,-113.18816 2.9189,-23.59478 3.8776,-67.09635 2.101,-95.33333 -3.0478,-48.44302 -14.9008,-102.63583 -30.18316,-137.99999 -0.95071,-2.2 -3.34776,-7.9 -5.32679,-12.66667 -5.1522,-12.40961 -26.87173,-55.45138 -31.95896,-63.33333 -2.36656,-3.66667 -7.6461,-11.86767 -11.73232,-18.22445 C 891.6668,214.23992 855.05599,173.55239 813.57469,139.30278 789.56618,119.47982 774.31747,109.48444 736.70767,88.917184 688.346,62.470174 641.5952,47.035428 586.041,39.174682 563.66824,36.009007 556.2668,35.572597 522.70766,35.440359 438.75331,35.109543 376.35139,49.741181 301.12151,87.396578 243.59876,116.18888 188.20226,161.52998 146.49311,213.95728 c -35.20919,44.25702 -69.9148,106.07144 -84.217264,150 -23.01991,70.70332 -32.54279,149.92637 -25.00231,207.99999 8.20774,63.21247 22.65852,111.86916 48.619314,163.70422 29.73978,59.38047 71.30919,113.352 120.81479,156.85952 24.80398,21.79873 45.0123,35.93184 76.00001,53.15212 47.44757,26.36725 79.61997,39.50857 123.33334,50.37741 11.73334,2.91734 22.83334,5.56676 24.66667,5.88756 11.96056,2.0929 37.76382,4.8933 51.33334,5.5711 8.8,0.4396 16.25,1.0202 16.55556,1.2903 1.18801,1.0501 42.87964,0.4182 56.77777,-0.8606 z m -86.91819,-26.532 c -3.80501,-0.46287 -7.40501,-1.32824 -8,-1.92305 -0.595,-0.59482 -1.29352,-22.23756 -1.55225,-48.09499 l -0.47046,-47.0135 -10.19621,0.62573 c -5.60793,0.34416 -10.49623,0.90495 -10.86289,1.24621 -0.36667,0.34127 -0.5083,21.0358 -0.31475,45.98784 l 0.35193,45.36736 -7.56096,-0.94468 c -4.15852,-0.51957 -8.2862,-1.22299 -9.17261,-1.56313 -2.99423,-1.14899 -3.86801,-55.01859 -1.27719,-78.73915 2.18882,-20.03997 2.18236,-20.35233 -0.573,-27.71668 -3.27681,-8.75808 -3.6035,-19.73452 -0.78792,-26.47316 2.52316,-6.03877 9.43143,-13.00153 15.98558,-16.11168 12.00246,-5.69554 22.95946,-3.89462 34.80635,5.72083 14.03633,11.39252 15.37182,18.70729 6.73566,36.89259 l -4.81094,10.13049 2.62932,3.57967 c 3.42746,4.6663 5.29394,29.47438 5.31016,70.57966 0.009,22.95007 -0.36563,29.62416 -1.65496,29.47893 -0.91667,-0.1032 -4.77986,-0.56644 -8.58486,-1.02929 z M 458.10903,860.66676 c 2.96796,-7.10334 2.4495,-13.22318 -1.51989,-17.94052 -3.88561,-4.61779 -5.6874,-4.96064 -11.16997,-2.1255 -6.66744,3.44787 -7.82791,12.46311 -2.81098,21.83734 1.21379,2.26798 2.76047,2.85252 7.54775,2.85252 5.61037,0 6.15292,-0.31543 7.95309,-4.62384 z m 48.38611,70.50523 -0.45414,-51.45194 -3.33334,-2.49083 c -9.30817,-6.95553 -10.96932,-8.63373 -13.6024,-13.74204 -7.11529,-13.80401 -0.4093,-30.7843 15.9798,-40.46258 4.90254,-2.89511 6.92402,-3.29512 14.28375,-2.8265 7.11865,0.4533 9.42863,1.2384 13.61663,4.62803 2.77398,2.24517 6.5463,7.00215 8.38292,10.57104 2.81136,5.463 3.3393,8.32523 3.3393,18.10361 0,10.96935 -0.21245,11.83646 -3.82342,15.60551 -2.10288,2.19493 -6.80248,5.27235 -10.44356,6.83871 -5.13607,2.20946 -6.4272,3.3507 -5.75946,5.09082 0.47338,1.2336 1.21827,24.59559 1.6553,51.91551 l 0.79461,49.6726 h -10.09092 -10.09093 z m 18.27312,-71.82079 c 4.72911,-4.7291 4.46902,-11.73612 -0.6247,-16.82983 -11.05448,-11.05448 -25.43903,3.97136 -15.31738,16.00025 4.46095,5.30154 11.12344,5.64823 15.94208,0.82958 z m 30.5183,121.79737 c -0.43166,-0.69842 -0.65119,-24.50218 -0.48787,-52.89724 0.26589,-46.22523 0.0577,-52.18547 -1.98981,-56.96073 -5.14588,-12.00154 -1.51098,-24.26692 10.73476,-36.22258 10.42379,-10.17688 14.5134,-12.43572 22.49736,-12.42608 16.60413,0.02 34,15.97598 34,31.1857 0,6.33973 -1.7942,10.53616 -8.37295,19.58338 -7.85429,10.80138 -12.88329,13.1488 -26.21205,12.23523 l -10.43871,-0.71548 -0.22344,47.17992 c -0.12293,25.94894 -0.6911,47.64846 -1.26272,48.22114 -1.56592,1.56888 -17.34321,2.27516 -18.24457,0.81674 z m 37.76845,-116.58439 c 5.84891,-4.09673 6.1655,-18.02 0.53771,-23.6478 -2.48565,-2.48565 -3.27272,-2.5984 -8.08127,-1.15773 -7.07488,2.11969 -10.80378,7.01961 -10.80378,14.19661 0,10.24248 10.33698,16.2196 18.34734,10.60892 z m 5.13834,112.90492 c -0.26418,-0.46484 -0.70654,-20.8482 -0.983,-45.29635 l -0.50268,-44.45118 7.64929,-3.11627 c 4.20712,-1.71394 7.98716,-2.56961 8.40009,-1.90145 2.04224,3.3044 3.04643,18.63438 3.47738,53.08549 l 0.47324,37.83209 -9.017,2.34642 c -4.95935,1.29053 -9.23315,1.96609 -9.49732,1.50125 z M 386.70766,965.34971 c -2.56667,-1.30273 -6.91667,-2.77614 -9.66667,-3.27426 l -5,-0.9057 v -28.53998 c 0,-23.18726 -0.35313,-28.73998 -1.88282,-29.60626 -1.03556,-0.58644 -4.18556,-3.17837 -7,-5.75985 -2.81445,-2.58148 -9.75289,-7.76272 -15.41877,-11.51386 l -10.30157,-6.82027 -0.73828,4.18053 c -0.40605,2.2993 -0.89549,16.93227 -1.08765,32.51772 -0.19216,15.58545 -0.76219,28.31447 -1.26671,28.28669 -0.50453,-0.0277 -2.57937,-0.95988 -4.61076,-2.07132 -2.03139,-1.11144 -6.31685,-3.34045 -9.52325,-4.95334 l -5.82982,-2.93255 0.20187,-78.66666 c 0.11107,-43.26667 0.54959,-81.66812 0.97459,-85.33655 l 0.77272,-6.66988 -38.47812,-38.87189 c -21.16296,-21.37955 -44.09294,-44.62809 -50.9555,-51.66345 -6.86256,-7.03536 -12.92088,-12.79156 -13.46294,-12.79156 -1.3943,0 -2.83798,28.1466 -1.82336,35.54905 0.79481,5.79881 2.17616,7.5226 23.74986,29.63727 12.5983,12.91418 29.00521,30.08034 36.45981,38.14701 l 13.55381,14.66667 -0.0203,67.99999 c -0.012,39.9707 -0.53548,68.81473 -1.27012,69.97659 -1.05341,1.66596 -1.83593,1.4374 -4.97958,-1.45447 -2.05138,-1.88707 -5.97978,-4.77547 -8.72978,-6.41865 l -5.00004,-2.98763 -0.28377,-51.55792 c -0.15608,-28.35685 -0.11383,-55.75792 0.0939,-60.89125 0.3666,-9.05974 0.26404,-9.40017 -3.49891,-11.61368 -2.13212,-1.25418 -19.42438,-18.28948 -38.42724,-37.85621 l -34.55066,-35.57588 0.0897,-31.47712 c 0.0493,-17.3198 0.72121,-33.9634 1.49377,-37.0051 l 1.40407,-5.52799 -14.01808,-14.43168 -14.01808,-14.43167 -48.35461,0.42095 -48.354614,0.42095 -1.56591,-7.79462 c -0.86126,-4.28704 -1.8575,-9.0518 -2.21388,-10.58837 -0.61133,-2.63585 0.0471,-2.84309 11.649664,-3.66667 6.76368,-0.48009 31.35227,-0.8729 54.6413,-0.8729 h 42.34371 l 19.99587,19.66666 c 20.89696,20.55292 22.00987,21.97035 23.42847,29.83916 0.73356,4.06896 2.40614,5.96459 10.50882,11.91015 14.18492,10.40856 76.10291,72.37556 103.24874,103.33045 l 6.94562,7.92024 0.0748,49.33333 c 0.0412,27.13333 0.5156,49.93551 1.05438,50.67149 0.53877,0.73599 2.77958,1.52651 4.97958,1.75674 12.11472,1.26773 14.17648,2.59125 31.15509,19.99948 9.06862,9.29809 17.31862,18.83635 18.33333,21.19613 1.40143,3.25912 1.807,11.27209 1.68717,33.33333 -0.0868,15.97356 -0.53677,30.63905 -1,32.59001 l -0.84226,3.54718 z m 255.47878,1.64188 c -1.07039,-1.07038 -1.03624,-29.93937 0.0625,-52.84966 0.77734,-16.20826 1.19498,-18.56778 3.75432,-21.21082 1.58382,-1.63561 6.23103,-7.17385 10.32712,-12.30718 4.09608,-5.13333 11.65126,-13.46228 16.78927,-18.50877 7.78283,-7.64419 9.88079,-9.04016 12.5713,-8.3649 4.75901,1.19444 8.25764,8.5433 7.33656,15.41043 -0.66258,4.93991 -2.45186,7.29953 -15.53435,20.48608 l -14.78552,14.9031 v 27.7367 c 0,27.53009 -0.0224,27.74537 -3,28.90108 -1.65,0.64041 -6.08455,2.39101 -9.85456,3.89021 -3.77002,1.49921 -7.22002,2.36039 -7.66667,1.91373 z m 59.16152,-26.16869 c -0.0145,-2.30944 -0.37958,-44.99897 -0.81129,-94.86564 l -0.78493,-90.66666 7.77834,-8.66667 c 39.25682,-43.74008 61.74818,-66.6581 82.0967,-83.65401 6.23309,-5.20614 13.71851,-11.89938 16.63424,-14.87389 5.25397,-5.35984 14.00124,-10.13973 15.61063,-8.53033 0.45981,0.45981 0.83602,-2.02738 0.83602,-5.52707 0,-7.59896 0.18791,-7.84975 24.2877,-32.41469 l 17.33214,-17.66667 h 51.08103 c 28.09458,0 52.03011,0.36419 53.19008,0.80932 2.50541,0.96143 2.72781,6.21921 0.61744,14.60025 -1.78464,7.0874 3.84767,6.42418 -55.38629,6.5219 l -41.54459,0.0685 -3.08917,4 c -4.00824,5.19005 -12.47894,13.63132 -18.9402,18.87441 l -5.11854,4.15351 0.17342,37.30853 0.1734,37.30852 -13.05487,13.23285 c -7.18019,7.27807 -23.45649,24.45795 -36.16959,38.17751 -12.71309,13.71957 -23.67785,24.94466 -24.36615,24.94466 -1.21682,0 -0.48736,99.43907 0.83699,114.09423 0.60496,6.69452 0.56249,6.78401 -4.32632,9.11532 -2.71551,1.29493 -7.23576,4.17486 -10.04503,6.39984 -2.80926,2.22498 -5.53009,3.62358 -6.04626,3.10801 -0.51619,-0.51556 -1.11419,-31.44956 -1.32888,-68.74221 l -0.39038,-67.80482 7.64963,-9.08518 c 16.70825,-19.84378 36.51326,-41.73065 50.41519,-55.71473 l 14.61741,-14.70379 0.48096,-19 c 0.26452,-10.44999 0.0884,-18.99999 -0.39146,-18.99999 -5.28648,0 -49.52995,43.24117 -83.21857,81.33333 -6.80986,7.7 -14.21102,15.55922 -16.44701,17.46496 -2.236,1.90572 -3.68695,4.07738 -3.22432,4.82593 0.46261,0.74853 0.90191,38.7893 0.97619,84.53504 l 0.13506,83.17406 -10.10617,5.53231 -10.10617,5.5323 -0.0264,-4.19897 z m -466.2885,-55.46444 c -0.89264,-1.42934 -5.29751,-5.17934 -9.78859,-8.33333 l -8.16561,-5.73453 0.77441,-11.33334 c 0.42592,-6.23333 0.91271,-18.91745 1.08176,-28.18692 l 0.30737,-16.8536 -14.94725,-13.60765 c -8.22097,-7.48421 -14.94724,-14.15231 -14.94724,-14.81799 0,-2.32094 -39.29743,-41.45774 -44.96002,-44.77623 -3.13865,-1.83938 -5.80257,-3.43731 -5.9198,-3.55096 -0.1172,-0.1136 -0.56724,-9.80348 -1,-21.53295 l -0.78685,-21.32631 -8.31485,-1.48428 c -34.30792,-6.12429 -40.41795,-49.05973 -9.01848,-63.37331 5.90756,-2.69299 20.85902,-3.36452 26.56964,-1.19335 5.75898,2.18957 15.15439,11.89177 17.52384,18.09611 3.32515,8.70678 2.12155,19.51926 -3.50643,31.49964 l -4.59173,9.77447 0.40079,20.99094 0.40077,20.99094 3.60156,0.79966 c 1.98085,0.43981 4.66963,1.09005 5.97504,1.44498 3.16061,0.85935 23.24296,19.70631 39.90856,37.45355 7.39595,7.87596 17.84071,18.96618 23.21056,24.64493 l 9.76337,10.325 0.8364,37.22733 c 0.96275,42.85139 0.20302,50.23936 -4.40722,42.8572 z M 136.91035,671.91922 c 8.40968,-2.93163 11.343,-15.87079 5.02925,-22.18454 -2.98408,-2.98408 -4.24663,-3.34318 -9.62341,-2.73714 -14.37878,1.62069 -18.5335,18.00425 -6.27522,24.74549 3.37709,1.85716 5.92867,1.89852 10.86938,0.17619 z m 659.78102,199.58636 c -0.51955,-7.62241 -0.72842,-25.22017 -0.46416,-39.10612 l 0.48046,-25.24718 5.105,-5.26418 c 2.80775,-2.89529 11.42694,-12.94636 19.15374,-22.33569 8.11806,-9.86476 17.22033,-19.36734 21.56166,-22.50994 4.13212,-2.99114 11.4945,-9.32495 16.36083,-14.07512 7.72576,-7.54134 9.62816,-8.72464 15,-9.33012 l 6.15211,-0.69343 0.058,-14.8266 c 0.032,-8.15463 0.57595,-17.51096 1.20891,-20.79184 1.05132,-5.44943 0.81534,-6.38881 -2.72902,-10.86393 -12.55245,-15.84876 -12.05491,-34.66741 1.29264,-48.89085 14.875,-15.85115 42.35711,-11.15615 52.99367,9.05336 3.92557,7.45861 3.40176,22.84288 -1.06687,31.33333 -5.96353,11.33081 -12.62834,15.92728 -26.91472,18.56205 l -5.1573,0.95113 0.95173,20.30746 c 1.0606,22.62998 1.20263,22.18932 -7.97044,24.72796 -6.6266,1.83389 -20.31092,14.73494 -48.50454,45.72823 -11.14549,12.25226 -21.78677,23.47423 -23.6473,24.93771 l -3.38276,2.66089 0.14666,27.79338 0.14668,27.79337 -4.654,2.21935 c -2.5597,1.22062 -7.02154,4.35826 -9.91521,6.97252 l -5.26121,4.75318 -0.94463,-13.85892 z M 910.68856,673.30084 c 3.37658,-1.80709 5.69498,-9.49516 4.609,-15.28393 -1.84412,-9.83007 -13.71822,-13.42576 -21.82091,-6.60779 -3.31449,2.78896 -4.10231,4.47016 -4.10231,8.75434 0,5.69168 1.82192,10.14413 5.21779,12.75141 2.56693,1.97083 12.68189,2.21337 16.09643,0.38597 z M 408.49405,788.21985 c -1.60538,-1.60539 -1.89035,-5.76841 -1.5442,-22.55924 0.38272,-18.5649 0.67909,-20.77645 3.01265,-22.48028 1.98937,-1.45253 7.75512,-1.88973 24.92131,-1.88973 12.28322,0 22.67397,-0.55148 23.09056,-1.22552 0.41657,-0.67404 0.9939,-74.39474 1.28294,-163.8238 l 0.52555,-162.59826 -24.08796,-0.63206 c -30.90236,-0.81088 -28.98724,0.97905 -28.98724,-27.09235 0,-11.22544 0.30655,-21.20897 0.68121,-22.18561 0.56086,-1.46201 19.90886,-1.72381 109.51601,-1.48193 59.85913,0.16157 109.20259,0.66157 109.65212,1.1111 0.44953,0.44954 0.81733,11.28921 0.81733,24.08819 0,19.21842 -0.34828,23.49728 -2,24.5711 -1.2428,0.80798 -11.21257,0.96663 -26.33333,0.41904 l -24.33333,-0.88121 v 164.68606 164.68606 l 23.93376,0.62803 c 15.4017,0.40413 24.60226,1.18284 25.80905,2.18437 2.37123,1.96795 3.70441,20.93798 2.47897,35.27347 l -0.88845,10.39334 -107.78914,0.38895 c -93.62895,0.33785 -108.04776,0.1304 -109.75781,-1.57972 z m 306.2743,-100.34874 c -9.50427,-4.31144 -16.76523,-12.62535 -18.74241,-21.46035 -0.92027,-4.1122 -1.28748,-9.53286 -0.81603,-12.04592 1.40533,-7.49109 8.92303,-18.4924 16.16443,-23.65485 6.2352,-4.44512 7.31386,-4.75051 16.66666,-4.71853 5.5,0.0188 11.8,0.46122 14,0.98317 3.72515,0.88376 4.54971,0.30216 12,-8.46419 4.4,-5.17724 18.2,-19.73532 30.66667,-32.35128 12.46667,-12.61595 29.12542,-29.67245 37.01944,-37.90333 l 14.35279,-14.96522 7.64721,-0.15454 c 4.20598,-0.0849 35.24723,-0.0501 68.98057,0.0776 l 61.33335,0.23218 -0.051,7.58902 c -0.028,4.17398 -0.4734,9.17552 -0.99,11.11456 -0.9269,3.47874 -1.0766,3.51979 -11.28268,3.09432 -42.67344,-1.779 -64.12086,-2.07194 -89.71349,-1.2254 l -29.43005,0.97348 -2.76439,5.48271 c -1.68322,3.33837 -18.01789,20.75473 -41.76504,44.53073 l -39.00063,39.04804 2.35762,4.62432 c 4.49962,8.82576 2.0175,23.63019 -5.2111,31.08112 -10.20676,10.5207 -28.3013,14.06442 -41.42228,8.11233 z m 24.73932,-19.11384 c 2.94307,-2.94307 4.53333,-5.81115 4.53333,-8.17596 0,-5.22373 -4.63454,-11.9886 -9.93714,-14.50485 -4.15746,-1.97284 -5.02246,-1.98039 -9.75912,-0.0852 -3.59031,1.43656 -5.88374,3.51893 -7.4172,6.73466 -3.28512,6.88895 -2.75104,10.09551 2.59886,15.60351 3.97282,4.09021 5.75168,4.96112 10.13334,4.96112 4.26628,0 6.20881,-0.89421 9.84793,-4.53333 z m -438.80002,19.32132 c -19.11675,-3.34802 -31.07183,-21.13637 -25.19284,-37.48527 l 2.42734,-6.7502 -37.60792,-37.6096 c -20.68435,-20.68526 -40.34721,-41.20958 -43.69525,-45.60958 l -6.08735,-8 -49.28523,0.47969 c -27.10687,0.26383 -55.61608,0.8719 -63.35381,1.35127 -9.372294,0.58064 -14.462924,0.39645 -15.249854,-0.55173 -0.64968,-0.78282 -1.6969,-5.7409 -2.32716,-11.01794 -1.0941,-9.16073 -1.02115,-9.60044 1.61307,-9.72322 1.51745,-0.0707 32.992494,-0.15646 69.944534,-0.1905 l 67.18556,-0.0619 15.4124,15.85714 c 8.47682,8.72144 27.44333,28.15716 42.14778,43.19049 14.70447,15.03334 28.25893,29.36414 30.12102,31.84624 3.30939,4.41127 3.47455,4.46783 7.33333,2.51152 10.11423,-5.12761 24.37069,-3.8087 33.96632,3.14232 7.23965,5.24439 12.66656,16.4368 12.5784,25.94158 -0.19619,21.15026 -18.80441,36.37955 -39.93034,32.67966 z M 313.1686,668.5114 c 4.83726,-2.88746 8.2455,-7.76605 9.09875,-13.02408 1.06348,-6.55341 -3.72697,-11.5759 -11.92216,-12.49961 -5.93672,-0.66916 -6.56238,-0.41932 -11.62268,4.64097 -2.95181,2.95182 -5.3482,6.64302 -5.3482,8.23794 0,4.85944 3.94507,10.85966 8.41962,12.80577 5.52932,2.40487 7.11374,2.38244 11.37467,-0.16099 z M 716.041,605.4415 c -13.52396,-4.38996 -22.81696,-14.02962 -25.36705,-26.31331 -1.32437,-6.37949 -1.16367,-8.47364 1.26359,-16.4648 2.29396,-7.55237 3.84924,-10.09602 8.8815,-14.5256 18.24067,-16.05608 42.81936,-10.75864 51.99716,11.20692 3.3146,7.93296 3.08188,22.61805 -0.46662,29.44484 -3.18538,6.12816 -9.52995,12.02001 -15.75146,14.62749 -5.46926,2.2922 -16.41233,3.36987 -20.55712,2.02446 z m 16.13172,-22.95858 c 4.38028,-4.68909 4.98144,-9.83878 1.85448,-15.88567 -2.48146,-4.79862 -5.74822,-6.63998 -11.78001,-6.63998 -10.58267,0 -15.56543,14.8459 -7.64208,22.76923 5.50392,5.50393 12.28649,5.40989 17.56761,-0.24358 z m -429.97811,20.69107 c -8.37063,-2.65895 -19.90359,-13.84765 -22.21055,-21.54757 -3.90373,-13.02952 3.08719,-30.76352 15.03156,-38.13081 4.87945,-3.00966 8.41817,-4.04175 15.62621,-4.55748 8.19725,-0.58651 10.20204,-0.23431 16.66483,2.92764 12.4751,6.10349 18.0814,15.4955 18.05464,30.2462 -0.0147,8.0913 -4.29888,18.67199 -9.49379,23.44683 -8.30779,7.63602 -23.08603,10.97814 -33.6729,7.61519 z m 19.24509,-22.15388 c 5.76497,-5.76497 5.53744,-13.06002 -0.59871,-19.19617 -6.65227,-6.65227 -15.27348,-5.73472 -19.91298,2.11933 -2.96343,5.0167 -2.79992,10.09483 0.49678,15.429 4.82138,7.80116 13.17392,8.48883 20.01491,1.64784 z m 389.93464,-64.12192 c -7.02264,-3.37438 -14.37439,-10.00713 -17.31894,-15.62514 -7.45004,-14.21419 -0.14917,-36.77141 14.28471,-44.13504 6.08583,-3.10475 17.15035,-4.62267 24.13907,-3.31157 5.94186,1.1147 17.53085,11.34554 19.72501,17.41339 l 1.61988,4.47968 65.4418,0.20986 c 35.99299,0.11546 85.24181,0.43933 109.44181,0.7198 l 43.99995,0.50996 0.3866,9.90736 0.3866,9.90737 -5.05325,1.02315 c -9.07516,1.83746 -199.10774,0.58706 -209.05324,-1.37558 -2.08822,-0.41208 -3.38974,0.9364 -6,6.2165 -7.07923,14.31994 -27.34219,21.10334 -42,14.06026 z m 21.28693,-19.7457 c 5.28312,-4.63864 6.08911,-9.33334 2.72068,-15.84716 -5.99771,-11.59829 -19.68708,-10.06936 -23.48996,2.62353 -1.33869,4.46813 -1.1988,5.75725 1.04089,9.59215 4.98856,8.5416 12.5507,9.93358 19.72839,3.63148 z m -434.62029,19.61965 c -6.49248,-2.83627 -12.57649,-8.72557 -16.00639,-15.49413 l -3.20861,-6.3319 -5.72583,1.01499 c -3.14921,0.55825 -51.91612,1.23576 -108.37089,1.50559 -117.350694,0.56086 -104.349574,2.21072 -102.716914,-13.03484 l 0.90755,-8.47458 H 171.39059 c 105.36719,0 108.49368,-0.0724 109.27411,-2.53137 1.648,-5.19236 8.84724,-13.48464 13.98103,-16.1037 2.91894,-1.48914 8.31284,-3.35212 11.98645,-4.13996 12.90113,-2.7668 28.34293,5.1224 35.07214,17.9183 4.0158,7.63621 4.02031,20.73557 0.009,28.36101 -3.74242,7.11563 -13.42694,15.60039 -20.08222,17.59436 -6.85612,2.05415 -18.56149,1.91335 -23.59089,-0.28377 z m 22.10257,-20.71231 c 3.14601,-3.14601 3.89744,-5.04737 3.89744,-9.86186 0,-5.15835 -0.63697,-6.52372 -4.71307,-10.10258 -6.29344,-5.52572 -11.26091,-5.46937 -17.21169,0.19522 -2.52046,2.39925 -4.94352,6.28605 -5.42886,8.70841 -0.77398,3.86284 -0.25704,4.99465 4.41497,9.66667 6.83775,6.83776 13.13644,7.29893 19.04121,1.39414 z M 66.146506,449.46137 c -0.52899,-0.85593 -0.37302,-3.49449 0.34659,-5.86349 0.71961,-2.369 1.6737,-5.95727 2.1202,-7.97394 l 0.81182,-3.66666 45.641264,0.0783 c 25.10269,0.0431 53.93032,0.54571 64.06137,1.11708 17.26527,0.97374 18.63251,1.25126 21.80788,4.42663 4.71849,4.71851 3.29843,8.53095 -3.8996,10.46917 -3.159,0.85063 -13.50921,1.33784 -24.25292,1.14166 -10.30817,-0.18824 -38.30199,0.14596 -62.20847,0.74265 -32.69891,0.81616 -43.704584,0.69941 -44.428134,-0.47131 z m 807.894504,-0.44932 c -30.25834,-1.48172 -32.66667,-1.8436 -32.66667,-4.90855 0,-3.93918 4.48936,-6.81533 12.73197,-8.15685 13.33547,-2.1704 58.80497,-4.161 85.26333,-3.73271 l 25.32861,0.41 1.53529,4.68966 c 0.84442,2.5793 1.74654,6.4793 2.00471,8.66666 l 0.46943,3.97702 -35.33334,0.11501 c -19.43333,0.0633 -46.13333,-0.41384 -59.33333,-1.06024 z M 715.06168,433.21508 c -10.72669,-3.29146 -19.08,-11.5157 -22.8092,-22.45676 -5.08292,-14.91271 3.6133,-33.62243 18.63019,-40.08252 10.21741,-4.39543 22.82833,-3.52498 30.74795,2.12233 3.15904,2.25264 7.54372,6.87393 9.74372,10.26955 l 4,6.17382 25.33333,-0.008 25.33334,-0.008 -18.66667,-18.19012 c -10.26667,-10.00455 -22.67831,-22.08595 -27.58142,-26.84753 l -8.91474,-8.6574 -4.75787,4.17746 c -2.61681,2.2976 -8.15539,5.16514 -12.30793,6.37232 -15.01107,4.36384 -29.28702,-0.79436 -37.06946,-13.39396 -3.57772,-5.79223 -4.03029,-7.67799 -3.99146,-16.63142 0.0644,-14.85958 5.95144,-24.63097 18.49905,-30.70517 7.18151,-3.47651 20.35396,-3.6852 27.25565,-0.43181 8.45466,3.98544 16.59514,13.39876 19.34683,22.37186 2.24237,7.31223 3.84711,9.37556 18.66578,24 8.91686,8.8 25.80718,25.12635 37.53402,36.28079 l 21.32155,20.28078 59.81496,0.38588 59.81495,0.38588 3.16292,8.66667 c 1.7396,4.76667 3.17288,9.32771 3.18504,10.13564 0.0236,1.56515 -142.98986,4.24367 -184.85682,3.46221 l -21.54561,-0.40216 -0.90067,4.10076 c -2.80556,12.77363 -24.41627,23.09912 -38.98743,18.62802 z m 18.64599,-22.26902 c 4.23461,-4.02792 4.85435,-10.15781 1.65287,-16.34881 -2.46907,-4.77463 -5.74638,-6.63997 -11.66612,-6.63997 -10.15914,0 -15.71682,14.63798 -8.53479,22.47914 5.86055,6.3984 12.17469,6.5719 18.54804,0.50964 z m 1.33333,-86.96351 c 4.08094,-4.52688 4.61926,-8.98227 1.75459,-14.52192 -2.77375,-5.36383 -5.40607,-7.10335 -10.74907,-7.10335 -6.4843,0 -10.93537,3.27725 -12.77062,9.40279 -1.28416,4.28613 -1.17016,5.9306 0.6816,9.8329 1.22301,2.57731 3.54212,5.35163 5.15357,6.16516 4.80465,2.42559 11.84361,0.75727 15.92993,-3.77558 z M 299.65097,431.14086 c -7.38563,-2.27001 -15.97268,-10.31001 -18.51216,-17.33282 l -1.65864,-4.58688 -32.71961,0.36806 c -60.25406,0.67779 -168.68359,-0.31668 -170.65722,-1.56518 -1.68204,-1.06406 -1.63807,-2.17612 0.33333,-8.43011 1.24904,-3.9624 2.27098,-8.50163 2.27098,-10.08717 v -2.88282 h 61.74335 61.74336 l 11.38656,-11.66666 c 6.2626,-6.41667 23.1781,-23.33108 37.58998,-37.58759 14.41188,-14.2565 26.21659,-26.8565 26.23269,-28 0.0161,-1.14349 1.25148,-4.77908 2.74527,-8.07908 9.75695,-21.55446 37.13436,-26.72236 54.3423,-10.25789 14.15814,13.54641 13.39244,35.42104 -1.70381,48.67573 -5.98781,5.25738 -17.79091,8.84904 -25.19128,7.66567 -7.44296,-1.19017 -16.78992,-5.49595 -21.3208,-9.82165 -3.57297,-3.41118 -3.85685,-3.47114 -5.5465,-1.17135 -0.97943,1.33311 -12.46707,13.28904 -25.52807,26.56873 -13.061,13.27971 -23.16508,24.29025 -22.45351,24.46791 0.71159,0.17764 11.6634,0.60549 24.33737,0.95077 l 23.04359,0.62779 1.7847,-4.18619 c 2.88306,-6.76252 11.20165,-14.00572 18.61274,-16.20659 10.27992,-3.05279 16.67737,-2.51866 26.07415,2.17696 17.28314,8.63648 23.19017,25.8108 14.70448,42.75226 -4.25648,8.49792 -10.23163,14.09638 -18.2446,17.09442 -8.29991,3.10539 -14.53145,3.24214 -23.40865,0.51368 z m 20.71214,-21.51692 c 9.10379,-9.57097 3.64513,-23 -9.34909,-23 -5.40865,0 -12.21991,6.43403 -13.19909,12.46808 -0.68316,4.20982 -0.20464,5.3679 3.924,9.49654 6.1751,6.1751 13.35562,6.5743 18.62418,1.03538 z m -3.90113,-83.15605 c 8.22561,-4.20661 10.3256,-15.4004 4.06386,-21.66213 -8.01304,-8.01303 -23.15153,-2.12637 -23.15153,9.00256 0,6.44743 6.65472,14.14896 12.22579,14.14896 2.17225,0 5.26009,-0.67023 6.86188,-1.48939 z m 486.55089,-15.99088 -54.53604,-54.81358 -4.40208,2.2764 c -7.99499,4.13437 -32.03375,2.53957 -32.03375,-2.1252 0,-0.65487 -0.9,-1.19068 -2,-1.19068 -1.1,0 -2,-0.48687 -2,-1.08192 0,-0.59505 -1.2365,-2.40915 -2.74778,-4.03132 -4.56004,-4.89463 -6.35154,-10.96147 -5.97086,-20.22009 0.196,-4.76667 0.51287,-8.81667 0.70416,-9 0.39531,-0.37884 0.93474,-2.35991 1.18115,-4.33776 0.33507,-2.68939 13.02909,-14.60067 17.53273,-16.45162 5.14794,-2.11573 20.8841,-2.6299 22.06391,-0.72092 0.41485,0.67126 1.31283,0.87527 1.99549,0.45335 0.68266,-0.42191 1.2412,-0.13173 1.2412,0.64492 0,0.77661 0.64003,1.41203 1.4223,1.41203 2.85592,0 10.79602,7.23101 14.06478,12.80872 3.67835,6.27664 4.74355,14.4989 2.84656,21.97246 l -1.22401,4.82223 13.11185,12.64725 c 7.21153,6.95599 19.80051,18.89521 27.97553,26.53163 8.17501,7.6364 25.18656,24.53838 37.80342,37.55996 12.61688,13.02157 24.22823,23.97374 25.80302,24.33816 4.04789,0.93672 27.03651,1.74756 53.19656,1.87632 21.2996,0.1048 22.33333,0.2316 22.33333,2.73858 0,1.44575 1.43351,5.87006 3.18556,9.83178 l 3.18558,7.20313 -6.85224,0.82329 c -3.76872,0.45282 -24.06295,0.82852 -45.09828,0.8349 l -38.24606,0.0116 z M 735.9879,241.77656 c 4.29849,-2.53918 8.0531,-8.33189 8.0531,-12.42454 0,-6.28442 -5.81494,-13.24243 -11.90732,-14.24795 -3.3401,-0.55128 -10.48409,3.18377 -12.25457,6.407 -2.3108,4.20691 -2.64928,6.3528 -1.79637,11.38865 1.6192,9.56039 9.84464,13.63831 17.90516,8.87684 z M 86.70765,363.244 c 0,-0.39229 1.93652,-5.21673 4.30339,-10.72095 l 4.30338,-10.00769 36.86298,0.17135 36.86298,0.17133 37.16697,-37.16699 c 20.44183,-20.44185 43.91436,-43.44452 52.16119,-51.11705 l 14.99424,-13.95005 -1.5686,-5.53771 c -3.50593,-12.37717 4.73759,-28.57718 17.97932,-35.33261 7.62407,-3.88951 19.41587,-4.73847 26.77565,-1.92775 11.97785,4.57439 20.74763,17.00431 20.78845,29.46474 0.0332,10.11938 -2.10361,15.79285 -8.71933,23.15112 -10.08457,11.21647 -27.5728,15.43927 -36.89593,8.90909 -1.61776,-1.13312 -3.86685,-2.06021 -4.99797,-2.06021 -1.13114,0 -26.03116,23.99999 -55.33341,53.33333 l -53.27678,53.33333 h -45.70327 c -25.13679,0 -45.70326,-0.32097 -45.70326,-0.71328 z M 312.10218,240.91488 c 7.82414,-6.1656 8.65236,-14.59741 2.1147,-21.52933 -9.05777,-9.60403 -22.70923,-3.10089 -22.70923,10.81796 0,6.5362 6.46313,12.43843 13.55437,12.37804 2.73843,-0.0233 5.9065,-0.77333 7.04016,-1.66667 z m 198.60548,79.48428 c -19.88236,-2.65477 -32.05628,-8.22229 -43.92,-20.08601 -19.01099,-19.01099 -25.56619,-43.69183 -18.71712,-70.4714 6.03871,-23.61111 28.26138,-45.10088 51.66283,-49.959 9.65175,-2.00369 32.38656,-0.93661 40.01329,1.87807 18.40352,6.79189 38.18935,26.65608 45.87441,46.05609 4.36568,11.02064 4.17,32.01451 -0.41162,44.16048 -8.11033,21.5007 -24.47532,37.70872 -45.16845,44.73518 -8.36258,2.83956 -22.4331,4.60794 -29.33334,3.68659 z M 120.04097,308.93981 c 0,-3.7612 11.33777,-16.54601 24,-27.06314 6.96667,-5.78646 19.4171,-17.1623 27.66763,-25.27967 l 15.00096,-14.75885 -2.84868,-6.74263 c -3.82165,-9.04557 -2.69017,-16.34688 4.18066,-26.97738 5.43448,-8.40819 6.7495,-9.1328 23.21018,-12.78944 5.61043,-1.24632 20.7849,-16.50819 30.42664,-30.60188 4.55388,-6.65658 10.61266,-14.63965 13.46394,-17.74016 4.96161,-5.39529 20.71187,-16.36271 23.49843,-16.36271 4.95532,0 7.54345,19.8086 3.42658,26.22579 -1.33172,2.07581 -12.38597,13.67421 -24.56501,25.77421 -12.17903,12.1 -22.99218,23.65117 -24.0292,25.66927 -1.70536,3.31866 -1.5905,4.29916 1.20208,10.26142 7.07094,15.09676 -1.80094,33.95394 -17.56516,37.33476 -3.6146,0.7752 -7.89314,1.07787 -9.50784,0.6726 -2.44134,-0.61273 -6.75034,3.21628 -25.58186,22.73227 -12.4553,12.90802 -24.44601,24.56617 -26.64601,25.907 -2.71307,1.65352 -7.86082,2.69222 -16,3.22848 -6.6,0.43484 -13.65,1.17637 -15.66667,1.64784 -2.74824,0.64252 -3.66667,0.35752 -3.66667,-1.13778 z m 98.33334,-75.16463 c 4.07529,-4.48272 3.76895,-8.84932 -1.00205,-14.2832 -5.54234,-6.31236 -8.53092,-6.7966 -13.19032,-2.1372 -7.10459,7.1046 -6.53616,13.70758 1.60633,18.65932 4.94445,3.0069 8.37119,2.39732 12.58604,-2.23892 z m 661.8861,71.99965 c -2.446,-1.24354 -8.146,-6.48232 -12.66667,-11.64175 -4.52067,-5.15941 -14.76973,-16.15964 -22.77569,-24.44495 l -14.5563,-15.06418 h -7.10653 c -6.3158,0 -7.71113,-0.54621 -12.54027,-4.90905 -2.98854,-2.69998 -6.59028,-7.17607 -8.00384,-9.94688 -3.13316,-6.1415 -3.40472,-17.89888 -0.5701,-24.68306 1.1,-2.63268 2.0081,-5.1634 2.01802,-5.62384 0.009,-0.46045 -11.05145,-11.64646 -24.58078,-24.85781 -13.52935,-13.21135 -25.23746,-25.70041 -26.01803,-27.75347 -1.5663,-4.11967 -1.89363,-18.18717 -0.57643,-24.77315 0.74872,-3.74358 1.08357,-4.00484 3,-2.34065 1.18647,1.0303 2.88945,2.10157 3.7844,2.3806 2.03571,0.63468 25.15084,19.29303 29.69855,23.97242 1.85217,1.90581 5.02576,6.74242 7.05241,10.74804 2.02666,4.00561 6.87892,11.1463 10.78282,15.86822 3.90389,4.72191 7.81084,9.9353 8.68209,11.5853 1.25869,2.38373 2.73853,3.00153 7.20385,3.00744 9.09895,0.012 15.36043,2.45429 21.5484,8.40485 3.95214,3.80051 6.32275,7.50236 7.41176,11.57391 1.9117,7.14728 0.83818,16.86985 -2.238,20.26897 -2.10724,2.32848 -1.19717,3.45837 18.34016,22.76984 11.3066,11.17588 24.34078,23.6172 28.96485,27.64738 10.5047,9.15555 11.95524,13.80983 5.18542,16.63844 -7.70318,3.2186 -17.03954,3.71566 -22.04009,1.17338 z m -49.4995,-71.20412 c 4.75114,-4.75113 5.63078,-9.01973 2.97704,-14.44655 -1.91912,-3.92456 -3.20596,-4.91416 -6.84284,-5.26224 -10.16618,-0.97297 -14.61365,10.87427 -6.95666,18.53126 4.59988,4.59989 7.12533,4.87466 10.82246,1.17753 z M 706.041,165.64838 c -1.46666,-0.36644 -3.10748,-1.34684 -3.64625,-2.17867 -0.53877,-0.83184 -0.98877,-15.73018 -1,-33.10743 l -0.0204,-31.595017 11,5.872947 11,5.87294 0.82532,19.72207 c 0.45393,10.84713 1.50058,22.12207 2.32589,25.0554 1.90907,6.78517 1.91147,6.74684 -0.57979,9.23809 -2.06429,2.06431 -13.54005,2.70983 -19.90476,1.11967 z m -394.1579,-6.02443 c -0.0868,-2.38333 0.0587,-4.93333 0.32346,-5.66666 0.26475,-0.73334 0.7858,-11.41552 1.1579,-23.73821 l 0.67653,-22.40487 8,-3.36599 c 12.43277,-5.231077 12.18692,-5.223027 13.1454,-0.43063 0.47003,2.35017 0.8546,15.85517 0.8546,30.01112 0,30.85875 0.43808,29.92857 -14.09524,29.92857 h -9.90476 z m 344.16537,-11.79908 c -12.81654,-4.53712 -12.36056,-3.16638 -13.07883,-39.3168 l -0.62783,-31.598259 3.18292,0.813582 c 1.75062,0.447469 6.35223,1.555593 10.22583,2.462497 5.30492,1.242016 7.17584,2.322078 7.58165,4.376824 0.55994,2.835105 2.40452,43.500516 2.59806,57.276496 0.0609,4.33506 -0.48927,8.03878 -1.2226,8.23049 -0.73334,0.19171 -4.62998,-0.81847 -8.6592,-2.24483 z M 373.3409,147.62395 c -0.78756,-7.85316 -0.74993,-63.732484 0.0437,-65.016726 1.18496,-1.917325 17.26206,-5.819986 18.57711,-4.509537 0.41024,0.408793 0.93749,14.232813 1.17169,30.720043 0.47246,33.26028 0.64012,32.53092 -8.42581,36.65492 -4.48529,2.0403 -11.24951,3.32053 -11.36676,2.1513 z m 49.43059,-13.59872 c -2.89919,-3.08605 -3.36748,-5.12444 -4.23534,-18.43548 -1.20982,-18.556077 -1.37912,-39.353355 -0.35152,-43.184097 0.62812,-2.341599 2.34038,-3.15776 9.091,-4.333334 4.57443,-0.796599 8.71799,-1.448363 9.20791,-1.448363 0.48993,0 0.92921,5.849999 0.97617,12.999999 0.0909,13.836194 1.86928,40.071785 3.33058,49.133595 0.99052,6.14251 0.672,6.42331 -8.91711,7.8613 -5.16324,0.77426 -6.22085,0.47289 -9.10169,-2.59362 z m 87.03821,-1.31724 c -4.03912,-2.91621 -6.22064,-10.0551 -4.47538,-14.64545 0.7796,-2.0505 1.37334,-15.39191 1.37334,-30.858718 V 59.957289 h 9.94751 9.94752 l 0.41705,26.999999 c 0.29818,19.303202 0.94131,28.168252 2.25606,31.098192 3.63684,8.10472 -1.15527,14.80775 -11.51734,16.11003 -3.33073,0.4186 -6.0377,-0.0777 -7.94876,-1.45752 z m 90.56463,0.36291 c -1.65,-0.83662 -3.0306,-2.47943 -3.06801,-3.6507 -0.18712,-5.85929 0.23765,-63.410324 0.46973,-63.642402 0.14788,-0.147885 3.26799,0.336418 6.93358,1.076228 3.66558,0.739812 7.95001,1.585889 9.52094,1.880173 2.75419,0.515947 2.88575,1.380923 3.68251,24.212409 0.45445,13.022542 1.08313,26.461922 1.39707,29.865292 0.34754,3.7678 -0.0927,7.09517 -1.12536,8.50755 -2.07715,2.84069 -13.45544,3.9596 -17.81046,1.75145 z m -133.06511,-1.2363 c -6.05875,-3.05797 -6.42679,-5.35458 -6.06752,-37.862316 0.23335,-21.115205 0.81016,-30.943019 1.85393,-31.588111 2.45523,-1.517409 14.85863,-0.969879 15.92495,0.702981 0.53878,0.845242 0.98878,12.418217 1,25.717725 0.0159,18.825741 0.46152,25.026711 2.0122,28.000001 2.73026,5.23503 2.51718,7.75866 -0.99178,11.74615 -3.38468,3.84625 -9.64906,5.3442 -13.73178,3.28357 z m 90.46691,-2.2403 c -1.61233,-1.26702 -3.41747,-3.80368 -4.01139,-5.63701 -0.59393,-1.83334 -0.88278,-17.05673 -0.6419,-33.829762 l 0.43797,-30.496426 9.57343,0.942514 c 5.26538,0.518381 9.66779,1.041773 9.78311,1.163093 0.11533,0.12132 0.84429,12.22058 1.61994,26.887246 0.77564,14.666665 1.79292,28.882305 2.26062,31.590305 0.7156,4.1434 0.31001,5.46398 -2.55934,8.33334 -4.08753,4.08753 -11.95621,4.58783 -16.46244,1.0467 z"
       id="path3201" />
  </g>
</svg>
