<?xml version="1.0" encoding="UTF-8" standalone="no"?>
<!-- Created with Inkscape (http://www.inkscape.org/) -->

<svg
   version="1.1"
   id="svg3191"
   width="1070"
   height="1070"
   viewBox="0 0 1070 1070.0001"
   sodipodi:docname="about.svg"
   inkscape:version="1.4 (e7c3feb100, 2024-10-09)"
   xml:space="preserve"
   xmlns:inkscape="http://www.inkscape.org/namespaces/inkscape"
   xmlns:sodipodi="http://sodipodi.sourceforge.net/DTD/sodipodi-0.dtd"
   xmlns="http://www.w3.org/2000/svg"
   xmlns:svg="http://www.w3.org/2000/svg"><sodipodi:namedview
     id="namedview6"
     pagecolor="#ffffff"
     bordercolor="#666666"
     borderopacity="1.0"
     inkscape:pageshadow="2"
     inkscape:pageopacity="0.0"
     inkscape:pagecheckerboard="0"
     showgrid="false"
     inkscape:zoom="0.48636144"
     inkscape:cx="920.09762"
     inkscape:cy="729.90984"
     inkscape:window-width="1920"
     inkscape:window-height="1131"
     inkscape:window-x="0"
     inkscape:window-y="32"
     inkscape:window-maximized="1"
     inkscape:current-layer="svg3191"
     inkscape:showpageshadow="2"
     inkscape:deskcolor="#d1d1d1" /><defs
     id="defs3195"><inkscape:path-effect
       effect="powermask"
       id="path-effect378"
       is_visible="true"
       lpeversion="1"
       uri="#mask-powermask-path-effect378"
       invert="false"
       hide_mask="false"
       background="true"
       background_color="#ffffffff" /><mask
       maskUnits="userSpaceOnUse"
       id="mask-powermask-path-effect378"><path
         id="mask-powermask-path-effect378_box"
         style="fill:#ffffff;fill-opacity:1"
         d="M -0.99999592,-0.99999592 H 1071 V 1071 H -0.99999592 Z" /><path
         id="path378"
         clip-path="none"
         mask="none"
         style="stroke-width:404.173"
         d="M 916.55584,758.02912 516.7963,983.8503 131.35648,752.12954 145.67617,294.58758 545.43568,68.7664 930.87554,300.48719 Z" /></mask><filter
       id="mask-powermask-path-effect378_inverse"
       inkscape:label="filtermask-powermask-path-effect378"
       style="color-interpolation-filters:sRGB"
       height="100"
       width="100"
       x="-50"
       y="-50"><feColorMatrix
         id="mask-powermask-path-effect378_primitive1"
         values="1"
         type="saturate"
         result="fbSourceGraphic" /><feColorMatrix
         id="mask-powermask-path-effect378_primitive2"
         values="-1 0 0 0 1 0 -1 0 0 1 0 0 -1 0 1 0 0 0 1 0 "
         in="fbSourceGraphic" /></filter></defs><path
     d="m 534.86565,376.7574 c -89.6071,-0.2418 -108.95473,0.019 -109.51559,1.4805 -0.37466,0.9766 -0.68164,10.9601 -0.68164,22.1856 0,28.0714 -1.91408,26.2828 28.98833,27.0937 l 24.0878,0.6309 -0.5253,162.5996 c -0.2891,89.429 -0.8667,163.1482 -1.2832,163.8222 -0.4166,0.6741 -10.8067,1.2266 -23.0899,1.2266 -17.16618,0 -22.9325,0.4361 -24.92187,1.8887 -2.33356,1.7038 -2.63095,3.9155 -3.01367,22.4804 -0.34615,16.7909 -0.0605,20.9552 1.54492,22.5606 1.71005,1.7101 16.12886,1.916 109.75782,1.5781 l 107.7891,-0.3887 0.8886,-10.3925 c 1.2255,-14.3355 -0.1073,-33.3055 -2.4785,-35.2735 -1.2068,-1.0015 -10.4088,-1.7814 -25.8105,-2.1855 l -23.9336,-0.627 V 590.7516 426.0641 l 24.334,0.8828 c 15.1207,0.5476 25.0911,0.388 26.3339,-0.4199 1.6518,-1.0739 2,-5.3519 2,-24.5703 0,-12.799 -0.3688,-23.6403 -0.8183,-24.0899 -0.4495,-0.4495 -49.7932,-0.9478 -109.6524,-1.1094 z"
     style="fill:#ffffff;stroke-width:1.33333;stroke:none;stroke-opacity:1;fill-opacity:1"
     id="path313" /><path
     d="m 526.94575,193.441 c -3.6078,0.1378 -6.839,0.4464 -9.2519,0.9473 -23.4015,4.8581 -45.6234,26.3479 -51.6621,49.959 -6.8491,26.7796 -0.2942,51.4597 18.7168,70.4707 11.8637,11.8637 24.0375,17.4312 43.9199,20.0859 6.9002,0.9214 20.9714,-0.846 29.334,-3.6855 20.6931,-7.0265 37.0576,-23.2357 45.1679,-44.7364 4.5816,-12.1459 4.7778,-33.1395 0.4121,-44.1601 -7.685,-19.4 -27.4714,-39.2628 -45.875,-46.0547 -5.72,-2.111 -19.9382,-3.2394 -30.7617,-2.8262 z"
     style="fill:#ffffff;stroke-width:1.33333;fill-opacity:1"
     id="path299" /><g
     id="g347"
     mask="url(#mask-powermask-path-effect378)"
     clip-path="none"
     inkscape:path-effect="#path-effect378"
     style="stroke:#ffffff;stroke-opacity:1"><path
       id="path1922"
       style="fill:none;fill-opacity:0.497448;stroke:#ffffff;stroke-width:62.7022;stroke-opacity:1"
       d="M 1038.6489,535 A 503.6489,503.6489 0 0 1 535,1038.6489 503.6489,503.6489 0 0 1 31.351105,535 503.6489,503.6489 0 0 1 535,31.351105 503.6489,503.6489 0 0 1 1038.6489,535 Z"
       inkscape:original-d="M 1038.6489,535 A 503.6489,503.6489 0 0 1 535,1038.6489 503.6489,503.6489 0 0 1 31.351105,535 503.6489,503.6489 0 0 1 535,31.351105 503.6489,503.6489 0 0 1 1038.6489,535 Z" /></g><path
     sodipodi:type="star"
     style="fill:none;stroke-width:1000"
     id="path374"
     inkscape:flatsided="true"
     sodipodi:sides="5"
     sodipodi:cx="-91.593872"
     sodipodi:cy="-901.40002"
     sodipodi:r1="258.91153"
     sodipodi:r2="209.46382"
     sodipodi:arg1="-0.38572009"
     sodipodi:arg2="0.24259844"
     inkscape:rounded="0"
     inkscape:randomized="0"
     d="m 148.29485,-998.80938 -73.117227,295.45594 -303.589763,21.76229 -114.51157,-282.0061 232.81772,-196.05165 z"
     inkscape:transform-center-x="5.720558"
     inkscape:transform-center-y="-19.22"
     transform="translate(17.961386,14.505496)" /><path
     sodipodi:type="star"
     style="fill:none;stroke-width:1000"
     id="path375"
     inkscape:flatsided="true"
     sodipodi:sides="6"
     sodipodi:cx="-183.18774"
     sodipodi:cy="-851.96838"
     sodipodi:r1="208.9734"
     sodipodi:r2="180.97627"
     sodipodi:arg1="-0.55712439"
     sodipodi:arg2="-0.033525615"
     inkscape:rounded="0"
     inkscape:randomized="0"
     d="M -5.8154885,-962.46258 1.189161,-753.6066 -176.18309,-643.11241 -360.56,-741.47419 l -7.00465,-208.85598 177.37226,-110.49423 z"
     transform="translate(17.961386,14.505496)" /><path
     sodipodi:type="star"
     style="fill:none;stroke-width:1000"
     id="path376"
     inkscape:flatsided="true"
     sodipodi:sides="6"
     sodipodi:cx="-187.54936"
     sodipodi:cy="-847.60675"
     sodipodi:r1="428.54681"
     sodipodi:r2="371.13242"
     sodipodi:arg1="-0.44544021"
     sodipodi:arg2="0.078158563"
     inkscape:rounded="0"
     inkscape:randomized="0"
     d="m 199.18032,-1032.2484 -33.46051,427.23857 -386.72969,184.64161 -353.26916,-242.59692 33.46051,-427.23856 386.72968,-184.6416 z"
     transform="translate(17.961386,14.505496)" /></svg>
