<?xml version="1.0" encoding="UTF-8" standalone="no"?>
<!-- Generator: Adobe Illustrator 26.3.1, SVG Export Plug-In . SVG Version: 6.00 Build 0)  -->

<svg
   version="1.1"
   id="Layer_1"
   x="0px"
   y="0px"
   viewBox="0 0 117.40221 113.8"
   xml:space="preserve"
   width="117.40221"
   height="113.8"
   xmlns="http://www.w3.org/2000/svg"
   xmlns:svg="http://www.w3.org/2000/svg"><defs
   id="defs45" />
<style
   type="text/css"
   id="style2">
	.st0{fill:#231F20;}
	.st1{fill:#969696;}
	.st2{fill:#FC9114;}
	.st3{fill:#0096D7;}
	.st4{fill:#6DB413;}
</style>




<path
   class="st0"
   d="m 96.501104,110.7 c -0.9,-0.5 -1.5,-1.3 -2,-2.4 l -24,-53.8 c -1,-2.1 -1.8,-3.9 -2.5,-5.3 -0.9,-2 -1,-2.6 -1,-3 0,-1 0.4,-1.7 1.2,-2.2 v -1.9 h -19.8 V 44 c 0.3,0.3 0.6,0.5 0.8,0.8 0.3,0.3 0.4,0.8 0.4,1.3 0,0.5 -0.3,1.3 -0.8,2.5 -0.5,1.1 -1.2,2.6 -2,4.4 l -23.6,53.5 c -0.4,0.8 -0.9,1.9 -1.8,3.3 -0.8,1.3 -2.1,2.1 -3.8,2.2 v 1.8 h 22.6 V 112 c -2.5,-0.1 -3.7,-0.9 -3.7,-2.6 0,-0.8 0.5,-2.1 1.4,-4.1 0.8,-1.6 1.7,-3.5 2.6,-5.5 11.2,4.4 23.8,4.5 35.1,0.4 0.9,2 1.7,3.7 2.4,5.1 0.8,1.6 1.2,2.9 1.2,4 0,1.1 -0.4,1.8 -1.1,2.2 -0.5,0.3 -1.1,0.5 -1.6,0.5 v 1.8 h 23.2 V 112 c -1.3,-0.4 -2.4,-0.8 -3.2,-1.3 z m -51.1,-21.5 12.6,-28.1 12.9,28.5 c -8.2,2.8 -17.2,2.7 -25.5,-0.4 z"
   id="path4"
   style="fill:#000000;fill-opacity:1" /><path
   class="st1"
   d="m 13.801104,58.8 c 0,-4.2 0.6,-8.2 1.6,-12 l -12.8,-5.7 c -1.7,5.7 -2.6,11.4 -2.6,17.2 -0.1,16 6.6,31.5 18.2,42.5 l 0.9,-1.6 5.2,-11.7 c -6.6,-7.8 -10.5,-17.7 -10.5,-28.7 z"
   id="path6"
   style="fill:#000000;fill-opacity:1" /><path
   class="st2"
   d="m 114.7011,41.3 -12.7,5.7 c 1,3.8 1.6,7.8 1.6,11.9 0,10.9 -3.899996,20.9 -10.399996,28.7 l 5.2,11.7 0.8,1.5 C 110.8011,89.8 117.5011,74.3 117.4011,58.3 c 0,-5.7 -0.9,-11.4 -2.7,-17 z"
   id="path8"
   style="fill:#000000;fill-opacity:1" /><path
   class="st3"
   d="m 5.401104,34.1 12.7,5.6 c 6.7,-14.2 20.5,-24.2 36.8,-25.6 V 0 c -21.3,1.4 -40.6,14.7 -49.5,34.1 z"
   id="path10"
   style="fill:#000000;fill-opacity:1" /><path
   class="st4"
   d="M 112.0011,34.2 C 103.1011,14.7 83.801104,1.3 62.501104,0 v 14.1 c 16.4,1.4 30.2,11.5 36.9,25.7 z"
   id="path12"
   style="fill:#000000;fill-opacity:1" />





</svg>
