<?xml version="1.0" encoding="UTF-8" standalone="no"?>
<svg
   xmlns="http://www.w3.org/2000/svg"
   width="24"
   height="24"
   viewBox="0 0 24 24"
   fill="currentColor"
   class="icon icon-tabler icons-tabler-filled icon-tabler-affiliate"
>
  <path stroke="none"
     d="m 21.465192,6.8769759 c -1.705736,-3.7556983 -5.405667,-6.33834194 -9.48636,-6.58833714 0,0 0,2.71533314 0,2.71533314 3.142249,0.2711488 5.78643,2.2153429 7.071022,4.9518297 0,0 2.415338,-1.0788257 2.415338,-1.0788257 z M 1.0348084,6.8577453 c 0,0 2.4345694,1.078826 2.4345694,1.078826 1.2845911,-2.7364868 3.9287718,-4.6614506 7.0517912,-4.9325994 0,0 0,-2.71533314 0,-2.71533314 -4.0806935,0.2692257 -7.7806235,2.83263884 -9.4863606,6.56910654 0,0 0,0 0,0 z M 21.98249,8.2442578 c 0,0 -2.434568,1.098056 -2.434568,1.098056 0.192303,0.7326792 0.307684,1.5038182 0.307684,2.2922642 0,2.09996 -0.748062,4.026847 -1.994192,5.528742 0,0 0.996135,2.253805 0.996135,2.253805 0,0 0.153844,0.290378 0.153844,0.290378 2.223033,-2.11919 3.507626,-5.105672 3.488395,-8.188307 0,-1.098055 -0.173074,-2.1961122 -0.517298,-3.2749382 z M 2.6443934,11.615349 c 0,-0.807677 0.1153825,-1.578818 0.3076865,-2.3114962 0,0 -2.45379973,-1.098056 -2.45379973,-1.098056 C 0.17328627,9.3038528 2.1257011e-4,10.40191 2.1257011e-4,11.519196 -0.01901843,14.601831 1.2655732,17.588313 3.4886082,19.707503 c 0,0 0.1730737,-0.309609 0.1730737,-0.309609 0,0 0.9961349,-2.253804 0.9961349,-2.253804 -1.2653605,-1.501896 -2.0134234,-3.409552 -2.0134234,-5.528741 0,0 0,0 0,0 z m 15.8496996,9.997887 c -0.173072,-0.09615 -0.286531,-0.249995 -0.382685,-0.461529 0,0 -4.599912,-10.363266 -4.599912,-10.363266 -0.192303,-0.405762 -0.344225,-0.75191 -0.478837,-1.0211338 -0.173074,-0.3865324 -0.192304,-0.5019144 -0.192304,-0.5788374 0,-0.192303 0.07692,-0.326916 0.230766,-0.423068 0,0 0,-0.367301 0,-0.367301 0,0 -3.794161,0 -3.794161,0 0,0 0,0.367301 0,0.367301 0.05576,0.05769 0.11346,0.09615 0.151921,0.153843 0.05769,0.05769 0.07692,0.153843 0.07692,0.249995 0,0.09615 -0.05769,0.249996 -0.153844,0.4826844 -0.09423,0.211535 -0.228842,0.4999898 -0.382685,0.8461378 0,0 -4.5229916,10.307497 -4.5229916,10.307497 -0.076922,0.153843 -0.1730738,0.365377 -0.3442243,0.634604 -0.1538432,0.251918 -0.4038385,0.405761 -0.7288324,0.424991 0,0 0,0.346148 0,0.346148 0,0 4.3306875,0 4.3306875,0 0,0 0,-0.346148 0,-0.346148 -0.4788371,-0.01923 -0.7076789,-0.173073 -0.7076789,-0.501913 0,-0.153843 0.094229,-0.403839 0.2673025,-0.788447 0.1538433,-0.309609 0.326917,-0.674985 0.4980675,-1.059595 2.1461127,0.846138 4.5614527,0.865368 6.7267967,0.07691 0.173072,0.384609 0.326917,0.711525 0.459606,0.982674 0.153843,0.307686 0.230765,0.557681 0.230765,0.769216 0,0.211534 -0.07693,0.348071 -0.211535,0.424992 -0.09422,0.05768 -0.209611,0.09615 -0.305764,0.09615 0,0 0,0.346148 0,0.346148 0,0 4.446072,0 4.446072,0 0,0 0,-0.346148 0,-0.346148 -0.249996,-0.07691 -0.459608,-0.153844 -0.613451,-0.251917 0,0 0,0 0,0 z M 8.701971,17.47293 c 0,0 2.413417,-5.41336 2.413417,-5.41336 0,0 2.473029,5.490282 2.473029,5.490282 -1.571123,0.538449 -3.296092,0.519221 -4.886446,-0.07693 0,0 0,0 0,0 z"
  />
</svg>
